<svg width="119" height="50" viewBox="0 0 119 50" fill="none" xmlns="http://www.w3.org/2000/svg">
<path d="M25.7966 19.9686C26.9866 19.9447 28.1821 19.941 29.3741 19.9569C33.5426 20.0124 37.7171 19.8916 41.8813 20.004C48.5108 20.1828 47.3328 25.3365 47.4308 30.068C47.4598 31.475 47.4368 32.8237 47.3808 34.2227C47.3503 34.8635 46.9133 35.5477 46.9008 36.1677C46.5191 36.6092 46.3358 37.0605 45.8856 37.4805C44.7471 38.543 43.5053 38.772 42.0163 38.7585L30.0536 38.7485L26.6451 38.7545C22.2187 38.7612 20.1444 37.9062 19.9751 32.988C19.9598 30.6295 19.9312 28.2687 19.9652 25.9117C20.01 22.8145 20.9147 20.6422 24.2958 20.1596C24.8291 20.0835 25.2366 19.9846 25.7966 19.9686ZM25.9393 33.3527C26.2833 33.7277 26.8691 34.2952 27.4076 34.2907C31.6498 34.2545 35.9981 34.4207 40.2318 34.3017C40.7813 33.8315 40.8878 33.986 41.4353 33.3887C41.5088 31.929 41.5028 30.3835 41.4961 28.9205C41.4906 27.729 41.6511 26.0122 41.1411 24.9523C40.9978 24.8754 40.4913 24.5914 40.3603 24.5852C36.6578 24.4098 32.9198 24.5712 29.2096 24.5138C28.5783 24.504 27.9381 24.5081 27.3121 24.5292C26.6733 24.5695 26.5303 24.8946 26.0416 25.36C25.8743 25.9747 25.9223 28.2527 25.9296 29.0172C25.9423 30.4037 25.8991 31.9737 25.9393 33.3527Z" fill="white"/>
<path d="M72.3571 19.9313C74.1336 19.9864 76.5734 20.0234 78.3496 19.9219C78.2364 20.7606 78.2891 23.2329 78.2886 24.194L78.2914 36.5574C78.2894 37.1637 78.3501 37.7664 78.3416 38.3722C78.3374 38.6804 78.3659 38.7074 78.0776 38.7444L72.7759 38.7569C71.9676 38.7584 70.2529 38.7997 69.5416 38.4529C68.5186 37.9541 67.6914 36.6026 66.9374 35.7986C66.3476 35.0964 65.4006 34.4119 64.8484 33.7074C63.9216 32.3564 62.6014 31.3479 61.5689 30.1404C60.5631 28.9639 59.6289 27.9212 58.5136 26.8294C57.9606 26.2882 57.4716 25.5422 56.8636 24.9363C56.8944 26.0002 56.8181 27.1984 56.8091 28.2834L56.8039 35.0619C56.8049 35.8979 56.7609 38.0716 56.8989 38.7501L51.1094 38.7434C51.2299 37.8587 51.1706 35.3782 51.1706 34.3972L51.1719 24.5355L51.1666 21.5027C51.1651 21.0834 51.1374 20.3314 51.1749 19.9398C52.6176 19.9711 54.0604 19.9826 55.5034 19.9743C56.7311 19.9792 58.5206 19.9361 59.7196 20.2767C60.4151 20.4743 62.0871 22.4133 62.6734 22.9959C62.8771 23.1986 63.4576 24.0016 63.7536 24.3172L69.0329 29.8762C69.4249 30.2957 69.7294 30.7992 70.1336 31.1992C70.8879 31.9457 71.6154 32.7457 72.3909 33.4677C72.2916 30.2874 72.4471 26.9187 72.3836 23.7252C72.3594 22.4964 72.4319 21.148 72.3571 19.9313Z" fill="white"/>
<path d="M82.1492 19.9004C82.6964 20.0263 87.3269 19.9454 88.0742 19.916C87.9997 20.7053 88.0362 21.6195 88.0392 22.4238L88.0394 26.0492L88.0472 38.7589C86.2147 38.6882 83.9319 38.7474 82.0514 38.7427C82.1084 35.4614 82.0212 32.0477 82.0584 28.7742C82.0709 27.6879 81.9912 20.1268 82.1492 19.9004Z" fill="white"/>
<path d="M71.3128 42.1825C72.4473 42.1965 73.5818 42.1965 74.7163 42.1828C75.8103 42.1775 76.4856 42.064 77.5128 42.5083C77.7711 43.1683 78.0288 44.1455 77.6923 44.8365C77.5333 45.163 77.7173 45.5398 77.7568 45.8965C77.7943 46.2343 77.8066 46.538 77.8173 46.8738C77.7376 47.0418 77.6553 47.1985 77.5686 47.363C77.5236 47.4653 77.4668 47.5748 77.4173 47.6758C76.2743 48.0733 72.7663 47.898 71.3193 47.9298C71.2388 46.2955 71.3106 43.8498 71.3128 42.1825ZM72.5353 46.6648C73.4968 46.6618 75.6341 46.5988 76.4851 46.686C76.6186 46.5108 76.5556 45.8263 76.5483 45.553C75.2316 45.562 73.9146 45.5635 72.5978 45.5575C72.5643 45.9333 72.5498 46.2878 72.5353 46.6648ZM72.5911 44.26C73.8983 44.2783 75.2058 44.2758 76.5128 44.253C76.5626 43.932 76.5616 43.8185 76.5516 43.4995C75.2471 43.4773 73.8971 43.4908 72.6013 43.4488C72.5396 43.71 72.5966 43.9853 72.5911 44.26Z" fill="white"/>
<path d="M62.0803 42.2091C63.0141 42.1816 63.9533 42.1908 64.8871 42.1798C65.8908 42.1676 66.3918 42.0956 67.3058 42.5333C67.8223 43.9118 67.4118 45.4371 67.5868 46.8853L67.5361 46.9931C67.2508 47.5931 67.2193 47.6808 66.5753 47.8773C65.4416 47.9558 62.7733 48.0136 61.7891 47.7703C60.7193 47.5061 61.0928 43.6401 61.2586 42.7951C61.3128 42.5193 61.8381 42.3218 62.0803 42.2091ZM62.2816 46.6786C63.3806 46.6791 65.3133 46.6241 66.3683 46.7113C66.2813 45.7351 66.3218 44.4856 66.3513 43.4956C65.2116 43.4803 63.4268 43.5218 62.3518 43.4473C62.2581 44.2368 62.3376 45.7593 62.2816 46.6786Z" fill="white"/>
<path d="M41.6247 42.199C43.0932 42.1832 44.9732 42.0907 46.4345 42.327C47.0915 42.4335 47.3065 43.624 47.0832 43.9652C46.8185 44.0282 46.4457 44.0582 46.1785 43.9907C45.8877 43.9172 45.909 43.752 45.7742 43.5287C44.74 43.4077 43.0577 43.4992 41.9082 43.4472C41.9217 44.313 41.9782 45.8692 41.8645 46.692C42.445 46.6632 45.6355 46.7445 45.8517 46.573C45.9402 46.3055 45.9025 45.8555 45.8935 45.5585L44.5465 45.5607L43.76 45.5712C43.798 45.1735 43.7792 44.6495 43.7757 44.2405C44.5932 44.265 46.4572 44.352 47.1815 44.237C47.1612 45.4655 47.1495 46.6942 47.1465 47.923C45.937 47.8937 42.175 48.1067 41.3055 47.7535C41.071 47.6582 40.9382 47.4772 40.8422 47.2465C40.58 46.6155 40.6145 43.9775 40.717 43.2397C40.7507 42.9965 40.8535 42.7555 40.9437 42.5282L41.6247 42.199Z" fill="white"/>
<path d="M83.7196 42.1758C84.2016 42.178 84.8576 42.161 85.3221 42.2548C85.6296 42.3783 85.9711 43.137 86.0863 43.4183C86.7138 44.9478 87.3918 46.4315 88.1571 47.8973C87.6588 47.8823 87.1606 47.873 86.6623 47.8698C86.5093 47.402 86.3098 47.109 86.1623 46.5693L85.0478 46.5608C84.4368 46.5468 83.5106 46.453 82.9978 46.7978C82.6916 47.004 82.6736 47.3435 82.6053 47.6923C82.2808 48.0725 81.9971 47.8468 81.5198 47.9065C81.3326 47.93 81.1428 47.9998 80.9648 48.0628C81.5251 46.5245 82.5396 45.1198 83.0896 43.5633C83.2513 43.106 83.5253 42.6355 83.7196 42.1758ZM83.4698 45.3863C83.6633 45.371 84.1908 45.3188 84.3603 45.3368C84.6958 45.3343 85.0848 45.3488 85.4048 45.2678C85.5066 44.9763 84.8171 43.5308 84.4383 43.4203C84.3276 44.061 83.8551 44.8648 83.4698 45.3863Z" fill="white"/>
<path d="M91.765 42.168C92.189 42.2025 92.6303 42.1902 93.0568 42.1862C92.986 43.5725 93.0173 45.2595 93.0095 46.661C94.4505 46.5822 96.4425 46.7157 98.0063 46.6637L97.9943 47.887C96.7008 47.9207 95.4068 47.9307 94.113 47.917C93.4033 47.9132 92.451 47.8787 91.7598 47.9397L91.765 42.168Z" fill="white"/>
<path d="M50.8893 42.198C51.2858 42.1833 51.7446 42.1925 52.1463 42.1903C52.0693 43.6425 52.1713 45.2068 52.0998 46.6955C53.7451 46.6293 55.4648 46.7353 57.1321 46.6525C57.0596 47.114 57.1061 47.5058 57.0376 47.9723C56.6043 47.8498 56.0536 47.9315 55.6678 47.9128C54.9101 47.8755 51.4696 48.0193 50.9848 47.829C50.8153 47.4493 50.8696 42.9233 50.8893 42.198Z" fill="white"/>
<path d="M91.752 19.8984C92.5752 19.9936 94.0907 19.9668 94.9505 19.9691L100.475 19.9711L118.999 19.9959V24.5097C115.549 24.5187 111.643 24.4193 108.237 24.577C108.26 25.132 108.25 25.7317 108.242 26.2907C108.184 30.433 108.325 34.612 108.228 38.7505C106.366 38.7147 104.385 38.7467 102.514 38.7462C102.432 34.1237 102.504 29.2155 102.509 24.5776C101.813 24.526 101.101 24.5017 100.404 24.5124C97.5385 24.5564 94.6132 24.4268 91.756 24.5743C91.7675 23.0157 91.7662 21.457 91.752 19.8984Z" fill="white"/>
<path d="M15.4571 0H17.0586L17.0553 4.77995C17.0532 7.94693 16.8182 10.6962 19.214 13.1524C20.8619 14.8419 22.7845 15.5091 25.1248 15.4441C27.3385 15.3866 29.715 15.5141 31.9373 15.396C32.137 15.3847 32.3605 15.3426 32.5095 15.4644C32.583 15.653 32.5737 15.7099 32.5645 15.9135L32.5317 17.0441C31.0262 16.9816 29.4993 17.0233 27.99 17.0226C24.933 17.0212 22.205 16.6884 19.7449 18.8717C16.6112 21.6529 17.0342 24.93 17.0465 28.6877C17.0505 29.9185 16.9947 31.278 17.0674 32.512C16.4839 32.4673 16.0609 32.4312 15.4718 32.5207L15.4665 27.5303C15.4663 24.6937 15.7115 21.6842 13.4485 19.5594C12.8253 18.9743 11.999 18.1283 11.2398 17.7717C9.45963 16.9352 7.4591 17.0054 5.55425 17.0005C3.7036 16.9957 1.84192 17.0373 0 16.9917V15.435L0.07031 15.4364C1.64413 15.4646 3.25583 15.4323 4.83752 15.4454C8.01287 15.4965 10.7955 15.6768 13.2541 13.2426C15.726 10.7953 15.4559 7.87845 15.4505 4.73728C15.4396 3.15817 15.4418 1.57904 15.4571 0Z" fill="url(#paint0_linear_130_9979)"/>
<path d="M31.9375 15.3951C32.1373 15.3838 32.3607 15.3417 32.5097 15.4635C32.5832 15.6522 32.574 15.709 32.5647 15.9126L32.4675 15.859C32.392 15.9088 32.3493 16.0393 32.3098 16.1281L32.2465 16.1395C32.2173 15.5179 32.0162 15.7506 31.9375 15.3951Z" fill="#DE2E61"/>
<defs>
<linearGradient id="paint0_linear_130_9979" x1="24.8063" y1="7.95102" x2="7.60239" y2="24.5142" gradientUnits="userSpaceOnUse">
<stop stop-color="#D63361"/>
<stop offset="1" stop-color="#8B2F6B"/>
</linearGradient>
</defs>
</svg>
