<svg width="24" height="24" viewBox="0 0 24 24" fill="none" xmlns="http://www.w3.org/2000/svg">
<g clip-path="url(#clip0_167_4809)">
<path d="M6.79688 7.43418H7.70625C7.81406 7.85606 7.98281 8.25918 8.19844 8.62012L7.55156 9.26699C7.44375 9.3748 7.44375 9.55762 7.55156 9.67012L8.68125 10.7998C8.79375 10.9123 8.97656 10.9123 9.08906 10.7998L9.73125 10.1529C10.0969 10.3732 10.4953 10.5373 10.9172 10.6451V11.5545C10.9172 11.7139 11.0437 11.8404 11.2031 11.8404H12.7969C12.9563 11.8404 13.0828 11.7092 13.0828 11.5545V10.6451C13.5047 10.5373 13.9031 10.3686 14.2687 10.1529L14.9109 10.7998C15.0234 10.9123 15.2062 10.9123 15.3187 10.7998L16.4437 9.67012C16.5562 9.55762 16.5562 9.3748 16.4437 9.26699L15.8016 8.62012C16.0219 8.25918 16.1859 7.85606 16.2938 7.43418H17.2031C17.3625 7.43418 17.4891 7.30762 17.4891 7.14824V5.55449C17.4891 5.39512 17.3578 5.26855 17.2031 5.26855H16.2938C16.1859 4.84668 16.0172 4.44824 15.8016 4.08262L16.4437 3.44043C16.5562 3.32793 16.5562 3.14512 16.4437 3.0373L15.3187 1.90762C15.2062 1.79512 15.0234 1.79512 14.9109 1.90762L14.2687 2.5498C13.9031 2.32949 13.5047 2.16543 13.0828 2.05762V1.14824C13.0828 0.988867 12.9516 0.862305 12.7969 0.862305H11.2031C11.0437 0.862305 10.9172 0.988867 10.9172 1.14824V2.0623C10.4953 2.16543 10.0969 2.33418 9.73125 2.55449L9.08906 1.9123C8.97656 1.7998 8.79375 1.7998 8.68125 1.9123L7.55156 3.04199C7.44375 3.1498 7.44375 3.33262 7.55156 3.44512L8.19844 4.0873C7.97812 4.45293 7.81406 4.85137 7.70625 5.27324H6.79688C6.6375 5.27324 6.51094 5.40449 6.51094 5.55918V7.15293C6.51094 7.30762 6.64219 7.43418 6.79688 7.43418ZM12 3.67949C13.4766 3.67949 14.6766 4.8748 14.6766 6.35605C14.5359 9.89981 9.46875 9.89981 9.33281 6.35605C9.32812 4.8748 10.5234 3.67949 12 3.67949ZM15.8859 12.5623H20.4797C20.8547 12.5623 21.2016 12.7873 21.3937 13.1576C21.3937 13.1623 22.3172 14.9857 22.3219 14.9857C22.3219 14.9904 22.5328 15.3982 22.5281 15.4029H17.1891L17.1844 15.3982H17.1797L16.5234 14.0951C16.2141 13.4904 15.6281 13.1201 14.9906 13.1295C15.1828 12.7732 15.5203 12.5623 15.8859 12.5623ZM0.065625 14.8639C0.3 14.8826 0.965625 14.8029 1.13438 14.9436C1.13438 14.9482 0.904687 15.3936 0.904687 15.3936C0.9 15.3936 0.609375 15.3936 0.590625 15.3936C0.323438 15.3982 0.0984375 15.1639 0.065625 14.8639ZM22.3688 17.3154C22.4156 17.4139 22.3969 17.5404 22.4297 17.6436C22.4156 17.6107 22.4062 17.5779 22.4062 17.5404C22.3969 18.2857 21.4406 18.2811 21.4266 17.5404C21.4266 17.5639 21.4219 17.592 21.4125 17.6154C21.4219 17.367 21.5109 17.0811 21.7734 16.9967C21.9281 16.9404 22.1063 16.9873 22.2234 17.0998C22.2281 17.0998 22.2281 17.1045 22.2281 17.1045C22.2938 17.1654 22.3406 17.2357 22.3688 17.3154ZM23.6578 20.5217C23.6859 20.4936 23.7141 20.4654 23.7375 20.4373C23.7328 20.5686 23.7844 20.8826 23.5922 20.8873H22.4578C22.4156 20.8873 22.3781 20.8639 22.35 20.8311C22.5 20.8264 22.9828 20.8451 23.1188 20.8123C23.3203 20.7654 23.5078 20.6623 23.6578 20.5217ZM23.9531 17.2217L23.7516 18.4264L23.7469 18.4498L23.5312 19.7154C23.475 20.0623 23.2172 20.3154 22.9219 20.3154H19.2656L19.3359 19.9123H20.3203C20.4937 19.917 20.6297 19.7201 20.5547 19.5607L20.2453 18.8389C20.1141 18.5342 19.8328 18.2904 19.4719 18.1826V18.1779C19.4766 18.1732 19.4719 18.1732 19.4719 18.1686C19.4672 18.1639 19.4672 18.1592 19.4672 18.1592C19.4719 18.1545 19.4719 18.1545 19.4672 18.1545C19.4297 18.0326 19.3875 17.9061 19.3266 17.7889H20.9531C21.2062 18.8904 22.6828 18.8576 22.8937 17.7514C22.8094 17.7607 22.7203 17.7982 22.6359 17.7842C23.1187 17.7561 23.5828 17.5264 23.9531 17.2217ZM19.7766 19.0357L19.9313 19.4061H19.4203L19.5 18.942C19.5 18.9373 19.5 18.9326 19.5047 18.9326C19.5141 18.8764 19.5187 18.8201 19.5234 18.7639C19.6359 18.8295 19.725 18.9279 19.7766 19.0357ZM18.6516 22.5982C18.6844 22.5654 18.7078 22.5326 18.7359 22.4951C18.7219 22.6779 18.8109 23.1232 18.5391 23.1326H17.25C17.175 23.1326 17.1047 23.0811 17.0719 23.0014C17.1797 22.9967 17.8219 23.0107 17.9156 22.992C18.2016 22.9592 18.4641 22.8092 18.6516 22.5982ZM17.2078 19.1014C17.4375 20.0717 16.1203 20.3623 16.0547 19.3076C16.0594 18.5342 17.0016 18.3795 17.2078 19.1014ZM17.7047 19.0029C17.5734 18.3748 16.8516 17.9248 16.2422 18.2061C15.8953 18.3467 15.6422 18.6889 15.5672 19.0545H9.22969C9.21094 18.9561 9.18281 18.8576 9.13594 18.7686C8.67188 17.7936 7.35469 17.9717 7.09687 19.0029C6.60937 18.8764 6.17812 18.5717 5.85938 18.1826C5.85938 18.1779 5.85938 18.1779 5.86406 18.1779C5.86406 18.1732 5.86406 18.1732 5.86875 18.1686V18.1639C5.87344 18.1592 5.87344 18.1545 5.87344 18.1545C5.93438 17.9904 6.03281 17.8311 6.15937 17.7139C6.36094 17.4982 6.64688 17.4232 6.92813 17.4092C7.00313 17.4373 17.8219 17.4092 17.9062 17.4186C18.1828 17.4092 18.45 17.5217 18.6422 17.7139H18.6469C18.7781 17.8451 18.8766 18.0045 18.9375 18.1779C18.825 18.3139 18.6984 18.4498 18.5578 18.5576C18.5437 18.5717 18.5297 18.5811 18.5156 18.5904C18.5063 18.5998 18.5016 18.6045 18.4969 18.6045C18.4406 18.6514 18.3797 18.6889 18.3141 18.7357H18.3094C18.1266 18.8576 17.9203 18.9467 17.7047 19.0029ZM5.28281 18.6092C5.28281 18.6232 5.28281 18.6467 5.2875 18.6561C5.28281 18.6607 5.28281 18.6607 5.2875 18.6607C5.28281 18.6654 5.28281 18.6654 5.2875 18.6654C5.28281 18.6701 5.28281 18.6701 5.2875 18.6701C5.28281 18.6748 5.28281 18.6748 5.2875 18.6748C5.28281 18.8482 5.36719 19.2232 5.39062 19.4014H4.06875L4.22812 19.0311C4.33594 18.7779 4.66406 18.6045 5.02969 18.6045H5.28281V18.6092ZM18.7875 19.0311C18.7219 19.0779 18.6562 19.1248 18.5859 19.1717H18.5812C18.3141 19.3357 18.0234 19.4576 17.7188 19.5232C17.5031 20.7748 15.825 20.8123 15.5719 19.5654C15.6703 19.5607 15.8625 19.5889 15.9422 19.5186C15.8719 19.5842 15.6609 19.5561 15.5719 19.5607H9.23906C9.15469 19.5561 8.93906 19.5842 8.86875 19.5186C8.94375 19.5889 9.14531 19.5561 9.23906 19.5654C8.98125 20.8123 7.30781 20.7795 7.09219 19.5232C6.61406 19.4201 6.17812 19.1857 5.8125 18.8623C5.8125 18.867 5.94375 19.6217 5.94375 19.6311C5.94844 19.6311 5.94844 19.6357 5.94844 19.6357C5.94844 19.6357 5.94844 19.6357 5.94375 19.6404C6.02344 20.0998 6.22969 21.3092 6.31406 21.7873C6.38437 22.1998 6.68906 22.4998 7.03594 22.4998H17.7797C18.1312 22.4998 18.4359 22.1998 18.5016 21.7873L18.7406 20.3764L18.8672 19.6639C18.8672 19.6545 18.8672 19.6498 18.8719 19.6404C18.8672 19.6357 18.8672 19.6357 18.8672 19.6357C18.8672 19.6357 18.8672 19.6357 18.8719 19.6311C18.8719 19.6217 19.0031 18.8717 19.0031 18.8623C18.9328 18.9232 18.8578 18.9795 18.7875 19.0311ZM15.0375 21.8529C14.9906 21.9232 14.9109 21.9654 14.8219 21.9654H9.98438C9.80625 21.9701 9.675 21.7732 9.75 21.6139L10.0969 20.7936C10.3031 20.3107 10.8703 19.9826 11.5031 19.9826H13.3078C13.9406 19.9826 14.5078 20.3061 14.7141 20.7936L15.0609 21.6139C15.0937 21.6936 15.0844 21.7826 15.0375 21.8529ZM7.03594 23.0014H7.73906C7.70625 23.0811 7.63594 23.1326 7.56094 23.1326H6.27188C5.99531 23.1232 6.08906 22.6779 6.075 22.4951C6.29531 22.8045 6.65156 23.0014 7.03594 23.0014ZM1.08281 20.8264H1.65C1.62656 20.8639 1.58438 20.8826 1.54688 20.8826H0.407812C0.215625 20.8779 0.267187 20.5639 0.2625 20.4326C0.464063 20.6764 0.764063 20.8264 1.08281 20.8264ZM5.475 19.9123L5.54531 20.3154H1.08281C0.7875 20.3154 0.529688 20.0623 0.473438 19.7154L0.257812 18.4592L0.046875 17.2217C0.351562 17.4701 0.7125 17.667 1.10156 17.7514C1.3125 18.8623 2.79375 18.8998 3.04688 17.7936H5.48438C5.43281 17.8873 5.39062 17.9951 5.3625 18.1029V18.1076H5.025C4.45312 18.1076 3.94687 18.4029 3.75937 18.8436L3.45 19.5654C3.41719 19.6451 3.42656 19.7342 3.47344 19.8045C3.52031 19.8748 3.6 19.917 3.68437 19.917H5.475V19.9123ZM2.66719 16.6686C2.57344 16.5982 2.47031 16.5373 2.3625 16.5045C2.35781 16.4998 2.35781 16.4998 2.35781 16.5045C2.18906 16.4436 1.99688 16.4482 1.82812 16.4951C1.49063 16.5889 1.22344 16.8795 1.125 17.217C1.12031 17.2217 1.12031 17.2264 1.12031 17.2311C1.12031 17.2311 1.11562 17.2311 1.11562 17.2357C0.792187 17.142 0.4875 16.9639 0.253125 16.7248C0.248438 16.7248 0.24375 16.7201 0.24375 16.7154C0.182812 16.6592 0.135937 16.5982 0.084375 16.542C0.239062 16.1201 0.61875 15.8717 1.03594 15.9092H7.36406C7.35938 15.9092 7.23281 16.1717 7.22812 16.1764L6.71719 16.9264V16.9311C6.40781 16.9639 6.11719 17.0904 5.88281 17.292C5.87813 17.292 3.04688 17.292 3.04219 17.292C2.99063 17.0436 2.85938 16.8232 2.66719 16.6686ZM16.8 15.7545C16.9312 16.0123 17.2594 16.6592 17.3859 16.9123H7.425C7.57031 16.6217 7.87031 16.0404 8.01562 15.7498L8.7375 14.3248C8.81719 14.1748 8.925 14.0295 9.05625 13.917C9.2625 13.7389 9.52969 13.6311 9.80156 13.6311H15.0094C15.2484 13.6357 15.4828 13.7061 15.6703 13.8561C15.675 13.8561 15.675 13.8607 15.6797 13.8607C16.0453 14.0764 16.3687 14.9576 16.575 15.3139C16.5844 15.3373 16.7812 15.7217 16.8 15.7545ZM23.0906 15.3936L22.8609 14.9436C22.8609 14.9436 22.8656 14.9436 22.8656 14.9389C23.0391 14.8029 23.7234 14.8779 23.9344 14.8592C23.8969 15.1592 23.6766 15.3936 23.4047 15.3936C23.3906 15.3982 23.1 15.3982 23.0906 15.3936ZM22.4719 16.6404C22.2375 16.4717 21.9188 16.4107 21.6422 16.5092C21.6375 16.5045 21.6375 16.5045 21.6375 16.5092C21.5672 16.5279 21.5016 16.5561 21.4406 16.5982C21.4266 16.6029 21.4125 16.6217 21.3937 16.6264C21.1641 16.7764 21.0094 17.0201 20.9484 17.2873H18.9188C18.7594 17.1467 18.5719 17.0436 18.3703 16.9826C18.3656 16.9779 18.3656 16.9779 18.3609 16.9779C18.2297 16.9357 18.0891 16.9217 17.9531 16.9123C17.9484 16.9076 17.4422 15.9045 17.4375 15.8998H22.9172H22.9594C23.3719 15.867 23.7516 16.1154 23.9109 16.5326C23.6484 16.8607 23.2781 17.1139 22.875 17.2264C22.8141 17.0061 22.6922 16.8139 22.5187 16.6732C22.5094 16.6639 22.5 16.6545 22.4859 16.6498C22.4813 16.6451 22.4766 16.6498 22.4719 16.6404ZM2.56875 17.5357C2.56875 17.5732 2.57344 17.6061 2.5875 17.6389C2.57344 17.6154 2.56875 17.592 2.56406 17.5639C2.53125 18.2717 1.62656 18.2764 1.58437 17.5686C1.55625 17.2029 1.92656 16.8279 2.27812 17.0295C2.2875 17.0295 2.2875 17.0342 2.29688 17.0436C2.30156 17.0436 2.30156 17.0436 2.30625 17.0482H2.31094C2.325 17.0576 2.33437 17.0623 2.34844 17.0764C2.38125 17.0998 2.41406 17.1279 2.4375 17.1654C2.52656 17.2592 2.56875 17.3951 2.56875 17.5357ZM7.62188 15.3982H1.47187C1.60312 15.1498 2.46094 13.4482 2.61094 13.1576C2.79844 12.7873 3.14531 12.5623 3.52031 12.5623H8.11406C8.54063 12.5529 8.92031 12.8764 9.09375 13.2889C9.05156 13.3076 9.01406 13.3311 8.97656 13.3545C8.89219 13.4061 8.8125 13.4576 8.7375 13.5232H8.73281C8.32031 13.8279 7.875 14.9576 7.62656 15.3936L7.62188 15.3982ZM8.74688 19.1951C8.86406 20.1373 7.62187 20.2873 7.57969 19.3076C7.57969 19.3451 7.57031 19.3826 7.55625 19.4154C7.59375 19.317 7.57031 19.2045 7.60312 19.1061C7.63594 18.9795 7.71094 18.8623 7.80469 18.7732C8.17031 18.4404 8.70469 18.7404 8.74688 19.1951ZM5.35312 18.1404C5.35781 18.1264 5.35781 18.117 5.3625 18.1029H5.37187C5.3625 18.1123 5.35312 18.1264 5.35312 18.1404ZM7.48594 19.4998C7.47656 19.5045 7.47188 19.5092 7.46719 19.5139C7.47656 19.5092 7.48125 19.5045 7.48594 19.4998ZM7.14375 19.5373C7.20469 19.5467 7.26562 19.5607 7.32187 19.5607C7.26562 19.5654 7.20469 19.5467 7.14375 19.5373ZM17.2406 19.3639C17.25 19.4014 17.2641 19.4342 17.2828 19.4623C17.2594 19.4295 17.2453 19.3967 17.2406 19.3639ZM17.5266 19.5561C17.5734 19.5467 17.6203 19.542 17.6672 19.5326C17.6016 19.542 17.5359 19.5654 17.4703 19.5561C17.4891 19.5607 17.5078 19.5607 17.5266 19.5561ZM17.3203 19.4998C17.3297 19.5045 17.3344 19.5092 17.3391 19.5139C17.3344 19.5139 17.3297 19.5092 17.3203 19.4998ZM14.2453 20.9951L14.4422 21.4592H10.3687L10.5656 20.9951C10.6922 20.6998 11.0766 20.4936 11.5031 20.4936H13.3078C13.7297 20.4936 14.1187 20.6998 14.2453 20.9951Z" fill="url(#paint0_linear_167_4809)"/>
</g>
<defs>
<linearGradient id="paint0_linear_167_4809" x1="0.046875" y1="11.9975" x2="23.9531" y2="11.9975" gradientUnits="userSpaceOnUse">
<stop stop-color="#E2335F"/>
<stop offset="1" stop-color="#792F6C"/>
</linearGradient>
<clipPath id="clip0_167_4809">
<rect width="24" height="24" fill="white"/>
</clipPath>
</defs>
</svg>
