<svg width="24" height="24" viewBox="0 0 24 24" fill="none" xmlns="http://www.w3.org/2000/svg">
<g clip-path="url(#clip0_167_4832)">
<path fill-rule="evenodd" clip-rule="evenodd" d="M23.5638 20.7803H22.7624H22.7483H1.25093H1.23687H0.435465C0.196449 20.7803 0.0136719 20.5834 0.0136719 20.3585C0.0136719 20.1194 0.196449 19.9367 0.435465 19.9367H0.829138V18.601C0.829138 18.362 1.01191 18.1792 1.25093 18.1792H22.7483C22.9873 18.1792 23.1701 18.362 23.1701 18.601V19.9367H23.5638C23.8028 19.9367 23.9856 20.1194 23.9856 20.3585C23.9856 20.5834 23.8028 20.7803 23.5638 20.7803Z" fill="url(#paint0_linear_167_4832)"/>
<path fill-rule="evenodd" clip-rule="evenodd" d="M20.8496 22.3831H3.14836C2.90934 22.3831 2.72656 22.1863 2.72656 21.9613C2.72656 21.7223 2.90934 21.5396 3.14836 21.5396H20.8496C21.0745 21.5396 21.2714 21.7223 21.2714 21.9613C21.2714 22.1863 21.0745 22.3831 20.8496 22.3831Z" fill="url(#paint1_linear_167_4832)"/>
<path fill-rule="evenodd" clip-rule="evenodd" d="M18.7699 23.972H5.23039C4.99137 23.972 4.80859 23.7892 4.80859 23.5502C4.80859 23.3253 4.99137 23.1284 5.23039 23.1284H18.7699C18.9949 23.1284 19.1917 23.3253 19.1917 23.5502C19.1917 23.7892 18.9949 23.972 18.7699 23.972Z" fill="url(#paint2_linear_167_4832)"/>
<path fill-rule="evenodd" clip-rule="evenodd" d="M12.8512 16.9562C12.3591 16.9562 11.7826 16.7312 11.3327 16.3516C11.1499 16.211 11.0375 16.0985 10.9531 16.0142C10.925 15.986 10.8969 15.9579 10.8828 15.9439C10.7984 15.9579 10.6438 16.0001 10.461 16.0423L10.1939 16.0985C9.06909 16.3657 8.23957 16.4781 7.41004 16.4781C6.59458 16.4781 5.77911 16.3797 4.59809 16.0985L4.3169 16.0423C4.13412 16.0001 3.97946 15.9579 3.90916 15.9439C3.88104 15.972 3.85293 16.0001 3.82481 16.0142C3.74045 16.0985 3.62797 16.211 3.45925 16.3516C3.00934 16.7312 2.43289 16.9562 1.9408 16.9562C1.63148 16.9562 1.36435 16.8718 1.16751 16.7031C0.942556 16.5203 0.830078 16.2672 0.830078 15.9579C0.830078 15.508 1.11127 15.0019 1.5893 14.6082C1.77208 14.4535 1.91268 14.3551 2.0111 14.2989C2.0111 14.2848 2.0111 14.2567 1.99704 14.2426C1.98298 14.1302 1.96892 13.9755 1.95486 13.7646C1.68772 10.3059 1.68772 6.66442 1.95486 3.20572C1.96892 2.99483 1.98298 2.84017 1.99704 2.72769C2.0111 2.71363 2.0111 2.69957 2.0111 2.67145C1.91268 2.61521 1.77208 2.5168 1.5893 2.36214C1.11127 1.96847 0.830078 1.46231 0.830078 1.0124C0.830078 0.717148 0.942556 0.450013 1.16751 0.267236C1.36435 0.0985187 1.63148 0.0141602 1.9408 0.0141602C2.43289 0.0141602 3.00934 0.239116 3.45925 0.61873C3.62797 0.759327 3.74045 0.871805 3.82481 0.956164C3.85293 0.984283 3.88104 1.0124 3.90916 1.02646C3.97946 1.0124 4.13412 0.984283 4.3169 0.942104L4.59809 0.871805C5.77911 0.60467 6.59458 0.492192 7.41004 0.492192C8.23957 0.492192 9.06909 0.60467 10.1939 0.871805L10.447 0.928044C10.6438 0.984283 10.7984 1.0124 10.8828 1.02646L10.9531 0.956164C11.0375 0.871805 11.1499 0.759327 11.3327 0.61873C11.7826 0.239116 12.345 0.0141602 12.8512 0.0141602C13.1605 0.0141602 13.4276 0.0985187 13.6245 0.267236C13.8354 0.450013 13.9619 0.717148 13.9619 1.0124C13.9619 1.46231 13.6807 1.96847 13.2027 2.36214C13.0058 2.5168 12.8652 2.61521 12.7809 2.67145V2.72769C12.7949 2.84017 12.823 2.99483 12.8371 3.20572C13.0902 6.66442 13.0902 10.3059 12.8371 13.7646C12.823 13.9755 12.7949 14.1302 12.7809 14.2426V14.2989C12.8652 14.3551 13.0058 14.4535 13.2027 14.6082C13.6807 15.0019 13.9619 15.508 13.9619 15.9579C13.9619 16.2532 13.8354 16.5203 13.6245 16.7031C13.4276 16.8718 13.1605 16.9562 12.8512 16.9562ZM10.8828 11.0511H3.8951C3.67015 11.0511 3.47331 10.8683 3.47331 10.6293V6.34105C3.47331 6.10203 3.67015 5.91926 3.8951 5.91926H10.8828C11.1218 5.91926 11.3046 6.10203 11.3046 6.34105V10.6293C11.3046 10.8683 11.1218 11.0511 10.8828 11.0511Z" fill="url(#paint3_linear_167_4832)"/>
<path fill-rule="evenodd" clip-rule="evenodd" d="M9.44716 8.07015H5.34171C5.1027 8.07015 4.91992 7.88737 4.91992 7.64836C4.91992 7.40934 5.1027 7.22656 5.34171 7.22656H9.44716C9.68618 7.22656 9.86896 7.40934 9.86896 7.64836C9.86896 7.88737 9.68618 8.07015 9.44716 8.07015Z" fill="url(#paint4_linear_167_4832)"/>
<path fill-rule="evenodd" clip-rule="evenodd" d="M9.44716 9.74349H5.34171C5.1027 9.74349 4.91992 9.56071 4.91992 9.32169C4.91992 9.09674 5.1027 8.8999 5.34171 8.8999H9.44716C9.68618 8.8999 9.86896 9.09674 9.86896 9.32169C9.86896 9.56071 9.68618 9.74349 9.44716 9.74349Z" fill="url(#paint5_linear_167_4832)"/>
<path fill-rule="evenodd" clip-rule="evenodd" d="M17.3359 17.7577V15.6347C17.3359 15.3957 17.5187 15.2129 17.7577 15.2129H22.7489C22.988 15.2129 23.1707 15.3957 23.1707 15.6347V17.7577H17.3359Z" fill="url(#paint6_linear_167_4832)"/>
<path fill-rule="evenodd" clip-rule="evenodd" d="M16.9129 15.6348H15.2538C15.0148 15.6348 14.832 15.4379 14.832 15.213V12.9775C14.832 12.7525 15.0148 12.5557 15.2538 12.5557H20.0341V14.7912H19.8232H17.7565C17.2925 14.7912 16.9129 15.1708 16.9129 15.6348ZM20.47 12.5557H22.7477C22.9867 12.5557 23.1695 12.7525 23.1695 12.9775V14.9036C23.0429 14.8333 22.9023 14.7912 22.7477 14.7912H20.6668H20.47V12.5557Z" fill="url(#paint7_linear_167_4832)"/>
<path fill-rule="evenodd" clip-rule="evenodd" d="M16.084 12.1339V9.89836C16.084 9.6734 16.2668 9.47656 16.5058 9.47656H21.497C21.736 9.47656 21.9188 9.6734 21.9188 9.89836V12.1339H20.0488H16.084Z" fill="url(#paint8_linear_167_4832)"/>
<path fill-rule="evenodd" clip-rule="evenodd" d="M15.6616 9.89803H15.2538C15.0148 9.89803 14.832 9.71526 14.832 9.47624V7.2548C14.832 7.01578 15.0148 6.83301 15.2538 6.83301H20.245C20.4841 6.83301 20.6668 7.01578 20.6668 7.2548V9.05445H16.5051C16.0412 9.05445 15.6616 9.43406 15.6616 9.89803Z" fill="url(#paint9_linear_167_4832)"/>
<path fill-rule="evenodd" clip-rule="evenodd" d="M19.8665 5.86327H14.8612C14.6363 5.86327 14.4395 5.68049 14.4395 5.44147V3.20597C14.4395 2.98102 14.6363 2.78418 14.8612 2.78418H19.8665C20.0915 2.78418 20.2883 2.98102 20.2883 3.20597V5.44147C20.2883 5.68049 20.0915 5.86327 19.8665 5.86327Z" fill="url(#paint10_linear_167_4832)"/>
</g>
<defs>
<linearGradient id="paint0_linear_167_4832" x1="0.0136719" y1="19.4797" x2="23.9856" y2="19.4797" gradientUnits="userSpaceOnUse">
<stop stop-color="#E2335F"/>
<stop offset="1" stop-color="#792F6C"/>
</linearGradient>
<linearGradient id="paint1_linear_167_4832" x1="2.72656" y1="21.9613" x2="21.2714" y2="21.9613" gradientUnits="userSpaceOnUse">
<stop stop-color="#E2335F"/>
<stop offset="1" stop-color="#792F6C"/>
</linearGradient>
<linearGradient id="paint2_linear_167_4832" x1="4.80859" y1="23.5502" x2="19.1917" y2="23.5502" gradientUnits="userSpaceOnUse">
<stop stop-color="#E2335F"/>
<stop offset="1" stop-color="#792F6C"/>
</linearGradient>
<linearGradient id="paint3_linear_167_4832" x1="0.830078" y1="8.48516" x2="13.9619" y2="8.48516" gradientUnits="userSpaceOnUse">
<stop stop-color="#E2335F"/>
<stop offset="1" stop-color="#792F6C"/>
</linearGradient>
<linearGradient id="paint4_linear_167_4832" x1="4.91992" y1="7.64836" x2="9.86896" y2="7.64836" gradientUnits="userSpaceOnUse">
<stop stop-color="#E2335F"/>
<stop offset="1" stop-color="#792F6C"/>
</linearGradient>
<linearGradient id="paint5_linear_167_4832" x1="4.91992" y1="9.32169" x2="9.86896" y2="9.32169" gradientUnits="userSpaceOnUse">
<stop stop-color="#E2335F"/>
<stop offset="1" stop-color="#792F6C"/>
</linearGradient>
<linearGradient id="paint6_linear_167_4832" x1="17.3359" y1="16.4853" x2="23.1707" y2="16.4853" gradientUnits="userSpaceOnUse">
<stop stop-color="#E2335F"/>
<stop offset="1" stop-color="#792F6C"/>
</linearGradient>
<linearGradient id="paint7_linear_167_4832" x1="14.832" y1="14.0952" x2="23.1695" y2="14.0952" gradientUnits="userSpaceOnUse">
<stop stop-color="#E2335F"/>
<stop offset="1" stop-color="#792F6C"/>
</linearGradient>
<linearGradient id="paint8_linear_167_4832" x1="16.084" y1="10.8052" x2="21.9188" y2="10.8052" gradientUnits="userSpaceOnUse">
<stop stop-color="#E2335F"/>
<stop offset="1" stop-color="#792F6C"/>
</linearGradient>
<linearGradient id="paint9_linear_167_4832" x1="14.832" y1="8.36552" x2="20.6668" y2="8.36552" gradientUnits="userSpaceOnUse">
<stop stop-color="#E2335F"/>
<stop offset="1" stop-color="#792F6C"/>
</linearGradient>
<linearGradient id="paint10_linear_167_4832" x1="14.4395" y1="4.32372" x2="20.2883" y2="4.32372" gradientUnits="userSpaceOnUse">
<stop stop-color="#E2335F"/>
<stop offset="1" stop-color="#792F6C"/>
</linearGradient>
<clipPath id="clip0_167_4832">
<rect width="24" height="24" fill="white"/>
</clipPath>
</defs>
</svg>
