<svg width="24" height="25" viewBox="0 0 24 25" fill="none" xmlns="http://www.w3.org/2000/svg">
<path d="M4.52565 11.7786C4.47329 11.9734 4.50185 12.1807 4.60439 12.3542L6.13955 14.9529C6.34682 15.3044 6.79689 15.4231 7.15395 15.2246L7.51687 15.0195C8.16286 15.5615 8.90847 15.9819 9.71486 16.2595V16.647C9.71486 17.0615 10.0507 17.397 10.4649 17.397H13.5352C13.9494 17.397 14.2852 17.0615 14.2852 16.647V16.2595C15.0916 15.9819 15.8372 15.5615 16.4832 15.0195L16.8461 15.2246C17.2017 15.4231 17.6532 15.3044 17.8605 14.9529L19.3956 12.3542C19.4982 12.1807 19.5268 11.9734 19.4744 11.7786C19.4224 11.5837 19.2938 11.4182 19.1184 11.3193L18.7716 11.1238C18.8504 10.7136 18.8903 10.3027 18.8903 9.89697C18.8903 9.49121 18.8504 9.08032 18.7716 8.67017L19.1184 8.47461C19.2938 8.37573 19.4224 8.21021 19.4744 8.01538C19.5268 7.82056 19.4982 7.61328 19.3956 7.4397L17.8605 4.84106C17.6532 4.4895 17.2017 4.36938 16.8461 4.56934L16.4832 4.77441C15.8372 4.23242 15.0916 3.81201 14.2852 3.53442V3.14697C14.2852 2.73242 13.9494 2.39697 13.5352 2.39697H10.4649C10.0507 2.39697 9.71486 2.73242 9.71486 3.14697V3.53442C8.90847 3.81201 8.16286 4.23242 7.51687 4.77441L7.15395 4.56934C6.79873 4.37085 6.34719 4.4895 6.13955 4.84106L4.60439 7.4397C4.50185 7.61328 4.47329 7.82056 4.52565 8.01538C4.57766 8.21021 4.7062 8.37573 4.88161 8.47461L5.22841 8.67017C5.14968 9.08032 5.10976 9.49121 5.10976 9.89697C5.10976 10.3027 5.14968 10.7136 5.22841 11.1238L4.88161 11.3193C4.7062 11.4182 4.57766 11.5837 4.52565 11.7786ZM12 5.39697C14.4815 5.39697 16.5 7.41553 16.5 9.89697C16.5 12.3784 14.4815 14.397 12 14.397C9.51857 14.397 7.50002 12.3784 7.50002 9.89697C7.50002 7.41553 9.51857 5.39697 12 5.39697Z" fill="black"/>
<path d="M4.52565 11.7786C4.47329 11.9734 4.50185 12.1807 4.60439 12.3542L6.13955 14.9529C6.34682 15.3044 6.79689 15.4231 7.15395 15.2246L7.51687 15.0195C8.16286 15.5615 8.90847 15.9819 9.71486 16.2595V16.647C9.71486 17.0615 10.0507 17.397 10.4649 17.397H13.5352C13.9494 17.397 14.2852 17.0615 14.2852 16.647V16.2595C15.0916 15.9819 15.8372 15.5615 16.4832 15.0195L16.8461 15.2246C17.2017 15.4231 17.6532 15.3044 17.8605 14.9529L19.3956 12.3542C19.4982 12.1807 19.5268 11.9734 19.4744 11.7786C19.4224 11.5837 19.2938 11.4182 19.1184 11.3193L18.7716 11.1238C18.8504 10.7136 18.8903 10.3027 18.8903 9.89697C18.8903 9.49121 18.8504 9.08032 18.7716 8.67017L19.1184 8.47461C19.2938 8.37573 19.4224 8.21021 19.4744 8.01538C19.5268 7.82056 19.4982 7.61328 19.3956 7.4397L17.8605 4.84106C17.6532 4.4895 17.2017 4.36938 16.8461 4.56934L16.4832 4.77441C15.8372 4.23242 15.0916 3.81201 14.2852 3.53442V3.14697C14.2852 2.73242 13.9494 2.39697 13.5352 2.39697H10.4649C10.0507 2.39697 9.71486 2.73242 9.71486 3.14697V3.53442C8.90847 3.81201 8.16286 4.23242 7.51687 4.77441L7.15395 4.56934C6.79873 4.37085 6.34719 4.4895 6.13955 4.84106L4.60439 7.4397C4.50185 7.61328 4.47329 7.82056 4.52565 8.01538C4.57766 8.21021 4.7062 8.37573 4.88161 8.47461L5.22841 8.67017C5.14968 9.08032 5.10976 9.49121 5.10976 9.89697C5.10976 10.3027 5.14968 10.7136 5.22841 11.1238L4.88161 11.3193C4.7062 11.4182 4.57766 11.5837 4.52565 11.7786ZM12 5.39697C14.4815 5.39697 16.5 7.41553 16.5 9.89697C16.5 12.3784 14.4815 14.397 12 14.397C9.51857 14.397 7.50002 12.3784 7.50002 9.89697C7.50002 7.41553 9.51857 5.39697 12 5.39697Z" fill="url(#paint0_linear_167_4990)"/>
<path d="M12 13.647C14.0711 13.647 15.75 11.968 15.75 9.89697C15.75 7.82591 14.0711 6.14697 12 6.14697C9.92894 6.14697 8.25 7.82591 8.25 9.89697C8.25 11.968 9.92894 13.647 12 13.647ZM12.8599 8.66211C12.7134 8.51562 12.7134 8.27832 12.8599 8.13184C13.0063 7.98535 13.2437 7.98535 13.3901 8.13184L14.8901 9.63184C15.0366 9.77832 15.0366 10.0156 14.8901 10.1621L13.3901 11.6621C13.3169 11.7354 13.2209 11.772 13.125 11.772C13.0291 11.772 12.9331 11.7354 12.8599 11.6621C12.7134 11.5156 12.7134 11.2783 12.8599 11.1318L14.0947 9.89697L12.8599 8.66211ZM9.10986 9.63184L10.6099 8.13184C10.7563 7.98535 10.9937 7.98535 11.1401 8.13184C11.2866 8.27832 11.2866 8.51562 11.1401 8.66211L9.90527 9.89697L11.1401 11.1318C11.2866 11.2783 11.2866 11.5156 11.1401 11.6621C11.0669 11.7354 10.9709 11.772 10.875 11.772C10.7791 11.772 10.6831 11.7354 10.6099 11.6621L9.10986 10.1621C8.96338 10.0156 8.96338 9.77832 9.10986 9.63184Z" fill="black"/>
<path d="M12 13.647C14.0711 13.647 15.75 11.968 15.75 9.89697C15.75 7.82591 14.0711 6.14697 12 6.14697C9.92894 6.14697 8.25 7.82591 8.25 9.89697C8.25 11.968 9.92894 13.647 12 13.647ZM12.8599 8.66211C12.7134 8.51562 12.7134 8.27832 12.8599 8.13184C13.0063 7.98535 13.2437 7.98535 13.3901 8.13184L14.8901 9.63184C15.0366 9.77832 15.0366 10.0156 14.8901 10.1621L13.3901 11.6621C13.3169 11.7354 13.2209 11.772 13.125 11.772C13.0291 11.772 12.9331 11.7354 12.8599 11.6621C12.7134 11.5156 12.7134 11.2783 12.8599 11.1318L14.0947 9.89697L12.8599 8.66211ZM9.10986 9.63184L10.6099 8.13184C10.7563 7.98535 10.9937 7.98535 11.1401 8.13184C11.2866 8.27832 11.2866 8.51562 11.1401 8.66211L9.90527 9.89697L11.1401 11.1318C11.2866 11.2783 11.2866 11.5156 11.1401 11.6621C11.0669 11.7354 10.9709 11.772 10.875 11.772C10.7791 11.772 10.6831 11.7354 10.6099 11.6621L9.10986 10.1621C8.96338 10.0156 8.96338 9.77832 9.10986 9.63184Z" fill="url(#paint1_linear_167_4990)"/>
<path d="M21.75 9.14697H19.5958C19.6224 9.39801 19.6403 9.64919 19.6403 9.89697C19.6403 10.1724 19.6238 10.4514 19.5908 10.7305C19.8875 10.9319 20.1061 11.2373 20.1991 11.5852C20.3027 11.9705 20.2452 12.3901 20.0413 12.7358L18.5061 15.3345C18.2388 15.7886 17.7433 16.0706 17.2141 16.0706C16.9852 16.0706 16.7578 16.0178 16.5524 15.9167C16.0803 16.2603 15.5709 16.5481 15.0297 16.7773C14.9634 17.5435 14.3185 18.147 13.5352 18.147H10.4648C9.68152 18.147 9.03662 17.5435 8.97034 16.7773C8.42871 16.5481 7.91931 16.2603 7.44763 15.9167C7.23926 16.0186 7.01294 16.0706 6.78552 16.0706C6.25635 16.0706 5.76123 15.7886 5.49353 15.3337L3.95874 12.7358C3.75476 12.3901 3.69727 11.9705 3.80127 11.5837C3.89392 11.2373 4.11255 10.9319 4.40918 10.7305C4.37622 10.4514 4.35974 10.1724 4.35974 9.89697C4.35974 9.64919 4.37759 9.39801 4.40424 9.14697H2.25C1.83582 9.14697 1.5 9.48242 1.5 9.89697V20.397C1.5 20.8115 1.83582 21.147 2.25 21.147H11.25V21.897H9.75C9.33582 21.897 9 22.2324 9 22.647C9 23.0615 9.33582 23.397 9.75 23.397H14.25C14.6642 23.397 15 23.0615 15 22.647C15 22.2324 14.6642 21.897 14.25 21.897H12.75V21.147H21.75C22.1642 21.147 22.5 20.8115 22.5 20.397V9.89697C22.5 9.48242 22.1642 9.14697 21.75 9.14697Z" fill="black"/>
<path d="M21.75 9.14697H19.5958C19.6224 9.39801 19.6403 9.64919 19.6403 9.89697C19.6403 10.1724 19.6238 10.4514 19.5908 10.7305C19.8875 10.9319 20.1061 11.2373 20.1991 11.5852C20.3027 11.9705 20.2452 12.3901 20.0413 12.7358L18.5061 15.3345C18.2388 15.7886 17.7433 16.0706 17.2141 16.0706C16.9852 16.0706 16.7578 16.0178 16.5524 15.9167C16.0803 16.2603 15.5709 16.5481 15.0297 16.7773C14.9634 17.5435 14.3185 18.147 13.5352 18.147H10.4648C9.68152 18.147 9.03662 17.5435 8.97034 16.7773C8.42871 16.5481 7.91931 16.2603 7.44763 15.9167C7.23926 16.0186 7.01294 16.0706 6.78552 16.0706C6.25635 16.0706 5.76123 15.7886 5.49353 15.3337L3.95874 12.7358C3.75476 12.3901 3.69727 11.9705 3.80127 11.5837C3.89392 11.2373 4.11255 10.9319 4.40918 10.7305C4.37622 10.4514 4.35974 10.1724 4.35974 9.89697C4.35974 9.64919 4.37759 9.39801 4.40424 9.14697H2.25C1.83582 9.14697 1.5 9.48242 1.5 9.89697V20.397C1.5 20.8115 1.83582 21.147 2.25 21.147H11.25V21.897H9.75C9.33582 21.897 9 22.2324 9 22.647C9 23.0615 9.33582 23.397 9.75 23.397H14.25C14.6642 23.397 15 23.0615 15 22.647C15 22.2324 14.6642 21.897 14.25 21.897H12.75V21.147H21.75C22.1642 21.147 22.5 20.8115 22.5 20.397V9.89697C22.5 9.48242 22.1642 9.14697 21.75 9.14697Z" fill="url(#paint2_linear_167_4990)"/>
<defs>
<linearGradient id="paint0_linear_167_4990" x1="9.68658" y1="-10.0584" x2="-14.1744" y2="10.1958" gradientUnits="userSpaceOnUse">
<stop stop-color="#E2335F"/>
<stop offset="1" stop-color="#792F6C"/>
</linearGradient>
<linearGradient id="paint1_linear_167_4990" x1="10.8433" y1="-0.0807055" x2="-1.0872" y2="10.0464" gradientUnits="userSpaceOnUse">
<stop stop-color="#E2335F"/>
<stop offset="1" stop-color="#792F6C"/>
</linearGradient>
<linearGradient id="paint2_linear_167_4990" x1="8.76119" y1="-2.68562" x2="-13.6479" y2="25.3464" gradientUnits="userSpaceOnUse">
<stop stop-color="#E2335F"/>
<stop offset="1" stop-color="#792F6C"/>
</linearGradient>
</defs>
</svg>
