<svg width="24" height="24" viewBox="0 0 24 24" fill="none" xmlns="http://www.w3.org/2000/svg">
<path d="M20.3386 11.7479H23.2969C23.685 11.7479 24 11.4334 24 11.0448C24 10.6566 23.685 10.3416 23.2969 10.3416H20.618C20.955 8.21727 20.7984 6.78055 20.7895 6.7032C20.7577 6.42523 20.5641 6.19273 20.2969 6.11117C19.2286 5.78398 18.2977 5.45211 17.4877 5.1268V3.38867H19.9022C20.1923 4.20711 20.9742 4.79492 21.8906 4.79492C23.0536 4.79492 24 3.84852 24 2.68555C24 1.52211 23.0536 0.576172 21.8906 0.576172C20.9742 0.576172 20.1923 1.16398 19.9022 1.98242H16.7845C16.3959 1.98242 16.0814 2.29695 16.0814 2.68555V4.51508C13.4752 3.28461 12.6112 2.27539 12.5592 2.21258C12.2783 1.82609 11.7219 1.82577 11.4408 2.21258C11.3888 2.27539 10.5248 3.28461 7.91859 4.51508V2.68555C7.91859 2.29695 7.60406 1.98242 7.21547 1.98242H4.09781C3.80766 1.16398 3.02578 0.576172 2.10938 0.576172C0.946406 0.576172 0 1.52211 0 2.68555C0 3.84852 0.946406 4.79492 2.10938 4.79492C3.02578 4.79492 3.80766 4.20711 4.09781 3.38867H6.51234V5.1268C5.70234 5.45211 4.77141 5.78398 3.70312 6.11117C3.43594 6.19273 3.24234 6.42523 3.21047 6.7032C3.20156 6.78055 3.045 8.21727 3.38203 10.3416H0.703125C0.315 10.3416 0 10.6566 0 11.0448C0 11.4334 0.315 11.7479 0.703125 11.7479H3.66141C3.81502 12.3876 3.99455 13.0025 4.23375 13.6721H2.30203C1.91391 13.6721 1.59891 13.9866 1.59891 14.3752C1.59891 14.7634 1.91391 15.0784 2.30203 15.0784H4.80094C5.41111 16.4275 6.15366 17.647 7.03266 18.7848H4.09781C3.80766 17.9663 3.02578 17.3785 2.10938 17.3785C0.946406 17.3785 0 18.3249 0 19.4879C0 20.6509 0.946406 21.5973 2.10938 21.5973C3.02578 21.5973 3.80766 21.0095 4.09781 20.191H8.23172C9.22219 21.2471 10.3467 22.217 11.5978 23.0893C11.8397 23.258 12.1603 23.258 12.4022 23.0893C13.6533 22.217 14.7778 21.2471 15.7683 20.191H19.9022C20.1923 21.0095 20.9742 21.5973 21.8906 21.5973C23.0536 21.5973 24 20.6509 24 19.4879C24 18.3249 23.0536 17.3785 21.8906 17.3785C20.9742 17.3785 20.1923 17.9663 19.9022 18.7848H16.9673C17.8442 17.6497 18.5875 16.4306 19.1991 15.0784H21.698C22.0861 15.0784 22.4011 14.7634 22.4011 14.3752C22.4011 13.9866 22.0861 13.6721 21.698 13.6721H19.7663C20.0052 13.0032 20.1847 12.3884 20.3386 11.7479ZM15.8691 15.3498C15.8691 16.0566 15.2944 16.6313 14.5875 16.6313H9.4125C8.70562 16.6313 8.13094 16.0566 8.13094 15.3498V11.3232C8.13094 10.7645 8.49 10.2887 8.98969 10.1134V9.65586C8.98969 7.99602 10.3402 6.64555 12 6.64555C13.6598 6.64555 15.0103 7.99602 15.0103 9.65586V10.1134C15.51 10.2887 15.8691 10.7645 15.8691 11.3232V15.3498Z" fill="black"/>
<path d="M20.3386 11.7479H23.2969C23.685 11.7479 24 11.4334 24 11.0448C24 10.6566 23.685 10.3416 23.2969 10.3416H20.618C20.955 8.21727 20.7984 6.78055 20.7895 6.7032C20.7577 6.42523 20.5641 6.19273 20.2969 6.11117C19.2286 5.78398 18.2977 5.45211 17.4877 5.1268V3.38867H19.9022C20.1923 4.20711 20.9742 4.79492 21.8906 4.79492C23.0536 4.79492 24 3.84852 24 2.68555C24 1.52211 23.0536 0.576172 21.8906 0.576172C20.9742 0.576172 20.1923 1.16398 19.9022 1.98242H16.7845C16.3959 1.98242 16.0814 2.29695 16.0814 2.68555V4.51508C13.4752 3.28461 12.6112 2.27539 12.5592 2.21258C12.2783 1.82609 11.7219 1.82577 11.4408 2.21258C11.3888 2.27539 10.5248 3.28461 7.91859 4.51508V2.68555C7.91859 2.29695 7.60406 1.98242 7.21547 1.98242H4.09781C3.80766 1.16398 3.02578 0.576172 2.10938 0.576172C0.946406 0.576172 0 1.52211 0 2.68555C0 3.84852 0.946406 4.79492 2.10938 4.79492C3.02578 4.79492 3.80766 4.20711 4.09781 3.38867H6.51234V5.1268C5.70234 5.45211 4.77141 5.78398 3.70312 6.11117C3.43594 6.19273 3.24234 6.42523 3.21047 6.7032C3.20156 6.78055 3.045 8.21727 3.38203 10.3416H0.703125C0.315 10.3416 0 10.6566 0 11.0448C0 11.4334 0.315 11.7479 0.703125 11.7479H3.66141C3.81502 12.3876 3.99455 13.0025 4.23375 13.6721H2.30203C1.91391 13.6721 1.59891 13.9866 1.59891 14.3752C1.59891 14.7634 1.91391 15.0784 2.30203 15.0784H4.80094C5.41111 16.4275 6.15366 17.647 7.03266 18.7848H4.09781C3.80766 17.9663 3.02578 17.3785 2.10938 17.3785C0.946406 17.3785 0 18.3249 0 19.4879C0 20.6509 0.946406 21.5973 2.10938 21.5973C3.02578 21.5973 3.80766 21.0095 4.09781 20.191H8.23172C9.22219 21.2471 10.3467 22.217 11.5978 23.0893C11.8397 23.258 12.1603 23.258 12.4022 23.0893C13.6533 22.217 14.7778 21.2471 15.7683 20.191H19.9022C20.1923 21.0095 20.9742 21.5973 21.8906 21.5973C23.0536 21.5973 24 20.6509 24 19.4879C24 18.3249 23.0536 17.3785 21.8906 17.3785C20.9742 17.3785 20.1923 17.9663 19.9022 18.7848H16.9673C17.8442 17.6497 18.5875 16.4306 19.1991 15.0784H21.698C22.0861 15.0784 22.4011 14.7634 22.4011 14.3752C22.4011 13.9866 22.0861 13.6721 21.698 13.6721H19.7663C20.0052 13.0032 20.1847 12.3884 20.3386 11.7479ZM15.8691 15.3498C15.8691 16.0566 15.2944 16.6313 14.5875 16.6313H9.4125C8.70562 16.6313 8.13094 16.0566 8.13094 15.3498V11.3232C8.13094 10.7645 8.49 10.2887 8.98969 10.1134V9.65586C8.98969 7.99602 10.3402 6.64555 12 6.64555C13.6598 6.64555 15.0103 7.99602 15.0103 9.65586V10.1134C15.51 10.2887 15.8691 10.7645 15.8691 11.3232V15.3498Z" fill="url(#paint0_linear_167_4877)"/>
<path d="M9.53711 11.4478V15.2249H14.4627V11.4478H9.53711ZM12.703 13.5843C12.703 13.9729 12.388 14.2874 11.9999 14.2874C11.6118 14.2874 11.2968 13.9729 11.2968 13.5843V13.0884C11.2968 12.6998 11.6118 12.3853 11.9999 12.3853C12.388 12.3853 12.703 12.6998 12.703 13.0884V13.5843Z" fill="black"/>
<path d="M9.53711 11.4478V15.2249H14.4627V11.4478H9.53711ZM12.703 13.5843C12.703 13.9729 12.388 14.2874 11.9999 14.2874C11.6118 14.2874 11.2968 13.9729 11.2968 13.5843V13.0884C11.2968 12.6998 11.6118 12.3853 11.9999 12.3853C12.388 12.3853 12.703 12.6998 12.703 13.0884V13.5843Z" fill="url(#paint1_linear_167_4877)"/>
<path d="M13.6046 9.65533V10.0411H10.3965V9.65533C10.3965 8.7708 11.116 8.05127 12.0005 8.05127C12.8851 8.05127 13.6046 8.7708 13.6046 9.65533Z" fill="black"/>
<path d="M13.6046 9.65533V10.0411H10.3965V9.65533C10.3965 8.7708 11.116 8.05127 12.0005 8.05127C12.8851 8.05127 13.6046 8.7708 13.6046 9.65533Z" fill="url(#paint2_linear_167_4877)"/>
<defs>
<linearGradient id="paint0_linear_167_4877" x1="8.29851" y1="-18.2229" x2="-27.9975" y2="14.4379" gradientUnits="userSpaceOnUse">
<stop stop-color="#E2335F"/>
<stop offset="1" stop-color="#792F6C"/>
</linearGradient>
<linearGradient id="paint1_linear_167_4877" x1="11.2402" y1="8.31134" x2="5.18218" y2="15.0172" gradientUnits="userSpaceOnUse">
<stop stop-color="#E2335F"/>
<stop offset="1" stop-color="#792F6C"/>
</linearGradient>
<linearGradient id="paint2_linear_167_4877" x1="11.5058" y1="6.39899" x2="8.44951" y2="10.5816" gradientUnits="userSpaceOnUse">
<stop stop-color="#E2335F"/>
<stop offset="1" stop-color="#792F6C"/>
</linearGradient>
</defs>
</svg>
