<svg width="24" height="25" viewBox="0 0 24 25" fill="none" xmlns="http://www.w3.org/2000/svg">
<g clip-path="url(#clip0_167_4882)">
<mask id="mask0_167_4882" style="mask-type:luminance" maskUnits="userSpaceOnUse" x="0" y="0" width="24" height="25">
<path d="M0 0.896484H24V24.8965H0V0.896484Z" fill="white"/>
</mask>
<g mask="url(#mask0_167_4882)">
<path d="M19.4996 10.397C19.6996 10.297 20.1996 9.29697 20.3996 7.39697H18.5996C18.7996 9.29697 19.2996 10.297 19.4996 10.397Z" fill="black"/>
<path d="M19.4996 10.397C19.6996 10.297 20.1996 9.29697 20.3996 7.39697H18.5996C18.7996 9.29697 19.2996 10.297 19.4996 10.397Z" fill="url(#paint0_linear_167_4882)"/>
<path d="M18.1988 1.59619C16.7988 1.99619 15.7988 3.09619 15.2988 4.39619H17.5988C17.6988 3.29619 17.8988 2.39619 18.1988 1.59619Z" fill="black"/>
<path d="M18.1988 1.59619C16.7988 1.99619 15.7988 3.09619 15.2988 4.39619H17.5988C17.6988 3.29619 17.8988 2.39619 18.1988 1.59619Z" fill="url(#paint1_linear_167_4882)"/>
<path d="M19.4996 1.39697C19.2996 1.49697 18.7996 2.49697 18.5996 4.39697H20.3996C20.1996 2.49697 19.6996 1.49697 19.4996 1.39697Z" fill="black"/>
<path d="M19.4996 1.39697C19.2996 1.49697 18.7996 2.49697 18.5996 4.39697H20.3996C20.1996 2.49697 19.6996 1.49697 19.4996 1.39697Z" fill="url(#paint2_linear_167_4882)"/>
<path d="M23.6988 4.39619C23.1988 3.09619 22.0988 1.99619 20.7988 1.59619C21.0988 2.29619 21.2988 3.29619 21.3988 4.39619H23.6988Z" fill="black"/>
<path d="M23.6988 4.39619C23.1988 3.09619 22.0988 1.99619 20.7988 1.59619C21.0988 2.29619 21.2988 3.29619 21.3988 4.39619H23.6988Z" fill="url(#paint3_linear_167_4882)"/>
<path d="M15.2988 7.39697C15.7988 8.69697 16.8988 9.79697 18.1988 10.197C17.8988 9.49697 17.6988 8.49697 17.5988 7.39697H15.2988Z" fill="black"/>
<path d="M15.2988 7.39697C15.7988 8.69697 16.8988 9.79697 18.1988 10.197C17.8988 9.49697 17.6988 8.49697 17.5988 7.39697H15.2988Z" fill="url(#paint4_linear_167_4882)"/>
<path d="M20.498 6.39648C20.498 6.19648 20.498 6.09648 20.498 5.89648C20.498 5.69648 20.498 5.59648 20.498 5.39648H18.498V5.89648V6.39648H20.498Z" fill="black"/>
<path d="M20.498 6.39648C20.498 6.19648 20.498 6.09648 20.498 5.89648C20.498 5.69648 20.498 5.59648 20.498 5.39648H18.498V5.89648V6.39648H20.498Z" fill="url(#paint5_linear_167_4882)"/>
<path d="M18.502 24.397C19.8827 24.397 21.002 23.2777 21.002 21.897C21.002 20.5163 19.8827 19.397 18.502 19.397C17.1213 19.397 16.002 20.5163 16.002 21.897C16.002 23.2777 17.1213 24.397 18.502 24.397Z" fill="black"/>
<path d="M18.502 24.397C19.8827 24.397 21.002 23.2777 21.002 21.897C21.002 20.5163 19.8827 19.397 18.502 19.397C17.1213 19.397 16.002 20.5163 16.002 21.897C16.002 23.2777 17.1213 24.397 18.502 24.397Z" fill="url(#paint6_linear_167_4882)"/>
<path d="M20.8008 10.197C22.2008 9.79697 23.2008 8.69697 23.7008 7.39697H21.4008C21.3008 8.49697 21.1008 9.39697 20.8008 10.197Z" fill="black"/>
<path d="M20.8008 10.197C22.2008 9.79697 23.2008 8.69697 23.7008 7.39697H21.4008C21.3008 8.49697 21.1008 9.39697 20.8008 10.197Z" fill="url(#paint7_linear_167_4882)"/>
<path d="M23.9004 5.39648H21.4004V5.89648V6.39648H23.9004C24.0004 6.19648 24.0004 6.09648 24.0004 5.89648C24.0004 5.69648 24.0004 5.59648 23.9004 5.39648Z" fill="black"/>
<path d="M23.9004 5.39648H21.4004V5.89648V6.39648H23.9004C24.0004 6.19648 24.0004 6.09648 24.0004 5.89648C24.0004 5.69648 24.0004 5.59648 23.9004 5.39648Z" fill="url(#paint8_linear_167_4882)"/>
<path d="M17.5 6.39648C17.5 6.19648 17.5 6.09648 17.5 5.89648C17.5 5.69648 17.5 5.59648 17.5 5.39648H15V5.89648C15 6.09648 15 6.19648 15.1 6.39648H17.5Z" fill="black"/>
<path d="M17.5 6.39648C17.5 6.19648 17.5 6.09648 17.5 5.89648C17.5 5.69648 17.5 5.59648 17.5 5.39648H15V5.89648C15 6.09648 15 6.19648 15.1 6.39648H17.5Z" fill="url(#paint9_linear_167_4882)"/>
<path d="M21.7 10.8965C21 11.1965 20.2 11.3965 19.5 11.3965C16.5 11.3965 14 8.89649 14 5.89648C14 5.59648 13.8 5.39648 13.5 5.39648H4.5L4 2.79648C4 2.59648 3.7 2.39648 3.5 2.39648H0.5C0.2 2.39648 0 2.59648 0 2.89648C0 3.19648 0.2 3.39648 0.5 3.39648H3.1L5.5 15.5965C5.8 17.1965 7.3 18.3965 8.9 18.3965H20.4C20.7 18.3965 20.9 18.1965 20.9 17.8965C20.9 17.5965 20.7 17.3965 20.4 17.3965H9C8.2 17.3965 7.4 16.9965 7 16.2965L21.6 14.2965C21.8 14.2965 22 14.0965 22 13.8965L22.4 11.3965C22.4 11.1965 22.4 10.9965 22.2 10.8965C22.1 10.8965 21.9 10.8965 21.7 10.8965Z" fill="black"/>
<path d="M21.7 10.8965C21 11.1965 20.2 11.3965 19.5 11.3965C16.5 11.3965 14 8.89649 14 5.89648C14 5.59648 13.8 5.39648 13.5 5.39648H4.5L4 2.79648C4 2.59648 3.7 2.39648 3.5 2.39648H0.5C0.2 2.39648 0 2.59648 0 2.89648C0 3.19648 0.2 3.39648 0.5 3.39648H3.1L5.5 15.5965C5.8 17.1965 7.3 18.3965 8.9 18.3965H20.4C20.7 18.3965 20.9 18.1965 20.9 17.8965C20.9 17.5965 20.7 17.3965 20.4 17.3965H9C8.2 17.3965 7.4 16.9965 7 16.2965L21.6 14.2965C21.8 14.2965 22 14.0965 22 13.8965L22.4 11.3965C22.4 11.1965 22.4 10.9965 22.2 10.8965C22.1 10.8965 21.9 10.8965 21.7 10.8965Z" fill="url(#paint10_linear_167_4882)"/>
<path d="M8.5 24.397C9.88071 24.397 11 23.2777 11 21.897C11 20.5163 9.88071 19.397 8.5 19.397C7.11929 19.397 6 20.5163 6 21.897C6 23.2777 7.11929 24.397 8.5 24.397Z" fill="black"/>
<path d="M8.5 24.397C9.88071 24.397 11 23.2777 11 21.897C11 20.5163 9.88071 19.397 8.5 19.397C7.11929 19.397 6 20.5163 6 21.897C6 23.2777 7.11929 24.397 8.5 24.397Z" fill="url(#paint11_linear_167_4882)"/>
</g>
</g>
<defs>
<linearGradient id="paint0_linear_167_4882" x1="19.222" y1="4.9059" x2="15.3102" y2="6.89817" gradientUnits="userSpaceOnUse">
<stop stop-color="#E2335F"/>
<stop offset="1" stop-color="#792F6C"/>
</linearGradient>
<linearGradient id="paint1_linear_167_4882" x1="16.3016" y1="-0.728809" x2="11.8248" y2="3.20701" gradientUnits="userSpaceOnUse">
<stop stop-color="#E2335F"/>
<stop offset="1" stop-color="#792F6C"/>
</linearGradient>
<linearGradient id="paint2_linear_167_4882" x1="19.222" y1="-1.0941" x2="15.3102" y2="0.89817" gradientUnits="userSpaceOnUse">
<stop stop-color="#E2335F"/>
<stop offset="1" stop-color="#792F6C"/>
</linearGradient>
<linearGradient id="paint3_linear_167_4882" x1="21.8016" y1="-0.728809" x2="17.3248" y2="3.20701" gradientUnits="userSpaceOnUse">
<stop stop-color="#E2335F"/>
<stop offset="1" stop-color="#792F6C"/>
</linearGradient>
<linearGradient id="paint4_linear_167_4882" x1="16.3016" y1="5.07197" x2="11.8248" y2="9.00779" gradientUnits="userSpaceOnUse">
<stop stop-color="#E2335F"/>
<stop offset="1" stop-color="#792F6C"/>
</linearGradient>
<linearGradient id="paint5_linear_167_4882" x1="19.1896" y1="4.56613" x2="17.7796" y2="6.95986" gradientUnits="userSpaceOnUse">
<stop stop-color="#E2335F"/>
<stop offset="1" stop-color="#792F6C"/>
</linearGradient>
<linearGradient id="paint6_linear_167_4882" x1="17.7308" y1="15.2452" x2="9.77715" y2="21.9966" gradientUnits="userSpaceOnUse">
<stop stop-color="#E2335F"/>
<stop offset="1" stop-color="#792F6C"/>
</linearGradient>
<linearGradient id="paint7_linear_167_4882" x1="21.8035" y1="5.07197" x2="17.3267" y2="9.00779" gradientUnits="userSpaceOnUse">
<stop stop-color="#E2335F"/>
<stop offset="1" stop-color="#792F6C"/>
</linearGradient>
<linearGradient id="paint8_linear_167_4882" x1="22.2994" y1="4.56613" x2="21.0873" y2="7.2412" gradientUnits="userSpaceOnUse">
<stop stop-color="#E2335F"/>
<stop offset="1" stop-color="#792F6C"/>
</linearGradient>
<linearGradient id="paint9_linear_167_4882" x1="15.8644" y1="4.56613" x2="14.6211" y2="7.20453" gradientUnits="userSpaceOnUse">
<stop stop-color="#E2335F"/>
<stop offset="1" stop-color="#792F6C"/>
</linearGradient>
<linearGradient id="paint10_linear_167_4882" x1="7.74527" y1="-10.8892" x2="-17.6695" y2="19.3131" gradientUnits="userSpaceOnUse">
<stop stop-color="#E2335F"/>
<stop offset="1" stop-color="#792F6C"/>
</linearGradient>
<linearGradient id="paint11_linear_167_4882" x1="7.72886" y1="15.2452" x2="-0.2248" y2="21.9966" gradientUnits="userSpaceOnUse">
<stop stop-color="#E2335F"/>
<stop offset="1" stop-color="#792F6C"/>
</linearGradient>
<clipPath id="clip0_167_4882">
<rect width="24" height="24" fill="white" transform="translate(0 0.896484)"/>
</clipPath>
</defs>
</svg>
