<svg width="24" height="24" viewBox="0 0 24 24" fill="none" xmlns="http://www.w3.org/2000/svg">
<path d="M8.77785 5.66268C8.77785 5.59903 8.80314 5.53798 8.84815 5.49297C8.89316 5.44797 8.9542 5.42268 9.01785 5.42268H18.1859C18.2495 5.42268 18.3106 5.44797 18.3556 5.49297C18.4006 5.53798 18.4259 5.59903 18.4259 5.66268C18.4259 5.72633 18.4006 5.78738 18.3556 5.83239C18.3106 5.8774 18.2495 5.90268 18.1859 5.90268H9.01785C8.9542 5.90268 8.89316 5.8774 8.84815 5.83239C8.80314 5.78738 8.77785 5.72633 8.77785 5.66268ZM6.74649 5.90268H8.07465C8.13831 5.90268 8.19935 5.8774 8.24436 5.83239C8.28937 5.78738 8.31465 5.72633 8.31465 5.66268C8.31465 5.59903 8.28937 5.53798 8.24436 5.49297C8.19935 5.44797 8.13831 5.42268 8.07465 5.42268H6.74649C6.68284 5.42268 6.6218 5.44797 6.57679 5.49297C6.53178 5.53798 6.50649 5.59903 6.50649 5.66268C6.50649 5.72633 6.53178 5.78738 6.57679 5.83239C6.6218 5.8774 6.68284 5.90268 6.74649 5.90268ZM13.0021 7.0986H6.74649C6.68284 7.0986 6.6218 7.12389 6.57679 7.1689C6.53178 7.2139 6.50649 7.27495 6.50649 7.3386C6.50649 7.40225 6.53178 7.4633 6.57679 7.50831C6.6218 7.55332 6.68284 7.5786 6.74649 7.5786H13.0021C13.0657 7.5786 13.1268 7.55332 13.1718 7.50831C13.2168 7.4633 13.2421 7.40225 13.2421 7.3386C13.2421 7.27495 13.2168 7.2139 13.1718 7.1689C13.1268 7.12389 13.0657 7.0986 13.0021 7.0986ZM22.6561 6.9306C22.5512 9.70764 20.265 11.9917 17.4656 12.2192C18.4823 12.6662 19.3413 13.4082 19.9313 14.349C20.5213 15.2899 20.8151 16.3863 20.7747 17.4961C20.6646 20.4241 18.1297 22.8049 15.1256 22.8049H2.75673C2.4029 22.8037 2.06236 22.67 1.80215 22.4302C1.54195 22.1905 1.38094 21.862 1.35084 21.5094C1.32074 21.1569 1.42371 20.8058 1.6395 20.5254C1.85528 20.245 2.16824 20.0555 2.51673 19.9943V14.5703C2.16909 14.5082 1.85719 14.3185 1.64222 14.0383C1.42726 13.7581 1.32475 13.4077 1.3548 13.0558C1.38485 12.704 1.5453 12.376 1.80467 12.1364C2.06403 11.8967 2.4036 11.7626 2.75673 11.7604H3.57849C3.41081 11.572 3.29666 11.3421 3.2479 11.0947C3.19915 10.8472 3.21757 10.5912 3.30126 10.3533C3.38495 10.1154 3.53085 9.90427 3.72378 9.74184C3.91672 9.57941 4.14964 9.47164 4.39833 9.42972V4.00572C4.05069 3.94364 3.73879 3.75389 3.52382 3.47371C3.30886 3.19353 3.20635 2.84313 3.2364 2.49127C3.26645 2.1394 3.4269 1.81147 3.68627 1.5718C3.94563 1.33213 4.2852 1.19803 4.63833 1.1958H17.1366C17.8797 1.19641 18.615 1.34681 19.2987 1.63804C19.9823 1.92926 20.6003 2.35532 21.1155 2.89075C21.6308 3.42619 22.0328 4.06 22.2976 4.75433C22.5624 5.44865 22.6845 6.18923 22.6566 6.9318L22.6561 6.9306ZM15.255 12.2401H2.75673C2.50849 12.2401 2.27042 12.3387 2.09488 12.5143C1.91935 12.6898 1.82073 12.9279 1.82073 13.1761C1.82073 13.4244 1.91935 13.6624 2.09488 13.838C2.27042 14.0135 2.50849 14.1121 2.75673 14.1121H15.255C15.6963 14.1128 16.1326 14.2054 16.5362 14.3839C16.9397 14.5624 17.3017 14.8231 17.5991 15.1492C17.9324 15.5114 18.1758 15.947 18.3098 16.4207C18.4437 16.8943 18.4644 17.3929 18.3702 17.876C18.276 18.3592 18.0695 18.8134 17.7673 19.2021C17.4652 19.5907 17.0759 19.9029 16.6309 20.1133V21.3536C16.6309 21.3964 16.6194 21.4383 16.5978 21.4752C16.5761 21.512 16.545 21.5424 16.5077 21.5632C16.4703 21.584 16.4281 21.5944 16.3854 21.5935C16.3427 21.5925 16.301 21.5801 16.2647 21.5576L14.6667 20.5681L13.0669 21.5576C13.0305 21.5801 12.9888 21.5925 12.9461 21.5935C12.9033 21.5944 12.8611 21.584 12.8238 21.5631C12.7864 21.5423 12.7553 21.5119 12.7337 21.475C12.712 21.4381 12.7006 21.3962 12.7007 21.3534V20.4529H2.75673C2.50849 20.4529 2.27042 20.5515 2.09488 20.7271C1.91935 20.9026 1.82073 21.1407 1.82073 21.3889C1.82073 21.6372 1.91935 21.8752 2.09488 22.0508C2.27042 22.2263 2.50849 22.3249 2.75673 22.3249H15.1256C17.8751 22.3249 20.1942 20.1505 20.2952 17.4781C20.3206 16.8001 20.209 16.1239 19.9672 15.49C19.7254 14.856 19.3583 14.2773 18.8878 13.7884C18.4174 13.2995 17.8532 12.9104 17.229 12.6444C16.6049 12.3784 15.9335 12.2409 15.255 12.2401ZM14.3603 15.5521C14.3603 15.4885 14.335 15.4274 14.29 15.3824C14.245 15.3374 14.1839 15.3121 14.1203 15.3121H11.8837C11.82 15.3121 11.759 15.3374 11.714 15.3824C11.669 15.4274 11.6437 15.4885 11.6437 15.5521C11.6437 15.6158 11.669 15.6768 11.714 15.7218C11.759 15.7668 11.82 15.7921 11.8837 15.7921H14.1203C14.1839 15.7921 14.245 15.7668 14.29 15.7218C14.335 15.6768 14.3603 15.6158 14.3603 15.5521ZM13.1807 17.5225V20.9231L14.5405 20.0831C14.5785 20.0596 14.6222 20.0471 14.6669 20.0471C14.7115 20.0471 14.7553 20.0596 14.7932 20.0831L16.1509 20.9231V19.9631V17.5225H13.1807ZM10.1363 18.4964C10.0726 18.4964 10.0116 18.5217 9.96655 18.5667C9.92154 18.6117 9.89625 18.6728 9.89625 18.7364C9.89625 18.8001 9.92154 18.8611 9.96655 18.9061C10.0116 18.9512 10.0726 18.9764 10.1363 18.9764H11.6739C11.7376 18.9764 11.7986 18.9512 11.8436 18.9061C11.8886 18.8611 11.9139 18.8001 11.9139 18.7364C11.9139 18.6728 11.8886 18.6117 11.8436 18.5667C11.7986 18.5217 11.7376 18.4964 11.6739 18.4964H10.1363ZM11.2998 17.2825C11.2998 17.2189 11.2745 17.1578 11.2295 17.1128C11.1845 17.0678 11.1234 17.0425 11.0598 17.0425H8.07465C8.011 17.0425 7.94996 17.0678 7.90495 17.1128C7.85994 17.1578 7.83465 17.2189 7.83465 17.2825C7.83465 17.3462 7.85994 17.4072 7.90495 17.4522C7.94996 17.4972 8.011 17.5225 8.07465 17.5225H11.0598C11.1234 17.5225 11.1845 17.4972 11.2295 17.4522C11.2745 17.4072 11.2998 17.3462 11.2998 17.2825ZM9.25785 15.5521C9.25785 15.4885 9.23257 15.4274 9.18756 15.3824C9.14255 15.3374 9.08151 15.3121 9.01785 15.3121H4.16049C4.09684 15.3121 4.0358 15.3374 3.99079 15.3824C3.94578 15.4274 3.92049 15.4885 3.92049 15.5521C3.92049 15.6158 3.94578 15.6768 3.99079 15.7218C4.0358 15.7668 4.09684 15.7921 4.16049 15.7921H9.01785C9.08151 15.7921 9.14255 15.7668 9.18756 15.7218C9.23257 15.6768 9.25785 15.6158 9.25785 15.5521ZM6.74649 17.0425H5.90649C5.84284 17.0425 5.7818 17.0678 5.73679 17.1128C5.69178 17.1578 5.66649 17.2189 5.66649 17.2825C5.66649 17.3462 5.69178 17.4072 5.73679 17.4522C5.7818 17.4972 5.84284 17.5225 5.90649 17.5225H6.74649C6.81015 17.5225 6.87119 17.4972 6.9162 17.4522C6.96121 17.4072 6.9865 17.3462 6.9865 17.2825C6.9865 17.2189 6.96121 17.1578 6.9162 17.1128C6.87119 17.0678 6.81015 17.0425 6.74649 17.0425ZM17.8748 7.5786H14.9046V10.9796L16.2671 10.138C16.305 10.1145 16.3488 10.102 16.3934 10.102C16.4381 10.102 16.4818 10.1145 16.5198 10.138L17.8748 10.978V7.5786ZM19.1257 4.90812C18.8734 4.63133 18.5663 4.41008 18.2238 4.25845C17.8814 4.10681 17.5111 4.0281 17.1366 4.02732H4.87833V9.40812H14.4246V7.3386C14.4246 7.27495 14.4499 7.2139 14.4949 7.1689C14.5399 7.12389 14.6009 7.0986 14.6646 7.0986H18.1148C18.1785 7.0986 18.2395 7.12389 18.2845 7.1689C18.3295 7.2139 18.3548 7.27495 18.3548 7.3386V9.0894C18.7242 8.90579 19.0458 8.6387 19.2941 8.30928C19.5425 7.97986 19.7107 7.59715 19.7855 7.19146C19.8603 6.78577 19.8396 6.36824 19.7251 5.97192C19.6105 5.57561 19.4053 5.2114 19.1257 4.90812Z" fill="url(#paint0_linear_167_4680)"/>
<defs>
<linearGradient id="paint0_linear_167_4680" x1="1.3457" y1="12.0004" x2="22.6605" y2="12.0004" gradientUnits="userSpaceOnUse">
<stop stop-color="#E2335F"/>
<stop offset="1" stop-color="#792F6C"/>
</linearGradient>
</defs>
</svg>
