<svg width="24" height="24" viewBox="0 0 24 24" fill="none" xmlns="http://www.w3.org/2000/svg">
<path d="M3.26946 6.96688L2.90571 8.04318C2.85162 8.20326 2.70223 8.30446 2.54182 8.30446C2.50263 8.30446 2.46284 8.29842 2.42356 8.28571L1.20556 7.89196C1.00367 7.82666 0.8929 7.6101 0.958197 7.40816C1.02345 7.20623 1.23996 7.09556 1.44195 7.16076L1.74096 7.25742C1.30531 6.29545 1.17621 5.2131 1.37956 4.1661C1.61234 2.96727 2.26849 1.88934 3.22713 1.13095C4.96193 -0.242819 7.36953 -0.348241 9.21781 0.868822C9.39504 0.985493 9.44407 1.22381 9.3274 1.40104C9.21073 1.57823 8.97251 1.62735 8.79523 1.51063C7.22445 0.47629 5.17845 0.565868 3.70404 1.73343C2.10678 2.99713 1.6091 5.15652 2.45613 6.97354L2.54154 6.72084C2.60946 6.51984 2.82753 6.41207 3.02853 6.47985C3.22953 6.54782 3.33743 6.76584 3.26946 6.96688ZM9.57851 9.15749C10.5377 8.39924 11.1941 7.32126 11.4267 6.1222C11.6391 5.02785 11.4879 3.89474 11.0032 2.90076L11.2271 2.98963C11.4244 3.06777 11.6477 2.97154 11.726 2.77434C11.8043 2.57713 11.7079 2.35377 11.5107 2.27545L10.3785 1.82582C10.2837 1.78823 10.1779 1.78977 10.0843 1.83023C9.99073 1.87068 9.91704 1.94667 9.87949 2.04149L9.43128 3.17367C9.35318 3.37096 9.44979 3.59423 9.64709 3.67232C9.69349 3.6907 9.74135 3.69941 9.78837 3.69941C9.94132 3.69941 10.086 3.60735 10.1457 3.45651L10.2678 3.14831C11.2268 4.99888 10.7486 7.25306 9.1017 8.55491C7.6474 9.70691 5.62053 9.80901 4.05813 8.80907C3.8794 8.69465 3.64184 8.74677 3.52742 8.92556C3.41304 9.10424 3.46521 9.34185 3.6439 9.45623C4.48718 9.99595 5.44545 10.2629 6.4009 10.2629C7.52857 10.2629 8.65231 9.89118 9.57851 9.15749ZM17.1442 4.86562C17.199 4.86562 17.2528 4.86852 17.3062 4.87429L18.0017 3.38432L16.2887 0.142446L16.2315 0.165509L16.9832 4.87382C17.036 4.86852 17.0899 4.86562 17.1442 4.86562ZM18.699 6.51182C18.6894 6.67476 18.6548 6.83095 18.599 6.97659L19.3878 8.10463L23.0526 8.24113L23.0613 8.18057L18.699 6.51182ZM17.1442 5.63418C16.7092 5.63418 16.3555 5.98743 16.3555 6.42145C16.3555 6.8564 16.7092 7.21017 17.1442 7.21017C17.5792 7.21017 17.9329 6.85645 17.9329 6.42145C17.9329 5.98743 17.5792 5.63418 17.1442 5.63418ZM11.7649 9.61621L15.6706 6.9261C15.6369 6.82757 15.6129 6.7252 15.5994 6.61898L13.909 6.63243L11.7188 9.57393L11.7649 9.61621ZM17.4763 7.94263C17.3691 7.96617 17.2581 7.97868 17.1442 7.97868C17.0303 7.97868 16.9192 7.96617 16.8121 7.9431L16.5525 10.9053H17.7358L17.4768 7.94263H17.4763ZM3.93012 18.5676H9.52324L9.7496 15.505H4.62223L3.93012 18.5676ZM10.0327 11.6738H5.48787L4.79576 14.7364H9.80637L10.0327 11.6738ZM10.8032 11.6738L10.5768 14.7364H15.449L15.2221 11.6738H10.8032ZM21.2306 14.7364L20.5389 11.6738H15.9926L16.2195 14.7364H21.2306ZM22.0952 18.5676L21.404 15.505H16.2767L16.5035 18.5676H22.0952ZM10.2932 18.5676H15.733L15.5061 15.505H10.52L10.2932 18.5676ZM3.83351 19.9258H22.1918V19.3361H3.83351V19.9258ZM15.9479 23.2081H15.1702L14.754 20.6944H13.9749H12.1552H11.3765L10.9598 23.2081H10.0788C9.86637 23.2081 9.69429 23.3802 9.69429 23.5921C9.69429 23.8046 9.86637 23.9767 10.0788 23.9767H11.2857H14.8443H15.9478C16.1603 23.9767 16.3324 23.8046 16.3324 23.5921C16.3324 23.3801 16.1603 23.2081 15.9479 23.2081Z" fill="url(#paint0_linear_167_4723)"/>
<defs>
<linearGradient id="paint0_linear_167_4723" x1="0.939453" y1="12" x2="23.0613" y2="12" gradientUnits="userSpaceOnUse">
<stop stop-color="#E2335F"/>
<stop offset="1" stop-color="#792F6C"/>
</linearGradient>
</defs>
</svg>
