<svg width="24" height="25" viewBox="0 0 24 25" fill="none" xmlns="http://www.w3.org/2000/svg">
<g clip-path="url(#clip0_167_4966)">
<path d="M11.8402 11.3149H11.248C11.2487 11.5376 11.2502 12.2421 11.2512 12.4551C11.4694 12.4541 11.703 12.4531 11.8401 12.4531C12.1822 12.4531 12.4712 12.1925 12.4712 11.8841C12.4712 11.5756 12.1823 11.3149 11.8402 11.3149Z" fill="black"/>
<path d="M11.8402 11.3149H11.248C11.2487 11.5376 11.2502 12.2421 11.2512 12.4551C11.4694 12.4541 11.703 12.4531 11.8401 12.4531C12.1822 12.4531 12.4712 12.1925 12.4712 11.8841C12.4712 11.5756 12.1823 11.3149 11.8402 11.3149Z" fill="url(#paint0_linear_167_4966)"/>
<path d="M16.0793 11.3149H15.4336C15.4343 11.5698 15.435 11.8479 15.435 11.9781C15.435 12.1307 15.4361 12.3997 15.4373 12.6436C15.6728 12.6424 15.9304 12.6413 16.0793 12.6413C16.4514 12.6413 16.7659 12.3376 16.7659 11.9781C16.7659 11.6186 16.4515 11.3149 16.0793 11.3149Z" fill="black"/>
<path d="M16.0793 11.3149H15.4336C15.4343 11.5698 15.435 11.8479 15.435 11.9781C15.435 12.1307 15.4361 12.3997 15.4373 12.6436C15.6728 12.6424 15.9304 12.6413 16.0793 12.6413C16.4514 12.6413 16.7659 12.3376 16.7659 11.9781C16.7659 11.6186 16.4515 11.3149 16.0793 11.3149Z" fill="url(#paint1_linear_167_4966)"/>
<path d="M23.5455 15.4907L21.0941 14.0754C21.1478 13.6744 21.1742 13.2854 21.1742 12.897C21.1742 12.5086 21.1478 12.1195 21.0941 11.7186L23.5455 10.3033C23.8818 10.1091 23.997 9.67914 23.8029 9.34286L20.9786 4.45108C20.7844 4.1148 20.3544 3.99958 20.0182 4.19374L17.5654 5.60983C16.94 5.13175 16.257 4.73805 15.5257 4.43407V1.60005C15.5258 1.21174 15.211 0.896973 14.8227 0.896973H9.17414C8.78583 0.896973 8.47107 1.21174 8.47107 1.60005V4.43407C7.73972 4.73805 7.0568 5.13175 6.43139 5.60983L3.97861 4.19374C3.64233 3.99958 3.21235 4.1148 3.01819 4.45108L0.193925 9.34286C-0.000230849 9.67914 0.114988 10.1091 0.451269 10.3033L2.90269 11.7186C2.84897 12.1195 2.82263 12.5086 2.82263 12.897C2.82263 13.2854 2.84897 13.6744 2.90269 14.0754L0.451269 15.4907C0.114988 15.6848 -0.000230849 16.1148 0.193925 16.4511L3.01819 21.3429C3.21235 21.6792 3.64233 21.7944 3.97861 21.6003L6.43139 20.1842C7.05666 20.6621 7.73972 21.0559 8.47107 21.3599V24.1939C8.47107 24.5823 8.78583 24.897 9.17414 24.897H14.8227C15.2109 24.897 15.5258 24.5823 15.5258 24.1939V21.3599C16.2571 21.0559 16.9402 20.6621 17.5654 20.1842L20.0182 21.6003C20.3545 21.7944 20.7845 21.6792 20.9786 21.3429L23.8029 16.4511C23.997 16.1148 23.8818 15.6848 23.5455 15.4907ZM8.72307 12.3696C9.0143 12.3696 9.25041 12.6057 9.25041 12.897C9.25041 13.1882 9.0143 13.4243 8.72307 13.4243H7.60388V14.479H8.85413C9.14536 14.479 9.38147 14.7151 9.38147 15.0063C9.38147 15.2976 9.14536 15.5337 8.85413 15.5337H7.07653C6.7853 15.5337 6.54919 15.2976 6.54919 15.0063V10.7876C6.54919 10.4964 6.7853 10.2603 7.07653 10.2603H8.85413C9.14536 10.2603 9.38147 10.4964 9.38147 10.7876C9.38147 11.0788 9.14536 11.3149 8.85413 11.3149H7.60388V12.3696H8.72307ZM13.3941 14.6579C13.5864 14.8765 13.5652 15.2098 13.3466 15.4022C13.2464 15.4903 13.1221 15.5336 12.9983 15.5336C12.8521 15.5336 12.7065 15.4731 12.6023 15.3547L11.2447 13.8122V15.0063C11.2447 15.2976 11.0085 15.5337 10.7173 15.5337C10.4261 15.5337 10.19 15.2976 10.19 15.0063V10.7876C10.19 10.4964 10.4261 10.2603 10.7173 10.2603C10.7175 10.2603 10.7178 10.2603 10.718 10.2603C10.7183 10.2603 10.7185 10.2603 10.7187 10.2603H11.8398C12.7693 10.2603 13.5255 10.9887 13.5255 11.884C13.5255 12.618 13.0172 13.2394 12.3219 13.4397L13.3941 14.6579ZM16.0814 13.696C15.932 13.696 15.671 13.6971 15.4341 13.6983V15.0063C15.4341 15.2976 15.198 15.5337 14.9067 15.5337C14.6155 15.5337 14.3794 15.2976 14.3794 15.0063V10.7893C14.3789 10.6491 14.4343 10.5146 14.5332 10.4153C14.6322 10.316 14.7666 10.2602 14.9067 10.2602H16.0814C17.0415 10.2602 17.8226 11.0308 17.8226 11.9781C17.8226 12.9253 17.0415 13.696 16.0814 13.696Z" fill="black"/>
<path d="M23.5455 15.4907L21.0941 14.0754C21.1478 13.6744 21.1742 13.2854 21.1742 12.897C21.1742 12.5086 21.1478 12.1195 21.0941 11.7186L23.5455 10.3033C23.8818 10.1091 23.997 9.67914 23.8029 9.34286L20.9786 4.45108C20.7844 4.1148 20.3544 3.99958 20.0182 4.19374L17.5654 5.60983C16.94 5.13175 16.257 4.73805 15.5257 4.43407V1.60005C15.5258 1.21174 15.211 0.896973 14.8227 0.896973H9.17414C8.78583 0.896973 8.47107 1.21174 8.47107 1.60005V4.43407C7.73972 4.73805 7.0568 5.13175 6.43139 5.60983L3.97861 4.19374C3.64233 3.99958 3.21235 4.1148 3.01819 4.45108L0.193925 9.34286C-0.000230849 9.67914 0.114988 10.1091 0.451269 10.3033L2.90269 11.7186C2.84897 12.1195 2.82263 12.5086 2.82263 12.897C2.82263 13.2854 2.84897 13.6744 2.90269 14.0754L0.451269 15.4907C0.114988 15.6848 -0.000230849 16.1148 0.193925 16.4511L3.01819 21.3429C3.21235 21.6792 3.64233 21.7944 3.97861 21.6003L6.43139 20.1842C7.05666 20.6621 7.73972 21.0559 8.47107 21.3599V24.1939C8.47107 24.5823 8.78583 24.897 9.17414 24.897H14.8227C15.2109 24.897 15.5258 24.5823 15.5258 24.1939V21.3599C16.2571 21.0559 16.9402 20.6621 17.5654 20.1842L20.0182 21.6003C20.3545 21.7944 20.7845 21.6792 20.9786 21.3429L23.8029 16.4511C23.997 16.1148 23.8818 15.6848 23.5455 15.4907ZM8.72307 12.3696C9.0143 12.3696 9.25041 12.6057 9.25041 12.897C9.25041 13.1882 9.0143 13.4243 8.72307 13.4243H7.60388V14.479H8.85413C9.14536 14.479 9.38147 14.7151 9.38147 15.0063C9.38147 15.2976 9.14536 15.5337 8.85413 15.5337H7.07653C6.7853 15.5337 6.54919 15.2976 6.54919 15.0063V10.7876C6.54919 10.4964 6.7853 10.2603 7.07653 10.2603H8.85413C9.14536 10.2603 9.38147 10.4964 9.38147 10.7876C9.38147 11.0788 9.14536 11.3149 8.85413 11.3149H7.60388V12.3696H8.72307ZM13.3941 14.6579C13.5864 14.8765 13.5652 15.2098 13.3466 15.4022C13.2464 15.4903 13.1221 15.5336 12.9983 15.5336C12.8521 15.5336 12.7065 15.4731 12.6023 15.3547L11.2447 13.8122V15.0063C11.2447 15.2976 11.0085 15.5337 10.7173 15.5337C10.4261 15.5337 10.19 15.2976 10.19 15.0063V10.7876C10.19 10.4964 10.4261 10.2603 10.7173 10.2603C10.7175 10.2603 10.7178 10.2603 10.718 10.2603C10.7183 10.2603 10.7185 10.2603 10.7187 10.2603H11.8398C12.7693 10.2603 13.5255 10.9887 13.5255 11.884C13.5255 12.618 13.0172 13.2394 12.3219 13.4397L13.3941 14.6579ZM16.0814 13.696C15.932 13.696 15.671 13.6971 15.4341 13.6983V15.0063C15.4341 15.2976 15.198 15.5337 14.9067 15.5337C14.6155 15.5337 14.3794 15.2976 14.3794 15.0063V10.7893C14.3789 10.6491 14.4343 10.5146 14.5332 10.4153C14.6322 10.316 14.7666 10.2602 14.9067 10.2602H16.0814C17.0415 10.2602 17.8226 11.0308 17.8226 11.9781C17.8226 12.9253 17.0415 13.696 16.0814 13.696Z" fill="url(#paint2_linear_167_4966)"/>
</g>
<defs>
<linearGradient id="paint0_linear_167_4966" x1="11.671" y1="10.3682" x2="9.84093" y2="12.0347" gradientUnits="userSpaceOnUse">
<stop stop-color="#E2335F"/>
<stop offset="1" stop-color="#792F6C"/>
</linearGradient>
<linearGradient id="paint1_linear_167_4966" x1="15.8943" y1="10.2117" x2="13.7798" y2="12.0114" gradientUnits="userSpaceOnUse">
<stop stop-color="#E2335F"/>
<stop offset="1" stop-color="#792F6C"/>
</linearGradient>
<linearGradient id="paint2_linear_167_4966" x1="8.32813" y1="-19.0316" x2="-29.7957" y2="13.0564" gradientUnits="userSpaceOnUse">
<stop stop-color="#E2335F"/>
<stop offset="1" stop-color="#792F6C"/>
</linearGradient>
<clipPath id="clip0_167_4966">
<rect width="24" height="24" fill="white" transform="translate(0 0.896973)"/>
</clipPath>
</defs>
</svg>
