<svg width="24" height="24" viewBox="0 0 24 24" fill="none" xmlns="http://www.w3.org/2000/svg">
<path d="M20.5527 5.00581L13.7082 0.776277C12.0285 -0.261732 9.96469 -0.255782 8.29563 0.776277L1.45057 5.00581C0.927065 5.32931 0.601562 5.92982 0.601562 6.57333C0.601562 7.57383 1.36857 8.38784 2.31108 8.38784H19.6922C20.6347 8.38784 21.4017 7.57383 21.4017 6.57333C21.4017 5.92982 21.0762 5.32931 20.5527 5.00581ZM11.0016 6.74983C9.73364 6.74983 8.70163 5.71782 8.70163 4.44981C8.70163 3.1818 9.73364 2.14979 11.0016 2.14979C12.2697 2.14979 13.3017 3.1818 13.3017 4.44981C13.3017 5.71782 12.2697 6.74983 11.0016 6.74983Z" fill="url(#paint0_linear_167_4709)"/>
<path d="M11.002 2.94971C10.175 2.94971 9.50195 3.62271 9.50195 4.44972C9.50195 5.27673 10.175 5.94973 11.002 5.94973C11.829 5.94973 12.502 5.27673 12.502 4.44972C12.502 3.62271 11.829 2.94971 11.002 2.94971ZM11.302 4.84972H10.702C10.481 4.84972 10.302 4.67072 10.302 4.44972C10.302 4.22872 10.481 4.04972 10.702 4.04972H11.302C11.523 4.04972 11.702 4.22872 11.702 4.44972C11.702 4.67072 11.523 4.84972 11.302 4.84972Z" fill="url(#paint1_linear_167_4709)"/>
<path d="M14.3436 23.9999H1.20196C0.539208 23.9999 0.00195312 23.4627 0.00195312 22.7999V21.5999C0.00195312 20.9399 0.541958 20.3999 1.20196 20.3999H12.0138C12.1714 20.3999 12.3132 20.493 12.3785 20.6364C12.8528 21.6792 13.6109 22.5965 14.5765 23.2748C14.8947 23.4984 14.7325 23.9999 14.3436 23.9999Z" fill="url(#paint2_linear_167_4709)"/>
<path d="M12.923 14.1564C12.9265 14.2403 12.9025 14.3227 12.8565 14.3929C12.3371 15.1861 12.0178 16.0497 11.8794 16.9161C11.8487 17.1084 11.6833 17.2501 11.4886 17.2501H9.36476C9.13955 17.2501 8.9597 17.0626 8.9691 16.8376L9.2721 9.56749C9.28095 9.35539 9.45546 9.18799 9.66776 9.18799H12.3361C12.5484 9.18799 12.7229 9.35539 12.7317 9.56749L12.923 14.1564Z" fill="url(#paint3_linear_167_4709)"/>
<path d="M6.18986 17.2501H2.91554C2.69033 17.2501 2.51048 17.0626 2.51988 16.8376L2.82289 9.56749C2.83174 9.35539 3.00624 9.18799 3.21854 9.18799H5.88686C6.09916 9.18799 6.27371 9.35539 6.28251 9.56749L6.58552 16.8376C6.59492 17.0625 6.41502 17.2501 6.18986 17.2501Z" fill="url(#paint4_linear_167_4709)"/>
<path d="M18.8127 11.4643C17.9405 11.3964 17.0394 11.5006 16.1688 11.803C15.9055 11.8945 15.6332 11.6905 15.6449 11.4121L15.722 9.56744C15.7308 9.35534 15.9054 9.18799 16.1176 9.18799H18.786C18.9983 9.18799 19.1729 9.35539 19.1817 9.56749L19.2436 11.0534C19.2536 11.2924 19.0512 11.4829 18.8127 11.4643Z" fill="url(#paint5_linear_167_4709)"/>
<path d="M18.2977 12.2441C15.1577 12.2441 12.6007 14.7977 12.5977 17.9387C12.5956 21.0799 15.1354 23.6442 18.2982 23.6442C21.4382 23.6442 23.9953 21.0902 23.9978 17.9492C24.0009 14.7992 21.4531 12.2441 18.2977 12.2441ZM18.6952 20.6422V21.1442C18.6952 21.3647 18.5162 21.5442 18.2952 21.5442C18.0747 21.5442 17.8952 21.3647 17.8952 21.1442V20.6417C17.3992 20.5552 16.9657 20.3087 16.6917 19.9467C16.5582 19.7707 16.5927 19.5197 16.7692 19.3867C16.9452 19.2532 17.1962 19.2877 17.3292 19.4637C17.6897 19.9391 18.5929 20.0189 19.1052 19.6232C19.2107 19.5417 19.3867 19.3687 19.3872 19.1237C19.3877 18.6737 19.1097 18.5442 18.2172 18.3607C17.4537 18.2037 16.4077 17.9887 16.4087 16.8137C16.4092 16.0697 17.0492 15.4467 17.9002 15.2962V14.7942C17.9002 14.5732 18.0797 14.3942 18.3002 14.3942C18.5212 14.3942 18.7002 14.5732 18.7002 14.7942V15.2962C19.1962 15.3832 19.6297 15.6292 19.9042 15.9912C20.0377 16.1672 20.0027 16.4182 19.8267 16.5517C19.6507 16.6852 19.3997 16.6502 19.2662 16.4742C19.0525 16.1921 18.6561 16.0612 18.2982 16.0612C17.7077 16.0612 17.2092 16.4057 17.2087 16.8142C17.2082 17.2642 17.4862 17.3937 18.3787 17.5772C19.1422 17.7342 20.1882 17.9497 20.1872 19.1247C20.1864 19.8243 19.6066 20.4846 18.6952 20.6422Z" fill="url(#paint6_linear_167_4709)"/>
<path d="M11.5241 19.5998H1.44324C1.22759 19.5998 1.05273 19.425 1.05273 19.2093C1.05273 18.569 1.57184 18.0498 2.21224 18.0498H11.4262C11.6318 18.0498 11.801 18.2095 11.8155 18.4146C11.8328 18.6588 11.8673 18.9185 11.9087 19.1426C11.9527 19.3809 11.7664 19.5998 11.5241 19.5998Z" fill="url(#paint7_linear_167_4709)"/>
<defs>
<linearGradient id="paint0_linear_167_4709" x1="0.601562" y1="4.19392" x2="21.4017" y2="4.19392" gradientUnits="userSpaceOnUse">
<stop stop-color="#E2335F"/>
<stop offset="1" stop-color="#792F6C"/>
</linearGradient>
<linearGradient id="paint1_linear_167_4709" x1="9.50195" y1="4.44972" x2="12.502" y2="4.44972" gradientUnits="userSpaceOnUse">
<stop stop-color="#E2335F"/>
<stop offset="1" stop-color="#792F6C"/>
</linearGradient>
<linearGradient id="paint2_linear_167_4709" x1="0.00195312" y1="22.1999" x2="14.7452" y2="22.1999" gradientUnits="userSpaceOnUse">
<stop stop-color="#E2335F"/>
<stop offset="1" stop-color="#792F6C"/>
</linearGradient>
<linearGradient id="paint3_linear_167_4709" x1="8.96875" y1="13.219" x2="12.9234" y2="13.219" gradientUnits="userSpaceOnUse">
<stop stop-color="#E2335F"/>
<stop offset="1" stop-color="#792F6C"/>
</linearGradient>
<linearGradient id="paint4_linear_167_4709" x1="2.51953" y1="13.219" x2="6.58587" y2="13.219" gradientUnits="userSpaceOnUse">
<stop stop-color="#E2335F"/>
<stop offset="1" stop-color="#792F6C"/>
</linearGradient>
<linearGradient id="paint5_linear_167_4709" x1="15.6445" y1="10.5066" x2="19.244" y2="10.5066" gradientUnits="userSpaceOnUse">
<stop stop-color="#E2335F"/>
<stop offset="1" stop-color="#792F6C"/>
</linearGradient>
<linearGradient id="paint6_linear_167_4709" x1="12.5977" y1="17.9442" x2="23.9978" y2="17.9442" gradientUnits="userSpaceOnUse">
<stop stop-color="#E2335F"/>
<stop offset="1" stop-color="#792F6C"/>
</linearGradient>
<linearGradient id="paint7_linear_167_4709" x1="1.05273" y1="18.8248" x2="11.9151" y2="18.8248" gradientUnits="userSpaceOnUse">
<stop stop-color="#E2335F"/>
<stop offset="1" stop-color="#792F6C"/>
</linearGradient>
</defs>
</svg>
