<svg width="24" height="24" viewBox="0 0 24 24" fill="none" xmlns="http://www.w3.org/2000/svg">
<path d="M0.75 8.29875H23.25V8.83899C23.25 9.10768 23.0307 9.327 22.762 9.327H1.23802C0.969328 9.327 0.75 9.10777 0.75 8.83899V8.29875ZM11.4479 17.5606C11.8353 17.6644 12.2346 17.8034 12.6259 17.874C12.826 17.9101 13.0014 17.8251 13.0557 17.6222C13.1072 17.4302 12.9857 17.2484 12.8042 17.1856C12.1739 16.9989 11.5585 16.8131 10.9338 16.6105C10.5863 16.4978 10.2549 16.6488 9.95709 16.8212L8.60175 17.606L9.50386 19.1999L9.87155 18.9876C9.90848 18.9664 9.95053 18.9621 9.98878 18.972L12.3734 19.6108C12.6753 19.6917 12.9611 19.6551 13.2281 19.4907C14.3239 18.8161 15.4199 18.1417 16.5156 17.467C16.7325 17.3335 16.7165 16.9189 16.4751 16.7966C16.2032 16.659 15.7847 16.8539 15.528 17.0033L13.7164 18.0585C13.4318 18.2243 13.1302 18.2697 12.8068 18.218C12.3485 18.1801 11.8148 17.9806 11.3677 17.8608C11.2848 17.8387 11.2355 17.7535 11.2577 17.6706C11.2798 17.5876 11.3649 17.5384 11.4479 17.5606ZM15.3279 12.8698C15.3914 12.7592 15.3121 12.6222 15.1846 12.6222H13.6187C13.5575 12.4983 13.4299 12.4131 13.2824 12.4131C13.0753 12.4131 12.9074 12.581 12.9074 12.7881V16.6297C12.9074 16.8368 13.0753 17.0047 13.2824 17.0047C13.4895 17.0047 13.6574 16.8368 13.6574 16.6297V14.845H15.1846C15.3121 14.845 15.3914 14.708 15.3279 14.5974L14.8791 13.816C14.849 13.7636 14.849 13.7037 14.8791 13.6514L15.3279 12.8698ZM23.25 7.5488H0.75L12 1.00439L23.25 7.5488ZM13.3909 4.75871C13.3909 3.99052 12.7682 3.36778 12 3.36778C11.2318 3.36778 10.6091 3.99052 10.6091 4.75871C10.6091 5.52689 11.2318 6.14963 12 6.14963C12.7682 6.14963 13.3909 5.52689 13.3909 4.75871ZM2.82511 10.077V20.5556H5.07281V10.077H2.82511ZM5.52909 21.3056H2.36883C2.05116 21.3056 1.79128 21.5655 1.79128 21.8832V22.4181C1.79128 22.7357 2.05116 22.9957 2.36883 22.9957H5.52909C5.84672 22.9957 6.10664 22.7358 6.10664 22.4181V21.8832C6.10664 21.5655 5.84672 21.3056 5.52909 21.3056ZM9.54342 19.8997C9.04734 19.0231 8.55891 18.126 8.04909 17.2593C8.01802 17.2054 7.94977 17.187 7.89717 17.2169L7.38881 17.5046C7.33538 17.5348 7.31644 17.6037 7.34639 17.6566L8.84072 20.297C8.87095 20.3504 8.93981 20.3693 8.99273 20.3394L9.501 20.0518C9.55444 20.0215 9.57337 19.9526 9.54342 19.8997ZM17.5294 14.1932C17.4502 14.0023 17.2311 13.9118 17.0402 13.9911C16.8493 14.0704 16.7588 14.2895 16.8381 14.4804C17.1024 15.1172 17.2357 15.7972 17.2357 16.4865C17.2357 17.9323 16.6496 19.2413 15.7022 20.1887C14.7548 21.1361 13.4458 21.7222 12 21.7222C11.6994 21.7222 11.4071 21.6975 11.1248 21.6502C11.2034 21.5595 11.2371 21.4326 11.2038 21.3079C11.1504 21.1081 10.9451 20.9894 10.7453 21.0428L9.77166 21.3036C9.48549 21.3648 9.37313 21.7233 9.58523 21.9354L10.3111 22.6613C10.4576 22.8077 10.695 22.8077 10.8414 22.6613C10.9189 22.5838 10.9553 22.4809 10.9508 22.3794C11.294 22.4403 11.6446 22.4722 12 22.4722C13.6529 22.4722 15.1493 21.8022 16.2324 20.719C17.3156 19.6358 17.9856 18.1394 17.9856 16.4865C17.9857 15.699 17.8314 14.9206 17.5294 14.1932ZM6.76434 16.4864C6.76434 15.0406 7.35038 13.7317 8.29781 12.7842C9.24525 11.8368 10.5542 11.2508 12 11.2508C12.2739 11.2508 12.5408 11.2712 12.7995 11.3106C12.7674 11.3776 12.7548 11.4548 12.768 11.5336C12.802 11.7375 12.9948 11.8752 13.1986 11.8412L14.211 11.6712C14.4905 11.625 14.6224 11.2894 14.4382 11.0653L13.7852 10.2732C13.6542 10.1138 13.4187 10.0908 13.2593 10.2219C13.1419 10.3185 13.0985 10.4718 13.1363 10.6096C12.761 10.5377 12.3823 10.5007 12 10.5007C10.3471 10.5007 8.85066 11.1707 7.76747 12.2539C6.68428 13.3371 6.0143 14.8335 6.0143 16.4864C6.0143 17.2738 6.16852 18.0522 6.47048 18.7795C6.54975 18.9705 6.76884 19.0609 6.95972 18.9817C7.15064 18.9024 7.24116 18.6833 7.16184 18.4924C6.89756 17.8557 6.76434 17.1757 6.76434 16.4864ZM21.6312 21.3056H18.471C18.1533 21.3056 17.8934 21.5655 17.8934 21.8832V22.4181C17.8934 22.7357 18.1533 22.9957 18.471 22.9957H21.6312C21.9488 22.9957 22.2088 22.7358 22.2088 22.4181V21.8832C22.2087 21.5655 21.9488 21.3056 21.6312 21.3056ZM18.9272 10.077V20.5556H21.1749V10.077H18.9272Z" fill="url(#paint0_linear_167_4687)"/>
<defs>
<linearGradient id="paint0_linear_167_4687" x1="0.75" y1="12" x2="23.25" y2="12" gradientUnits="userSpaceOnUse">
<stop stop-color="#E2335F"/>
<stop offset="1" stop-color="#792F6C"/>
</linearGradient>
</defs>
</svg>
