<svg width="24" height="25" viewBox="0 0 24 25" fill="none" xmlns="http://www.w3.org/2000/svg">
<g clip-path="url(#clip0_167_4952)">
<path d="M23.2969 0.896973H20.4375C20.0489 0.896973 19.7344 1.21146 19.7344 1.6001V2.30322H13.9799C13.6886 1.48657 12.9155 0.896973 12 0.896973C11.0845 0.896973 10.3114 1.48657 10.0201 2.30322H4.26562V1.6001C4.26562 1.21146 3.95114 0.896973 3.5625 0.896973H0.703125C0.314484 0.896973 0 1.21146 0 1.6001V4.4126C0 4.80124 0.314484 5.11572 0.703125 5.11572H3.5625C3.95114 5.11572 4.26562 4.80124 4.26562 4.4126V3.7001H7.15331C4.71314 5.22452 3.10416 7.90197 2.91183 10.9008C2.06817 11.1769 1.45312 11.9623 1.45312 12.897C1.45312 14.0601 2.39934 15.0063 3.5625 15.0063C4.72566 15.0063 5.67188 14.0601 5.67188 12.897C5.67188 11.9998 5.10652 11.237 4.31531 10.9326C4.55522 7.58922 6.88809 4.77129 10.1331 3.96729C10.4841 4.64589 11.1847 5.11572 12 5.11572C12.8153 5.11572 13.5159 4.64589 13.8669 3.96729C17.1119 4.77124 19.4448 7.58918 19.6847 10.9325C18.8935 11.237 18.3281 11.9998 18.3281 12.897C18.3281 14.0601 19.2743 15.0063 20.4375 15.0063C21.6007 15.0063 22.5469 14.0601 22.5469 12.897C22.5469 11.9623 21.9318 11.1769 21.0882 10.9008C20.8958 7.90197 19.2869 5.23389 16.8467 3.70947H19.7344V4.4126C19.7344 4.80124 20.0489 5.11572 20.4375 5.11572H23.2969C23.6855 5.11572 24 4.80124 24 4.4126V1.6001C24 1.21146 23.6855 0.896973 23.2969 0.896973Z" fill="black"/>
<path d="M23.2969 0.896973H20.4375C20.0489 0.896973 19.7344 1.21146 19.7344 1.6001V2.30322H13.9799C13.6886 1.48657 12.9155 0.896973 12 0.896973C11.0845 0.896973 10.3114 1.48657 10.0201 2.30322H4.26562V1.6001C4.26562 1.21146 3.95114 0.896973 3.5625 0.896973H0.703125C0.314484 0.896973 0 1.21146 0 1.6001V4.4126C0 4.80124 0.314484 5.11572 0.703125 5.11572H3.5625C3.95114 5.11572 4.26562 4.80124 4.26562 4.4126V3.7001H7.15331C4.71314 5.22452 3.10416 7.90197 2.91183 10.9008C2.06817 11.1769 1.45312 11.9623 1.45312 12.897C1.45312 14.0601 2.39934 15.0063 3.5625 15.0063C4.72566 15.0063 5.67188 14.0601 5.67188 12.897C5.67188 11.9998 5.10652 11.237 4.31531 10.9326C4.55522 7.58922 6.88809 4.77129 10.1331 3.96729C10.4841 4.64589 11.1847 5.11572 12 5.11572C12.8153 5.11572 13.5159 4.64589 13.8669 3.96729C17.1119 4.77124 19.4448 7.58918 19.6847 10.9325C18.8935 11.237 18.3281 11.9998 18.3281 12.897C18.3281 14.0601 19.2743 15.0063 20.4375 15.0063C21.6007 15.0063 22.5469 14.0601 22.5469 12.897C22.5469 11.9623 21.9318 11.1769 21.0882 10.9008C20.8958 7.90197 19.2869 5.23389 16.8467 3.70947H19.7344V4.4126C19.7344 4.80124 20.0489 5.11572 20.4375 5.11572H23.2969C23.6855 5.11572 24 4.80124 24 4.4126V1.6001C24 1.21146 23.6855 0.896973 23.2969 0.896973Z" fill="url(#paint0_linear_167_4952)"/>
<path d="M16.7835 24.0249C16.4157 22.8994 15.3561 22.0376 14.1093 22.0376H9.89052C8.64365 22.0376 7.58408 22.8994 7.2163 24.0249C7.07451 24.4588 7.44365 24.897 7.90021 24.897H16.0996C16.5561 24.897 16.9253 24.4588 16.7835 24.0249Z" fill="black"/>
<path d="M16.7835 24.0249C16.4157 22.8994 15.3561 22.0376 14.1093 22.0376H9.89052C8.64365 22.0376 7.58408 22.8994 7.2163 24.0249C7.07451 24.4588 7.44365 24.897 7.90021 24.897H16.0996C16.5561 24.897 16.9253 24.4588 16.7835 24.0249Z" fill="url(#paint1_linear_167_4952)"/>
<path d="M18.21 15.3199L12.7031 7.05957V13.7301C13.5198 14.0213 14.1094 14.7945 14.1094 15.7099C14.1094 16.8731 13.1632 17.8193 12 17.8193C10.8368 17.8193 9.89063 16.8731 9.89063 15.7099C9.89063 14.7945 10.4802 14.0213 11.2969 13.7301V7.05957L5.79001 15.3199C5.60391 15.5987 5.64099 15.9702 5.8779 16.2071C7.16869 17.4979 7.99379 19.1608 8.31221 20.9445C8.80065 20.7464 9.33188 20.6318 9.89063 20.6318H14.1094C14.6681 20.6318 15.1994 20.7463 15.6878 20.9444C16.0062 19.1606 16.8313 17.4979 18.1221 16.2071C18.359 15.9702 18.3961 15.5987 18.21 15.3199Z" fill="black"/>
<path d="M18.21 15.3199L12.7031 7.05957V13.7301C13.5198 14.0213 14.1094 14.7945 14.1094 15.7099C14.1094 16.8731 13.1632 17.8193 12 17.8193C10.8368 17.8193 9.89063 16.8731 9.89063 15.7099C9.89063 14.7945 10.4802 14.0213 11.2969 13.7301V7.05957L5.79001 15.3199C5.60391 15.5987 5.64099 15.9702 5.8779 16.2071C7.16869 17.4979 7.99379 19.1608 8.31221 20.9445C8.80065 20.7464 9.33188 20.6318 9.89063 20.6318H14.1094C14.6681 20.6318 15.1994 20.7463 15.6878 20.9444C16.0062 19.1606 16.8313 17.4979 18.1221 16.2071C18.359 15.9702 18.3961 15.5987 18.21 15.3199Z" fill="url(#paint2_linear_167_4952)"/>
<path d="M12 15.0063C11.6121 15.0063 11.2969 15.3215 11.2969 15.7095C11.2969 16.0974 11.6121 16.4126 12 16.4126C12.3879 16.4126 12.7031 16.0974 12.7031 15.7095C12.7031 15.3215 12.3879 15.0063 12 15.0063Z" fill="black"/>
<path d="M12 15.0063C11.6121 15.0063 11.2969 15.3215 11.2969 15.7095C11.2969 16.0974 11.6121 16.4126 12 16.4126C12.3879 16.4126 12.7031 16.0974 12.7031 15.7095C12.7031 15.3215 12.3879 15.0063 12 15.0063Z" fill="url(#paint3_linear_167_4952)"/>
</g>
<defs>
<linearGradient id="paint0_linear_167_4952" x1="8.29851" y1="-10.8188" x2="-12.995" y2="19.9263" gradientUnits="userSpaceOnUse">
<stop stop-color="#E2335F"/>
<stop offset="1" stop-color="#792F6C"/>
</linearGradient>
<linearGradient id="paint1_linear_167_4952" x1="10.5149" y1="19.6633" x2="7.6412" y2="27.8774" gradientUnits="userSpaceOnUse">
<stop stop-color="#E2335F"/>
<stop offset="1" stop-color="#792F6C"/>
</linearGradient>
<linearGradient id="paint2_linear_167_4952" x1="10.048" y1="-4.46989" x2="-11.6195" y2="12.2949" gradientUnits="userSpaceOnUse">
<stop stop-color="#E2335F"/>
<stop offset="1" stop-color="#792F6C"/>
</linearGradient>
<linearGradient id="paint3_linear_167_4952" x1="11.7831" y1="13.8387" x2="9.54615" y2="15.7375" gradientUnits="userSpaceOnUse">
<stop stop-color="#E2335F"/>
<stop offset="1" stop-color="#792F6C"/>
</linearGradient>
<clipPath id="clip0_167_4952">
<rect width="24" height="24" fill="white" transform="translate(0 0.896973)"/>
</clipPath>
</defs>
</svg>
