<svg width="24" height="24" viewBox="0 0 24 24" fill="none" xmlns="http://www.w3.org/2000/svg">
<g clip-path="url(#clip0_167_4670)">
<path d="M10.4194 17.4934L10.0819 16.584C9.70694 15.5715 9.196 14.7746 8.43194 14.0106L5.84913 11.4277C5.52569 11.109 5.00069 11.109 4.68194 11.4277C4.36319 11.7465 4.36319 12.2762 4.68194 12.5949L7.38194 15.2949C7.59288 15.5059 7.59288 15.8527 7.38194 16.0637C7.171 16.2746 6.82413 16.2746 6.61319 16.0637L3.09757 12.5481C2.84444 12.2949 2.68507 12.0137 2.60069 11.6621L1.61632 7.59337C1.51319 7.16212 1.06319 6.86212 0.617879 6.98868C0.177254 7.11056 -0.0477457 7.53243 0.0085043 7.98243L0.617879 12.7824C0.655379 13.0731 0.744442 13.3168 0.903817 13.5652L3.66944 17.8402C4.0585 18.4402 4.46163 18.8996 5.01007 19.359L7.41475 21.3793C7.42413 21.3887 7.43351 21.4027 7.43351 21.4168L7.31632 23.4184C7.31163 23.4465 7.33975 23.4746 7.36788 23.4746L11.0616 23.484C11.0944 23.484 11.1179 23.4559 11.1132 23.4277L10.7944 19.2277C10.7476 18.6043 10.6351 18.0793 10.4194 17.4934Z" fill="url(#paint0_linear_167_4670)"/>
<path d="M23.3853 6.9844C22.94 6.85315 22.49 7.15784 22.3868 7.58909L21.4025 11.6578C21.3181 12.0094 21.1587 12.2907 20.9056 12.5438L17.39 16.0594C17.179 16.2703 16.8322 16.2703 16.6212 16.0594C16.4103 15.8485 16.4103 15.5016 16.6212 15.2907L19.3212 12.5907C19.64 12.2719 19.64 11.7422 19.3212 11.4235C19.0025 11.1047 18.4728 11.1047 18.154 11.4235L15.5712 14.0063C14.8072 14.7703 14.2962 15.5672 13.9212 16.5797L13.5837 17.4891C13.3681 18.075 13.2509 18.6 13.204 19.2235L12.8853 23.4235C12.8806 23.4516 12.9087 23.4797 12.9368 23.4797L16.6353 23.475C16.6634 23.475 16.6915 23.4469 16.6868 23.4188L16.5697 21.4172C16.5697 21.4032 16.5743 21.3891 16.5837 21.3797L18.9884 19.3594C19.5322 18.9 19.94 18.4407 20.329 17.8407L23.0947 13.5657C23.254 13.3172 23.3431 13.0735 23.3806 12.7828L23.99 7.98284C24.0462 7.53284 23.8212 7.11096 23.3853 6.9844Z" fill="url(#paint1_linear_167_4670)"/>
<path d="M18.5751 1.90298C17.6798 1.00767 16.5641 0.524857 15.3501 0.520169C14.2063 0.510794 13.0532 0.942044 12.111 1.72954C12.0454 1.78111 11.961 1.78111 11.9001 1.72954C10.9532 0.942044 9.80477 0.510794 8.66102 0.520169C7.45164 0.529544 6.33602 1.00767 5.43602 1.90298C4.48445 2.84517 3.99695 4.07798 4.0532 5.36236C4.10945 6.59986 4.66258 7.79986 5.60477 8.74673L11.3376 14.4795C11.5204 14.6624 11.7595 14.7561 12.0032 14.7561C12.2423 14.7561 12.486 14.6624 12.6688 14.4795L18.5751 8.57329C20.4126 6.73111 20.4126 3.74048 18.5751 1.90298ZM11.9985 9.87642C10.2313 9.87642 8.80164 8.44673 8.80164 6.67954C8.80164 4.91236 10.2313 3.48267 11.9985 3.48267C13.7657 3.48267 15.1954 4.91236 15.1954 6.67954C15.1954 8.44673 13.7657 9.87642 11.9985 9.87642ZM16.9438 2.63423C16.8782 2.77017 16.7376 2.84986 16.597 2.84986C16.5407 2.84986 16.4845 2.83579 16.4282 2.81236C16.3298 2.76548 16.2266 2.72329 16.1282 2.68579C15.9266 2.61548 15.8188 2.39517 15.8891 2.19361C15.9595 1.99204 16.1798 1.88423 16.3813 1.95454C16.5079 2.00142 16.6391 2.05298 16.7657 2.11392C16.9579 2.21236 17.0376 2.44204 16.9438 2.63423ZM17.4079 7.79048C17.3095 7.79048 17.211 7.75298 17.136 7.67798C16.986 7.52798 16.986 7.28423 17.136 7.12954C18.261 6.00454 18.0548 4.34986 17.2063 3.40298C17.0657 3.24361 17.0751 2.99986 17.2345 2.85454C17.3938 2.71392 17.6376 2.72329 17.7829 2.88267C18.3595 3.52486 18.6829 4.36392 18.6829 5.24048C18.6876 6.15923 18.3313 7.02642 17.6798 7.67329C17.6048 7.75298 17.5063 7.79048 17.4079 7.79048Z" fill="url(#paint2_linear_167_4670)"/>
<path d="M13.5609 6.02793H12.6844C12.6656 6.02793 12.6562 6.01387 12.6562 5.9998V5.12324C12.6562 4.98262 12.5438 4.87012 12.4031 4.87012H11.6063C11.4656 4.87012 11.3531 4.98262 11.3531 5.12324V5.9998C11.3531 6.01855 11.3391 6.02793 11.325 6.02793H10.4484C10.3078 6.02793 10.1953 6.14043 10.1953 6.28105V7.07793C10.1953 7.21855 10.3078 7.33105 10.4484 7.33105H11.325C11.3438 7.33105 11.3531 7.34512 11.3531 7.35918V8.23574C11.3531 8.37637 11.4656 8.48887 11.6063 8.48887H12.4031C12.5438 8.48887 12.6562 8.37637 12.6562 8.23574V7.35918C12.6562 7.34043 12.6703 7.33105 12.6844 7.33105H13.5609C13.7016 7.33105 13.8141 7.21855 13.8141 7.07793V6.28105C13.8141 6.14512 13.6969 6.02793 13.5609 6.02793Z" fill="url(#paint3_linear_167_4670)"/>
</g>
<defs>
<linearGradient id="paint0_linear_167_4670" x1="0" y1="15.2217" x2="11.1138" y2="15.2217" gradientUnits="userSpaceOnUse">
<stop stop-color="#E2335F"/>
<stop offset="1" stop-color="#792F6C"/>
</linearGradient>
<linearGradient id="paint1_linear_167_4670" x1="12.8848" y1="15.2167" x2="23.9985" y2="15.2167" gradientUnits="userSpaceOnUse">
<stop stop-color="#E2335F"/>
<stop offset="1" stop-color="#792F6C"/>
</linearGradient>
<linearGradient id="paint2_linear_167_4670" x1="4.04883" y1="7.63806" x2="19.9532" y2="7.63806" gradientUnits="userSpaceOnUse">
<stop stop-color="#E2335F"/>
<stop offset="1" stop-color="#792F6C"/>
</linearGradient>
<linearGradient id="paint3_linear_167_4670" x1="10.1953" y1="6.67949" x2="13.8141" y2="6.67949" gradientUnits="userSpaceOnUse">
<stop stop-color="#E2335F"/>
<stop offset="1" stop-color="#792F6C"/>
</linearGradient>
<clipPath id="clip0_167_4670">
<rect width="24" height="24" fill="white"/>
</clipPath>
</defs>
</svg>
