<svg width="24" height="24" viewBox="0 0 24 24" fill="none" xmlns="http://www.w3.org/2000/svg">
<g clip-path="url(#clip0_167_4815)">
<path d="M2.44141 23.5934C2.44141 23.818 2.62353 24.0002 2.84819 24.0002H4.4753C4.69996 24.0002 4.88208 23.818 4.88208 23.5934V22.373H2.44141V23.5934Z" fill="url(#paint0_linear_167_4815)"/>
<path d="M19.5254 23.5934C19.5254 23.818 19.7075 24.0002 19.9322 24.0002H21.5593C21.7839 24.0002 21.9661 23.818 21.9661 23.5934V22.373H19.5254V23.5934Z" fill="url(#paint1_linear_167_4815)"/>
<path d="M22.3724 15.8647H6.50794V15.4579C6.50794 15.0086 6.1437 14.6443 5.69439 14.6443H5.28761V12.2037C5.28761 11.979 5.10548 11.7969 4.88083 11.7969C4.65617 11.7969 4.47405 11.979 4.47405 12.2037V14.6443H4.06727C3.61795 14.6443 3.25371 15.0086 3.25371 15.4579V15.8647H2.03337C1.13474 15.8647 0.40625 16.5932 0.40625 17.4918V19.9325C0.40625 20.8311 1.13474 21.5596 2.03337 21.5596H22.3724C23.271 21.5596 23.9995 20.8311 23.9995 19.9325V17.4918C23.9995 16.5932 23.271 15.8647 22.3724 15.8647ZM2.84693 19.1189H2.44015C2.21549 19.1189 2.03337 18.9368 2.03337 18.7121C2.03337 18.4875 2.21549 18.3053 2.44015 18.3053H2.84693C3.07159 18.3053 3.25371 18.4875 3.25371 18.7121C3.25371 18.9368 3.07159 19.1189 2.84693 19.1189ZM4.88083 19.1189H4.47405C4.24939 19.1189 4.06727 18.9368 4.06727 18.7121C4.06727 18.4875 4.24939 18.3053 4.47405 18.3053H4.88083C5.10548 18.3053 5.28761 18.4875 5.28761 18.7121C5.28761 18.9368 5.10548 19.1189 4.88083 19.1189ZM6.91472 19.1189H6.50794C6.28329 19.1189 6.10116 18.9368 6.10116 18.7121C6.10116 18.4875 6.28329 18.3053 6.50794 18.3053H6.91472C7.13938 18.3053 7.3215 18.4875 7.3215 18.7121C7.3215 18.9368 7.13938 19.1189 6.91472 19.1189ZM8.94862 19.1189H8.54184C8.31718 19.1189 8.13506 18.9368 8.13506 18.7121C8.13506 18.4875 8.31718 18.3053 8.54184 18.3053H8.94862C9.17328 18.3053 9.3554 18.4875 9.3554 18.7121C9.3554 18.9368 9.17328 19.1189 8.94862 19.1189ZM12.7276 19.8104C12.5983 19.6801 12.5724 19.4792 12.6643 19.3203C12.7562 19.1614 12.9433 19.0837 13.1207 19.1308C13.2982 19.1779 13.4221 19.338 13.4232 19.5216C13.4214 19.6855 13.3221 19.8326 13.1707 19.8955C13.0193 19.9583 12.845 19.9249 12.7276 19.8104ZM14.3547 19.8104C14.2254 19.6801 14.1995 19.4792 14.2914 19.3203C14.3834 19.1614 14.5704 19.0837 14.7478 19.1308C14.9253 19.1779 15.0492 19.338 15.0503 19.5216C15.0485 19.6855 14.9492 19.8326 14.7978 19.8955C14.6464 19.9583 14.4721 19.9249 14.3547 19.8104ZM15.9818 19.8104C15.8525 19.6801 15.8266 19.4792 15.9185 19.3203C16.0105 19.1614 16.1975 19.0837 16.375 19.1308C16.5524 19.1779 16.6764 19.338 16.6774 19.5216C16.6757 19.6855 16.5763 19.8326 16.4249 19.8955C16.2735 19.9583 16.0992 19.9249 15.9818 19.8104ZM17.609 19.8104C17.4797 19.6801 17.4537 19.4792 17.5457 19.3203C17.6376 19.1614 17.8246 19.0837 18.0021 19.1308C18.1796 19.1779 18.3035 19.338 18.3046 19.5216C18.3028 19.6855 18.2034 19.8326 18.052 19.8955C17.9006 19.9583 17.7263 19.9249 17.609 19.8104ZM19.2361 19.8104C19.1068 19.6801 19.0808 19.4792 19.1728 19.3203C19.2647 19.1614 19.4517 19.0837 19.6292 19.1308C19.8067 19.1779 19.9306 19.338 19.9317 19.5216C19.9299 19.6855 19.8305 19.8326 19.6791 19.8955C19.5277 19.9583 19.3534 19.9249 19.2361 19.8104ZM20.8632 19.8104C20.7339 19.6801 20.708 19.4792 20.7999 19.3203C20.8918 19.1614 21.0788 19.0837 21.2563 19.1308C21.4338 19.1779 21.5577 19.338 21.5588 19.5216C21.557 19.6855 21.4577 19.8326 21.3063 19.8955C21.1549 19.9583 20.9806 19.9249 20.8632 19.8104ZM21.9656 18.3053H12.2029C11.9782 18.3053 11.7961 18.1232 11.7961 17.8986C11.7961 17.6739 11.9782 17.4918 12.2029 17.4918H21.9656C22.1902 17.4918 22.3724 17.6739 22.3724 17.8986C22.3724 18.1232 22.1902 18.3053 21.9656 18.3053Z" fill="url(#paint2_linear_167_4815)"/>
<path d="M0.813559 11.3901C0.813559 9.14356 2.63477 7.32235 4.88136 7.32235C7.12794 7.32235 8.94915 9.14356 8.94915 11.3901C8.94915 11.6148 9.13127 11.7969 9.35593 11.7969C9.58059 11.7969 9.76271 11.6148 9.76271 11.3901C9.76271 8.69425 7.57725 6.50879 4.88136 6.50879C2.18546 6.50879 0 8.69425 0 11.3901C0 11.6148 0.182121 11.7969 0.40678 11.7969C0.631438 11.7969 0.813559 11.6148 0.813559 11.3901Z" fill="url(#paint3_linear_167_4815)"/>
<path d="M7.32187 11.39C7.32187 11.6146 7.50399 11.7968 7.72865 11.7968C7.95331 11.7968 8.13543 11.6146 8.13543 11.39C8.13543 9.59271 6.67846 8.13574 4.88119 8.13574C3.08392 8.13574 1.62695 9.59271 1.62695 11.39C1.62695 11.6146 1.80907 11.7968 2.03373 11.7968C2.25839 11.7968 2.44051 11.6146 2.44051 11.39C2.44051 10.042 3.53324 8.9493 4.88119 8.9493C6.22914 8.9493 7.32187 10.042 7.32187 11.39Z" fill="url(#paint4_linear_167_4815)"/>
<path d="M3.6602 11.7966C3.88486 11.7966 4.06698 11.6145 4.06698 11.3898C4.06698 10.9405 4.43123 10.5763 4.88054 10.5763C5.32986 10.5763 5.6941 10.9405 5.6941 11.3898C5.6941 11.6145 5.87622 11.7966 6.10088 11.7966C6.95512 11.7966 6.43119 9.7627 4.88054 9.7627C3.3299 9.7627 2.80597 11.7966 3.6602 11.7966Z" fill="url(#paint5_linear_167_4815)"/>
<path d="M18.7109 8.9493H19.4879C19.5367 8.68031 19.5367 8.40473 19.4879 8.13574H18.7109V8.9493Z" fill="url(#paint6_linear_167_4815)"/>
<path d="M23.1858 0.665618C23.141 0.259334 22.7794 -0.0364427 22.3723 0.000126135H11.796C11.3889 -0.0364427 11.0273 0.259334 10.9824 0.665618V2.03402H23.1858V0.665618ZM13.0163 1.62724H12.6095C12.3849 1.62724 12.2028 1.44512 12.2028 1.22047C12.2028 0.995807 12.3849 0.813686 12.6095 0.813686H13.0163C13.241 0.813686 13.4231 0.995807 13.4231 1.22047C13.4231 1.44512 13.241 1.62724 13.0163 1.62724ZM15.0502 1.62724H14.6434C14.4188 1.62724 14.2367 1.44512 14.2367 1.22047C14.2367 0.995807 14.4188 0.813686 14.6434 0.813686H15.0502C15.2749 0.813686 15.457 0.995807 15.457 1.22047C15.457 1.44512 15.2749 1.62724 15.0502 1.62724ZM21.2699 1.50928C21.1406 1.37891 21.1146 1.17809 21.2066 1.01916C21.2985 0.860219 21.4855 0.782572 21.663 0.82965C21.8405 0.876727 21.9644 1.03686 21.9655 1.22047C21.9664 1.38573 21.8673 1.53514 21.7147 1.59851C21.5621 1.66189 21.3863 1.62662 21.2699 1.50928Z" fill="url(#paint7_linear_167_4815)"/>
<path d="M10.9824 13.9788C11.0273 14.3851 11.3889 14.6808 11.796 14.6443H22.3723C22.7794 14.6808 23.141 14.3851 23.1858 13.9788V2.84766H10.9824V13.9788ZM17.0841 3.66122C19.78 3.66122 21.9655 5.84667 21.9655 8.54257C21.9655 11.2385 19.78 13.4239 17.0841 13.4239C14.3882 13.4239 12.2028 11.2385 12.2028 8.54257C12.2057 5.84788 14.3894 3.66413 17.0841 3.66122Z" fill="url(#paint8_linear_167_4815)"/>
<path d="M17.0849 10.9832C17.9556 10.982 18.7598 10.517 19.1952 9.76289H18.712C18.2627 9.76289 17.8984 9.39865 17.8984 8.94933V8.13577C17.8984 7.68646 18.2627 7.32221 18.712 7.32221H19.1952C18.6028 6.29609 17.359 5.8437 16.2457 6.24945C15.1325 6.6552 14.4715 7.80188 14.6783 8.96855C14.8851 10.1352 15.9 10.9848 17.0849 10.9832Z" fill="url(#paint9_linear_167_4815)"/>
<path d="M17.0854 12.6102C19.332 12.6102 21.1532 10.789 21.1532 8.54241C21.1532 6.29582 19.332 4.47461 17.0854 4.47461C14.8388 4.47461 13.0176 6.29582 13.0176 8.54241C13.02 10.788 14.8398 12.6077 17.0854 12.6102ZM17.0854 5.28817C18.8826 5.28817 20.3396 6.74514 20.3396 8.54241C20.3396 10.3397 18.8826 11.7966 17.0854 11.7966C15.2881 11.7966 13.8311 10.3397 13.8311 8.54241C13.8332 6.74598 15.2889 5.29019 17.0854 5.28817Z" fill="url(#paint10_linear_167_4815)"/>
</g>
<defs>
<linearGradient id="paint0_linear_167_4815" x1="2.44141" y1="23.1866" x2="4.88208" y2="23.1866" gradientUnits="userSpaceOnUse">
<stop stop-color="#E2335F"/>
<stop offset="1" stop-color="#792F6C"/>
</linearGradient>
<linearGradient id="paint1_linear_167_4815" x1="19.5254" y1="23.1866" x2="21.9661" y2="23.1866" gradientUnits="userSpaceOnUse">
<stop stop-color="#E2335F"/>
<stop offset="1" stop-color="#792F6C"/>
</linearGradient>
<linearGradient id="paint2_linear_167_4815" x1="0.40625" y1="16.6782" x2="23.9995" y2="16.6782" gradientUnits="userSpaceOnUse">
<stop stop-color="#E2335F"/>
<stop offset="1" stop-color="#792F6C"/>
</linearGradient>
<linearGradient id="paint3_linear_167_4815" x1="0" y1="9.15286" x2="9.76271" y2="9.15286" gradientUnits="userSpaceOnUse">
<stop stop-color="#E2335F"/>
<stop offset="1" stop-color="#792F6C"/>
</linearGradient>
<linearGradient id="paint4_linear_167_4815" x1="1.62695" y1="9.96625" x2="8.13543" y2="9.96625" gradientUnits="userSpaceOnUse">
<stop stop-color="#E2335F"/>
<stop offset="1" stop-color="#792F6C"/>
</linearGradient>
<linearGradient id="paint5_linear_167_4815" x1="3.25195" y1="10.7796" x2="6.50913" y2="10.7796" gradientUnits="userSpaceOnUse">
<stop stop-color="#E2335F"/>
<stop offset="1" stop-color="#792F6C"/>
</linearGradient>
<linearGradient id="paint6_linear_167_4815" x1="18.7109" y1="8.54252" x2="19.5245" y2="8.54252" gradientUnits="userSpaceOnUse">
<stop stop-color="#E2335F"/>
<stop offset="1" stop-color="#792F6C"/>
</linearGradient>
<linearGradient id="paint7_linear_167_4815" x1="10.9824" y1="1.01555" x2="23.1858" y2="1.01555" gradientUnits="userSpaceOnUse">
<stop stop-color="#E2335F"/>
<stop offset="1" stop-color="#792F6C"/>
</linearGradient>
<linearGradient id="paint8_linear_167_4815" x1="10.9824" y1="8.74749" x2="23.1858" y2="8.74749" gradientUnits="userSpaceOnUse">
<stop stop-color="#E2335F"/>
<stop offset="1" stop-color="#792F6C"/>
</linearGradient>
<linearGradient id="paint9_linear_167_4815" x1="14.6406" y1="8.5424" x2="19.1952" y2="8.5424" gradientUnits="userSpaceOnUse">
<stop stop-color="#E2335F"/>
<stop offset="1" stop-color="#792F6C"/>
</linearGradient>
<linearGradient id="paint10_linear_167_4815" x1="13.0176" y1="8.54241" x2="21.1532" y2="8.54241" gradientUnits="userSpaceOnUse">
<stop stop-color="#E2335F"/>
<stop offset="1" stop-color="#792F6C"/>
</linearGradient>
<clipPath id="clip0_167_4815">
<rect width="24" height="24" fill="white"/>
</clipPath>
</defs>
</svg>
