<svg width="24" height="25" viewBox="0 0 24 25" fill="none" xmlns="http://www.w3.org/2000/svg">
<path d="M16.2279 11.5594C16.1934 11.5594 16.1592 11.5601 16.1251 11.5614C15.7089 10.6678 14.8213 10.0978 13.8266 10.0978C13.4203 10.0978 13.0226 10.1948 12.6645 10.38C12.2443 9.51603 11.3527 8.94922 10.3818 8.94922C8.98349 8.94922 7.84593 10.087 7.84593 11.4855C7.84593 11.5104 7.84631 11.5354 7.84706 11.5605C7.82193 11.5596 7.79681 11.5592 7.77225 11.5592C6.37388 11.5592 5.23633 12.6968 5.23633 14.0951C5.23633 15.4556 6.33676 16.5952 7.69406 16.6367C7.7025 16.638 7.71112 16.646 7.72012 16.646H16.2798C16.2886 16.646 16.2974 16.638 16.3059 16.6368C17.6632 16.5954 18.7638 15.4595 18.7638 14.0989C18.7638 12.7007 17.6262 11.5594 16.2279 11.5594Z" fill="black"/>
<path d="M16.2279 11.5594C16.1934 11.5594 16.1592 11.5601 16.1251 11.5614C15.7089 10.6678 14.8213 10.0978 13.8266 10.0978C13.4203 10.0978 13.0226 10.1948 12.6645 10.38C12.2443 9.51603 11.3527 8.94922 10.3818 8.94922C8.98349 8.94922 7.84593 10.087 7.84593 11.4855C7.84593 11.5104 7.84631 11.5354 7.84706 11.5605C7.82193 11.5596 7.79681 11.5592 7.77225 11.5592C6.37388 11.5592 5.23633 12.6968 5.23633 14.0951C5.23633 15.4556 6.33676 16.5952 7.69406 16.6367C7.7025 16.638 7.71112 16.646 7.72012 16.646H16.2798C16.2886 16.646 16.2974 16.638 16.3059 16.6368C17.6632 16.5954 18.7638 15.4595 18.7638 14.0989C18.7638 12.7007 17.6262 11.5594 16.2279 11.5594Z" fill="url(#paint0_linear_167_4920)"/>
<path d="M22.2965 10.0845H16.4473C16.5684 10.272 16.6822 10.3383 16.7853 10.4792C17.9135 10.652 18.8712 11.3424 19.4135 12.2988C19.5436 12.194 19.7067 12.1284 19.8864 12.1284C20.3052 12.1284 20.6463 12.4691 20.6463 12.888C20.6463 13.3068 20.3054 13.6477 19.8864 13.6477C19.8766 13.6477 19.8678 13.6451 19.8584 13.6447C19.8768 13.793 19.8896 13.9505 19.8896 14.1035C19.8896 14.6742 19.7512 15.1467 19.511 15.7092H22.2965C23.227 15.7092 23.9997 14.9373 23.9997 14.0068V11.7686C23.9997 10.8382 23.227 10.0845 22.2965 10.0845ZM21.7636 13.6477C21.3447 13.6477 21.0039 13.3068 21.0039 12.8878C21.0039 12.4687 21.3445 12.128 21.7636 12.128C22.1827 12.128 22.5235 12.4687 22.5235 12.8878C22.5235 13.3068 22.1827 13.6477 21.7636 13.6477Z" fill="black"/>
<path d="M22.2965 10.0845H16.4473C16.5684 10.272 16.6822 10.3383 16.7853 10.4792C17.9135 10.652 18.8712 11.3424 19.4135 12.2988C19.5436 12.194 19.7067 12.1284 19.8864 12.1284C20.3052 12.1284 20.6463 12.4691 20.6463 12.888C20.6463 13.3068 20.3054 13.6477 19.8864 13.6477C19.8766 13.6477 19.8678 13.6451 19.8584 13.6447C19.8768 13.793 19.8896 13.9505 19.8896 14.1035C19.8896 14.6742 19.7512 15.1467 19.511 15.7092H22.2965C23.227 15.7092 23.9997 14.9373 23.9997 14.0068V11.7686C23.9997 10.8382 23.227 10.0845 22.2965 10.0845ZM21.7636 13.6477C21.3447 13.6477 21.0039 13.3068 21.0039 12.8878C21.0039 12.4687 21.3445 12.128 21.7636 12.128C22.1827 12.128 22.5235 12.4687 22.5235 12.8878C22.5235 13.3068 22.1827 13.6477 21.7636 13.6477Z" fill="url(#paint1_linear_167_4920)"/>
<path d="M1.70474 10.0845C0.774181 10.0845 0 10.8382 0 11.7686V14.0069C0 14.9375 0.774181 15.7094 1.70474 15.7094H4.49021C4.25003 15.1469 4.11184 14.6742 4.11184 14.1037C4.11184 12.4068 5.27246 10.9738 6.84163 10.5607C6.88438 10.3976 6.94082 10.272 7.00476 10.0845H1.70474ZM2.6246 14.0011C2.01073 14.0011 1.51124 13.5018 1.51124 12.8878C1.51124 12.2741 2.01055 11.7744 2.6246 11.7744C3.23866 11.7744 3.73797 12.2739 3.73797 12.8878C3.73797 13.5018 3.23847 14.0011 2.6246 14.0011Z" fill="black"/>
<path d="M1.70474 10.0845C0.774181 10.0845 0 10.8382 0 11.7686V14.0069C0 14.9375 0.774181 15.7094 1.70474 15.7094H4.49021C4.25003 15.1469 4.11184 14.6742 4.11184 14.1037C4.11184 12.4068 5.27246 10.9738 6.84163 10.5607C6.88438 10.3976 6.94082 10.272 7.00476 10.0845H1.70474ZM2.6246 14.0011C2.01073 14.0011 1.51124 13.5018 1.51124 12.8878C1.51124 12.2741 2.01055 11.7744 2.6246 11.7744C3.23866 11.7744 3.73797 12.2739 3.73797 12.8878C3.73797 13.5018 3.23847 14.0011 2.6246 14.0011Z" fill="url(#paint2_linear_167_4920)"/>
<path d="M10.3853 8.94922C10.3824 8.94922 10.3798 8.94966 10.377 8.94966H10.3971C10.3931 8.94966 10.3892 8.94922 10.3853 8.94922Z" fill="black"/>
<path d="M10.3853 8.94922C10.3824 8.94922 10.3798 8.94966 10.377 8.94966H10.3971C10.3931 8.94966 10.3892 8.94922 10.3853 8.94922Z" fill="url(#paint3_linear_167_4920)"/>
<path d="M22.2966 3.33447H1.70474C0.774181 3.33447 0 4.09422 0 5.02477V7.26313C0 8.1935 0.774181 8.95943 1.70474 8.95943H7.74744C8.414 8.20943 9.34811 7.83406 10.3827 7.83406C11.3853 7.83406 12.3361 8.20943 13.0178 8.95943H22.2968C23.2273 8.95943 24 8.1935 24 7.26294V5.02477C23.9998 4.09422 23.2271 3.33447 22.2966 3.33447ZM2.6246 7.25713C2.01073 7.25713 1.51124 6.75782 1.51124 6.14376C1.51124 5.52971 2.01055 5.0304 2.6246 5.0304C3.23866 5.0304 3.73797 5.52971 3.73797 6.14376C3.73797 6.75782 3.23847 7.25713 2.6246 7.25713ZM16.6874 6.33445C16.6874 6.85232 16.2677 7.27194 15.7499 7.27194H5.62496C5.10708 7.27194 4.68746 6.85232 4.68746 6.33445V5.95945C4.68746 5.44158 5.10708 5.02196 5.62496 5.02196H15.7499C16.2677 5.02196 16.6874 5.44158 16.6874 5.95945V6.33445ZM18.0113 6.90351C17.5924 6.90351 17.2516 6.56282 17.2516 6.14376C17.2516 5.7247 17.5922 5.38383 18.0113 5.38383C18.4304 5.38383 18.771 5.7247 18.771 6.14376C18.771 6.56282 18.4302 6.90351 18.0113 6.90351ZM19.8865 6.90351C19.4676 6.90351 19.1267 6.56282 19.1267 6.14376C19.1267 5.7247 19.4674 5.38383 19.8865 5.38383C20.3055 5.38383 20.6464 5.7247 20.6464 6.14376C20.6464 6.56282 20.3053 6.90351 19.8865 6.90351ZM21.7637 6.90351C21.3448 6.90351 21.004 6.56282 21.004 6.14376C21.004 5.7247 21.3446 5.38383 21.7637 5.38383C22.1828 5.38383 22.5236 5.7247 22.5236 6.14376C22.5236 6.56282 22.1828 6.90351 21.7637 6.90351Z" fill="black"/>
<path d="M22.2966 3.33447H1.70474C0.774181 3.33447 0 4.09422 0 5.02477V7.26313C0 8.1935 0.774181 8.95943 1.70474 8.95943H7.74744C8.414 8.20943 9.34811 7.83406 10.3827 7.83406C11.3853 7.83406 12.3361 8.20943 13.0178 8.95943H22.2968C23.2273 8.95943 24 8.1935 24 7.26294V5.02477C23.9998 4.09422 23.2271 3.33447 22.2966 3.33447ZM2.6246 7.25713C2.01073 7.25713 1.51124 6.75782 1.51124 6.14376C1.51124 5.52971 2.01055 5.0304 2.6246 5.0304C3.23866 5.0304 3.73797 5.52971 3.73797 6.14376C3.73797 6.75782 3.23847 7.25713 2.6246 7.25713ZM16.6874 6.33445C16.6874 6.85232 16.2677 7.27194 15.7499 7.27194H5.62496C5.10708 7.27194 4.68746 6.85232 4.68746 6.33445V5.95945C4.68746 5.44158 5.10708 5.02196 5.62496 5.02196H15.7499C16.2677 5.02196 16.6874 5.44158 16.6874 5.95945V6.33445ZM18.0113 6.90351C17.5924 6.90351 17.2516 6.56282 17.2516 6.14376C17.2516 5.7247 17.5922 5.38383 18.0113 5.38383C18.4304 5.38383 18.771 5.7247 18.771 6.14376C18.771 6.56282 18.4302 6.90351 18.0113 6.90351ZM19.8865 6.90351C19.4676 6.90351 19.1267 6.56282 19.1267 6.14376C19.1267 5.7247 19.4674 5.38383 19.8865 5.38383C20.3055 5.38383 20.6464 5.7247 20.6464 6.14376C20.6464 6.56282 20.3053 6.90351 19.8865 6.90351ZM21.7637 6.90351C21.3448 6.90351 21.004 6.56282 21.004 6.14376C21.004 5.7247 21.3446 5.38383 21.7637 5.38383C22.1828 5.38383 22.5236 5.7247 22.5236 6.14376C22.5236 6.56282 22.1828 6.90351 21.7637 6.90351Z" fill="url(#paint4_linear_167_4920)"/>
<path d="M22.2966 16.8345H18.6559C18.0426 17.397 17.2486 17.7326 16.3789 17.7682C16.3461 17.7708 16.3133 17.772 16.2805 17.772H7.72081C7.68819 17.772 7.65538 17.7708 7.62275 17.7682C6.75295 17.7328 5.95852 17.397 5.3454 16.8345H1.70474C0.774181 16.8345 0 17.5766 0 18.5071V20.7455C0 21.6759 0.774181 22.4594 1.70474 22.4594H22.2966C23.2271 22.4594 23.9998 21.6759 23.9998 20.7453V18.5071C23.9998 17.5766 23.2271 16.8345 22.2966 16.8345ZM2.6246 20.7395C2.01073 20.7395 1.51124 20.2402 1.51124 19.6261C1.51124 19.0121 2.01055 18.5128 2.6246 18.5128C3.23866 18.5128 3.73797 19.0121 3.73797 19.6261C3.73797 20.2402 3.23847 20.7395 2.6246 20.7395ZM16.6874 19.8344C16.6874 20.3523 16.2677 20.7719 15.7499 20.7719H5.62496C5.10708 20.7719 4.68746 20.3523 4.68746 19.8344V19.4595C4.68746 18.9416 5.10708 18.522 5.62496 18.522H15.7499C16.2677 18.522 16.6874 18.9416 16.6874 19.4595V19.8344ZM18.0113 20.3859C17.5924 20.3859 17.2516 20.0452 17.2516 19.6261C17.2516 19.2071 17.5922 18.8664 18.0113 18.8664C18.4304 18.8664 18.771 19.2071 18.771 19.6261C18.771 20.0452 18.4302 20.3859 18.0113 20.3859ZM19.8865 20.3859C19.4676 20.3859 19.1267 20.0452 19.1267 19.6261C19.1267 19.2071 19.4674 18.8664 19.8865 18.8664C20.3055 18.8664 20.6464 19.2071 20.6464 19.6261C20.6464 20.0452 20.3053 20.3859 19.8865 20.3859ZM21.7637 20.3859C21.3448 20.3859 21.004 20.0452 21.004 19.6261C21.004 19.2071 21.3446 18.8664 21.7637 18.8664C22.1828 18.8664 22.5236 19.2071 22.5236 19.6261C22.5236 20.0452 22.1828 20.3859 21.7637 20.3859Z" fill="black"/>
<path d="M22.2966 16.8345H18.6559C18.0426 17.397 17.2486 17.7326 16.3789 17.7682C16.3461 17.7708 16.3133 17.772 16.2805 17.772H7.72081C7.68819 17.772 7.65538 17.7708 7.62275 17.7682C6.75295 17.7328 5.95852 17.397 5.3454 16.8345H1.70474C0.774181 16.8345 0 17.5766 0 18.5071V20.7455C0 21.6759 0.774181 22.4594 1.70474 22.4594H22.2966C23.2271 22.4594 23.9998 21.6759 23.9998 20.7453V18.5071C23.9998 17.5766 23.2271 16.8345 22.2966 16.8345ZM2.6246 20.7395C2.01073 20.7395 1.51124 20.2402 1.51124 19.6261C1.51124 19.0121 2.01055 18.5128 2.6246 18.5128C3.23866 18.5128 3.73797 19.0121 3.73797 19.6261C3.73797 20.2402 3.23847 20.7395 2.6246 20.7395ZM16.6874 19.8344C16.6874 20.3523 16.2677 20.7719 15.7499 20.7719H5.62496C5.10708 20.7719 4.68746 20.3523 4.68746 19.8344V19.4595C4.68746 18.9416 5.10708 18.522 5.62496 18.522H15.7499C16.2677 18.522 16.6874 18.9416 16.6874 19.4595V19.8344ZM18.0113 20.3859C17.5924 20.3859 17.2516 20.0452 17.2516 19.6261C17.2516 19.2071 17.5922 18.8664 18.0113 18.8664C18.4304 18.8664 18.771 19.2071 18.771 19.6261C18.771 20.0452 18.4302 20.3859 18.0113 20.3859ZM19.8865 20.3859C19.4676 20.3859 19.1267 20.0452 19.1267 19.6261C19.1267 19.2071 19.4674 18.8664 19.8865 18.8664C20.3055 18.8664 20.6464 19.2071 20.6464 19.6261C20.6464 20.0452 20.3053 20.3859 19.8865 20.3859ZM21.7637 20.3859C21.3448 20.3859 21.004 20.0452 21.004 19.6261C21.004 19.2071 21.3446 18.8664 21.7637 18.8664C22.1828 18.8664 22.5236 19.2071 22.5236 19.6261C22.5236 20.0452 22.1828 20.3859 21.7637 20.3859Z" fill="url(#paint5_linear_167_4920)"/>
<defs>
<linearGradient id="paint0_linear_167_4920" x1="9.91373" y1="2.55811" x2="-1.56395" y2="19.6813" gradientUnits="userSpaceOnUse">
<stop stop-color="#E2335F"/>
<stop offset="1" stop-color="#792F6C"/>
</linearGradient>
<linearGradient id="paint1_linear_167_4920" x1="19.0587" y1="5.41391" x2="10.0678" y2="15.6613" gradientUnits="userSpaceOnUse">
<stop stop-color="#E2335F"/>
<stop offset="1" stop-color="#792F6C"/>
</linearGradient>
<linearGradient id="paint2_linear_167_4920" x1="2.42204" y1="5.41375" x2="-6.63224" y2="14.9847" gradientUnits="userSpaceOnUse">
<stop stop-color="#E2335F"/>
<stop offset="1" stop-color="#792F6C"/>
</linearGradient>
<linearGradient id="paint3_linear_167_4920" x1="10.3839" y1="8.94886" x2="10.3839" y2="8.95026" gradientUnits="userSpaceOnUse">
<stop stop-color="#E2335F"/>
<stop offset="1" stop-color="#792F6C"/>
</linearGradient>
<linearGradient id="paint4_linear_167_4920" x1="8.29851" y1="-1.33625" x2="3.64558" y2="15.5155" gradientUnits="userSpaceOnUse">
<stop stop-color="#E2335F"/>
<stop offset="1" stop-color="#792F6C"/>
</linearGradient>
<linearGradient id="paint5_linear_167_4920" x1="8.29844" y1="12.1638" x2="3.64548" y2="29.0155" gradientUnits="userSpaceOnUse">
<stop stop-color="#E2335F"/>
<stop offset="1" stop-color="#792F6C"/>
</linearGradient>
</defs>
</svg>
