<svg width="24" height="25" viewBox="0 0 24 25" fill="none" xmlns="http://www.w3.org/2000/svg">
<g clip-path="url(#clip0_167_4980)">
<path d="M13.9147 7.77668L14.7422 6.63968C13.4145 5.67335 11.8422 5.1626 10.1953 5.1626C8.54841 5.1626 6.97613 5.67335 5.64844 6.63968L6.47592 7.77668C7.56159 6.9865 8.84775 6.56885 10.1953 6.56885C11.5429 6.56885 12.829 6.9865 13.9147 7.77668Z" fill="black"/>
<path d="M13.9147 7.77668L14.7422 6.63968C13.4145 5.67335 11.8422 5.1626 10.1953 5.1626C8.54841 5.1626 6.97613 5.67335 5.64844 6.63968L6.47592 7.77668C7.56159 6.9865 8.84775 6.56885 10.1953 6.56885C11.5429 6.56885 12.829 6.9865 13.9147 7.77668Z" fill="url(#paint0_linear_167_4980)"/>
<path d="M3.99414 4.36413L4.82163 5.50113C6.39006 4.35968 8.24791 3.75635 10.1943 3.75635C12.1408 3.75635 13.9986 4.35968 15.567 5.50113L16.3945 4.36413C14.5841 3.04652 12.4401 2.3501 10.1943 2.3501C7.94856 2.3501 5.80459 3.04652 3.99414 4.36413Z" fill="black"/>
<path d="M3.99414 4.36413L4.82163 5.50113C6.39006 4.35968 8.24791 3.75635 10.1943 3.75635C12.1408 3.75635 13.9986 4.35968 15.567 5.50113L16.3945 4.36413C14.5841 3.04652 12.4401 2.3501 10.1943 2.3501C7.94856 2.3501 5.80459 3.04652 3.99414 4.36413Z" fill="url(#paint1_linear_167_4980)"/>
<path d="M6.47592 18.0181L5.64844 19.1551C6.97613 20.1214 8.54845 20.6321 10.1953 20.6321C11.8422 20.6321 13.4145 20.1214 14.7422 19.1551L13.9147 18.0181C12.829 18.8082 11.5429 19.2259 10.1953 19.2259C8.84775 19.2259 7.56159 18.8082 6.47592 18.0181Z" fill="black"/>
<path d="M6.47592 18.0181L5.64844 19.1551C6.97613 20.1214 8.54845 20.6321 10.1953 20.6321C11.8422 20.6321 13.4145 20.1214 14.7422 19.1551L13.9147 18.0181C12.829 18.8082 11.5429 19.2259 10.1953 19.2259C8.84775 19.2259 7.56159 18.8082 6.47592 18.0181Z" fill="url(#paint2_linear_167_4980)"/>
<path d="M10.1943 22.0377C8.24786 22.0377 6.39002 21.4344 4.82162 20.293L3.99414 21.43C5.80455 22.7476 7.94852 23.444 10.1943 23.444C12.4401 23.444 14.584 22.7476 16.3945 21.43L15.567 20.293C13.9986 21.4344 12.1407 22.0377 10.1943 22.0377Z" fill="black"/>
<path d="M10.1943 22.0377C8.24786 22.0377 6.39002 21.4344 4.82162 20.293L3.99414 21.43C5.80455 22.7476 7.94852 23.444 10.1943 23.444C12.4401 23.444 14.584 22.7476 16.3945 21.43L15.567 20.293C13.9986 21.4344 12.1407 22.0377 10.1943 22.0377Z" fill="url(#paint3_linear_167_4980)"/>
<path d="M16.7383 7.24854V10.4762H18.7556V18.5454H21.9833V10.4762H24.0006V7.24854H16.7383Z" fill="black"/>
<path d="M16.7383 7.24854V10.4762H18.7556V18.5454H21.9833V10.4762H24.0006V7.24854H16.7383Z" fill="url(#paint4_linear_167_4980)"/>
<path d="M0 7.24854H3.22767V18.5454H0V7.24854Z" fill="black"/>
<path d="M0 7.24854H3.22767V18.5454H0V7.24854Z" fill="url(#paint5_linear_167_4980)"/>
<path d="M10.195 17.7387C12.8689 17.7387 15.0366 15.5711 15.0366 12.8972C15.0366 10.2233 12.8689 8.05566 10.195 8.05566C7.52116 8.05566 5.35352 10.2233 5.35352 12.8972C5.35352 15.5711 7.52116 17.7387 10.195 17.7387ZM10.195 11.2833C11.0863 11.2833 11.8089 12.0059 11.8089 12.8972C11.8089 13.7885 11.0864 14.5111 10.195 14.5111C9.30377 14.5111 8.58119 13.7885 8.58119 12.8972C8.58119 12.0059 9.30377 11.2833 10.195 11.2833Z" fill="black"/>
<path d="M10.195 17.7387C12.8689 17.7387 15.0366 15.5711 15.0366 12.8972C15.0366 10.2233 12.8689 8.05566 10.195 8.05566C7.52116 8.05566 5.35352 10.2233 5.35352 12.8972C5.35352 15.5711 7.52116 17.7387 10.195 17.7387ZM10.195 11.2833C11.0863 11.2833 11.8089 12.0059 11.8089 12.8972C11.8089 13.7885 11.0864 14.5111 10.195 14.5111C9.30377 14.5111 8.58119 13.7885 8.58119 12.8972C8.58119 12.0059 9.30377 11.2833 10.195 11.2833Z" fill="url(#paint6_linear_167_4980)"/>
</g>
<defs>
<linearGradient id="paint0_linear_167_4980" x1="8.79279" y1="2.99198" x2="6.23215" y2="10.5533" gradientUnits="userSpaceOnUse">
<stop stop-color="#E2335F"/>
<stop offset="1" stop-color="#792F6C"/>
</linearGradient>
<linearGradient id="paint1_linear_167_4980" x1="8.28183" y1="-0.266383" x2="5.49054" y2="9.05783" gradientUnits="userSpaceOnUse">
<stop stop-color="#E2335F"/>
<stop offset="1" stop-color="#792F6C"/>
</linearGradient>
<linearGradient id="paint2_linear_167_4980" x1="8.79279" y1="15.8474" x2="6.23215" y2="23.4088" gradientUnits="userSpaceOnUse">
<stop stop-color="#E2335F"/>
<stop offset="1" stop-color="#792F6C"/>
</linearGradient>
<linearGradient id="paint3_linear_167_4980" x1="8.28183" y1="17.6765" x2="5.49054" y2="27.0007" gradientUnits="userSpaceOnUse">
<stop stop-color="#E2335F"/>
<stop offset="1" stop-color="#792F6C"/>
</linearGradient>
<linearGradient id="paint4_linear_167_4980" x1="19.2494" y1="-2.13191" x2="3.93375" y2="6.22559" gradientUnits="userSpaceOnUse">
<stop stop-color="#E2335F"/>
<stop offset="1" stop-color="#792F6C"/>
</linearGradient>
<linearGradient id="paint5_linear_167_4980" x1="1.11604" y1="-2.13191" x2="-7.22705" y2="-0.108497" gradientUnits="userSpaceOnUse">
<stop stop-color="#E2335F"/>
<stop offset="1" stop-color="#792F6C"/>
</linearGradient>
<linearGradient id="paint6_linear_167_4980" x1="8.70164" y1="0.0152636" x2="-6.70151" y2="13.0901" gradientUnits="userSpaceOnUse">
<stop stop-color="#E2335F"/>
<stop offset="1" stop-color="#792F6C"/>
</linearGradient>
<clipPath id="clip0_167_4980">
<rect width="24" height="24" fill="white" transform="translate(0 0.896973)"/>
</clipPath>
</defs>
</svg>
