<svg width="24" height="25" viewBox="0 0 24 25" fill="none" xmlns="http://www.w3.org/2000/svg">
<path d="M16.6329 17.6111C16.6197 17.7469 16.4924 17.8418 16.3579 17.8152C15.7737 17.6984 15.2271 17.4716 14.733 17.1413C14.6196 17.0654 14.5965 16.9083 14.6829 16.803C15.0164 16.3968 14.7173 15.797 14.2063 15.797C14.064 15.797 13.9254 15.8464 13.816 15.9362C13.7107 16.0227 13.5535 15.9992 13.4778 15.886C13.1475 15.392 12.9207 14.8453 12.8039 14.2611C12.7772 14.1272 12.8721 13.9993 13.008 13.9862C13.3246 13.9556 13.5634 13.6919 13.5634 13.373C13.5634 13.0548 13.3246 12.7918 13.008 12.7612C12.8717 12.748 12.7773 12.6199 12.8039 12.4863C12.9206 11.9014 13.1473 11.3542 13.4778 10.86C13.5534 10.7468 13.7108 10.7231 13.8165 10.8102C13.9255 10.9002 14.064 10.9497 14.2064 10.9497C14.7196 10.9497 15.0153 10.3493 14.6829 9.94432C14.5965 9.839 14.6197 9.68208 14.7327 9.60624C15.2248 9.27624 15.7717 9.04944 16.3579 8.93221C16.4913 8.9054 16.6197 8.99988 16.6329 9.13626C16.6578 9.39435 16.8376 9.60066 17.076 9.66814V5.97412H6.9375V8.05104H10.3067C10.8581 8.05104 11.3067 8.49966 11.3067 9.05106V11.8972C11.3067 12.4486 10.8581 12.8972 10.3067 12.8972H6.9375V18.6664H17.076V17.0792C16.8376 17.1467 16.6578 17.353 16.6329 17.6111ZM11.3067 17.7434H8.07598C7.94855 17.7434 7.84521 17.6401 7.84521 17.5126C7.84521 17.3851 7.94855 17.2818 8.07598 17.2818H11.3067C11.4342 17.2818 11.5375 17.3851 11.5375 17.5126C11.5375 17.6401 11.4342 17.7434 11.3067 17.7434ZM11.3067 16.8203H8.07598C7.94855 16.8203 7.84521 16.717 7.84521 16.5895C7.84521 16.462 7.94855 16.3587 8.07598 16.3587H11.3067C11.4342 16.3587 11.5375 16.462 11.5375 16.5895C11.5375 16.717 11.4342 16.8203 11.3067 16.8203ZM11.3067 15.8972H8.07598C7.94855 15.8972 7.84521 15.7939 7.84521 15.6664C7.84521 15.539 7.94855 15.4357 8.07598 15.4357H11.3067C11.4342 15.4357 11.5375 15.539 11.5375 15.6664C11.5375 15.7939 11.4342 15.8972 11.3067 15.8972ZM11.3067 14.9741H8.07598C7.94855 14.9741 7.84521 14.8708 7.84521 14.7434C7.84521 14.6159 7.94855 14.5126 8.07598 14.5126H11.3067C11.4342 14.5126 11.5375 14.6159 11.5375 14.7434C11.5375 14.8708 11.4342 14.9741 11.3067 14.9741Z" fill="#CF4541"/>
<path d="M16.6329 17.6111C16.6197 17.7469 16.4924 17.8418 16.3579 17.8152C15.7737 17.6984 15.2271 17.4716 14.733 17.1413C14.6196 17.0654 14.5965 16.9083 14.6829 16.803C15.0164 16.3968 14.7173 15.797 14.2063 15.797C14.064 15.797 13.9254 15.8464 13.816 15.9362C13.7107 16.0227 13.5535 15.9992 13.4778 15.886C13.1475 15.392 12.9207 14.8453 12.8039 14.2611C12.7772 14.1272 12.8721 13.9993 13.008 13.9862C13.3246 13.9556 13.5634 13.6919 13.5634 13.373C13.5634 13.0548 13.3246 12.7918 13.008 12.7612C12.8717 12.748 12.7773 12.6199 12.8039 12.4863C12.9206 11.9014 13.1473 11.3542 13.4778 10.86C13.5534 10.7468 13.7108 10.7231 13.8165 10.8102C13.9255 10.9002 14.064 10.9497 14.2064 10.9497C14.7196 10.9497 15.0153 10.3493 14.6829 9.94432C14.5965 9.839 14.6197 9.68208 14.7327 9.60624C15.2248 9.27624 15.7717 9.04944 16.3579 8.93221C16.4913 8.9054 16.6197 8.99988 16.6329 9.13626C16.6578 9.39435 16.8376 9.60066 17.076 9.66814V5.97412H6.9375V8.05104H10.3067C10.8581 8.05104 11.3067 8.49966 11.3067 9.05106V11.8972C11.3067 12.4486 10.8581 12.8972 10.3067 12.8972H6.9375V18.6664H17.076V17.0792C16.8376 17.1467 16.6578 17.353 16.6329 17.6111ZM11.3067 17.7434H8.07598C7.94855 17.7434 7.84521 17.6401 7.84521 17.5126C7.84521 17.3851 7.94855 17.2818 8.07598 17.2818H11.3067C11.4342 17.2818 11.5375 17.3851 11.5375 17.5126C11.5375 17.6401 11.4342 17.7434 11.3067 17.7434ZM11.3067 16.8203H8.07598C7.94855 16.8203 7.84521 16.717 7.84521 16.5895C7.84521 16.462 7.94855 16.3587 8.07598 16.3587H11.3067C11.4342 16.3587 11.5375 16.462 11.5375 16.5895C11.5375 16.717 11.4342 16.8203 11.3067 16.8203ZM11.3067 15.8972H8.07598C7.94855 15.8972 7.84521 15.7939 7.84521 15.6664C7.84521 15.539 7.94855 15.4357 8.07598 15.4357H11.3067C11.4342 15.4357 11.5375 15.539 11.5375 15.6664C11.5375 15.7939 11.4342 15.8972 11.3067 15.8972ZM11.3067 14.9741H8.07598C7.94855 14.9741 7.84521 14.8708 7.84521 14.7434C7.84521 14.6159 7.94855 14.5126 8.07598 14.5126H11.3067C11.4342 14.5126 11.5375 14.6159 11.5375 14.7434C11.5375 14.8708 11.4342 14.9741 11.3067 14.9741Z" fill="url(#paint0_linear_167_4848)"/>
<path d="M17.2449 11.5005C16.2117 11.5005 15.3711 12.3404 15.3711 13.3728C15.3711 14.406 16.2117 15.2466 17.2449 15.2466C18.2773 15.2466 19.1171 14.406 19.1171 13.3728C19.1171 12.3404 18.2773 11.5005 17.2449 11.5005ZM17.2445 14.6658C16.5317 14.6658 15.9518 14.0859 15.9518 13.3731C15.9518 12.6607 16.5317 12.0811 17.2445 12.0811C17.9569 12.0811 18.5364 12.6607 18.5364 13.3731C18.5364 14.0859 17.9568 14.6658 17.2445 14.6658Z" fill="#CF4541"/>
<path d="M17.2449 11.5005C16.2117 11.5005 15.3711 12.3404 15.3711 13.3728C15.3711 14.406 16.2117 15.2466 17.2449 15.2466C18.2773 15.2466 19.1171 14.406 19.1171 13.3728C19.1171 12.3404 18.2773 11.5005 17.2449 11.5005ZM17.2445 14.6658C16.5317 14.6658 15.9518 14.0859 15.9518 13.3731C15.9518 12.6607 16.5317 12.0811 17.2445 12.0811C17.9569 12.0811 18.5364 12.6607 18.5364 13.3731C18.5364 14.0859 17.9568 14.6658 17.2445 14.6658Z" fill="url(#paint1_linear_167_4848)"/>
<path d="M17.2452 12.5435C16.7869 12.5435 16.4141 12.916 16.4141 13.3739C16.4141 13.8322 16.7869 14.205 17.2452 14.205C17.7031 14.205 18.0756 13.8322 18.0756 13.3739C18.0756 12.916 17.7031 12.5435 17.2452 12.5435Z" fill="#CF4541"/>
<path d="M17.2452 12.5435C16.7869 12.5435 16.4141 12.916 16.4141 13.3739C16.4141 13.8322 16.7869 14.205 17.2452 14.205C17.7031 14.205 18.0756 13.8322 18.0756 13.3739C18.0756 12.916 17.7031 12.5435 17.2452 12.5435Z" fill="url(#paint2_linear_167_4848)"/>
<path d="M6.9375 20.7275C6.9375 21.6266 7.66904 22.3582 8.56825 22.3582H15.4452C16.3444 22.3582 17.076 21.6266 17.076 20.7274V19.1274H6.9375V20.7275ZM12.0144 19.8197C12.5234 19.8197 12.9375 20.2338 12.9375 20.7428C12.9375 21.2518 12.5234 21.6659 12.0144 21.6659C11.5054 21.6659 11.0913 21.2518 11.0913 20.7428C11.0913 20.2338 11.5054 19.8197 12.0144 19.8197Z" fill="#CF4541"/>
<path d="M6.9375 20.7275C6.9375 21.6266 7.66904 22.3582 8.56825 22.3582H15.4452C16.3444 22.3582 17.076 21.6266 17.076 20.7274V19.1274H6.9375V20.7275ZM12.0144 19.8197C12.5234 19.8197 12.9375 20.2338 12.9375 20.7428C12.9375 21.2518 12.5234 21.6659 12.0144 21.6659C11.5054 21.6659 11.0913 21.2518 11.0913 20.7428C11.0913 20.2338 11.5054 19.8197 12.0144 19.8197Z" fill="url(#paint3_linear_167_4848)"/>
<path d="M12.0143 21.2043C12.2688 21.2043 12.4758 20.9973 12.4758 20.7428C12.4758 20.4883 12.2688 20.2812 12.0143 20.2812C11.7598 20.2812 11.5527 20.4883 11.5527 20.7428C11.5527 20.9973 11.7598 21.2043 12.0143 21.2043Z" fill="#CF4541"/>
<path d="M12.0143 21.2043C12.2688 21.2043 12.4758 20.9973 12.4758 20.7428C12.4758 20.4883 12.2688 20.2812 12.0143 20.2812C11.7598 20.2812 11.5527 20.4883 11.5527 20.7428C11.5527 20.9973 11.7598 21.2043 12.0143 21.2043Z" fill="url(#paint4_linear_167_4848)"/>
<path d="M7.27734 10.0859V10.8631L7.95036 10.4745L7.27734 10.0859Z" fill="#CF4541"/>
<path d="M7.27734 10.0859V10.8631L7.95036 10.4745L7.27734 10.0859Z" fill="url(#paint5_linear_167_4848)"/>
<path d="M17.076 5.06679C17.076 4.16757 16.3444 3.43604 15.4452 3.43604H8.56825C7.66904 3.43604 6.9375 4.16757 6.9375 5.06679V5.51296H17.076V5.06679ZM12.7067 4.82065H11.3067C11.1793 4.82065 11.076 4.71731 11.076 4.58988C11.076 4.46245 11.1793 4.35911 11.3067 4.35911H12.7067C12.8342 4.35911 12.9375 4.46245 12.9375 4.58988C12.9375 4.71731 12.8342 4.82065 12.7067 4.82065Z" fill="#CF4541"/>
<path d="M17.076 5.06679C17.076 4.16757 16.3444 3.43604 15.4452 3.43604H8.56825C7.66904 3.43604 6.9375 4.16757 6.9375 5.06679V5.51296H17.076V5.06679ZM12.7067 4.82065H11.3067C11.1793 4.82065 11.076 4.71731 11.076 4.58988C11.076 4.46245 11.1793 4.35911 11.3067 4.35911H12.7067C12.8342 4.35911 12.9375 4.46245 12.9375 4.58988C12.9375 4.71731 12.8342 4.82065 12.7067 4.82065Z" fill="url(#paint6_linear_167_4848)"/>
<path d="M10.3056 12.4353C10.6025 12.4353 10.8441 12.1938 10.8441 11.8968V11.743H8.76713C8.6397 11.743 8.53636 11.6396 8.53636 11.5122C8.53636 11.3848 8.6397 11.2814 8.76713 11.2814H10.8441V9.05068C10.8441 8.75378 10.6025 8.51221 10.3056 8.51221H5.15176C4.85485 8.51221 4.61328 8.75373 4.61328 9.05068V9.43528H5.53636C5.66379 9.43528 5.76713 9.53862 5.76713 9.66605C5.76713 9.79348 5.66379 9.89682 5.53636 9.89682H4.61328V11.8968C4.61328 12.1937 4.8548 12.4353 5.15176 12.4353H10.3056ZM6.81524 9.68544C6.81524 9.50839 7.00742 9.39665 7.16139 9.48559L8.52671 10.2739C8.68031 10.3626 8.6804 10.5849 8.52671 10.6736L7.16139 11.4619C7.00913 11.5499 6.81524 11.4406 6.81524 11.2621V9.68544Z" fill="#CF4541"/>
<path d="M10.3056 12.4353C10.6025 12.4353 10.8441 12.1938 10.8441 11.8968V11.743H8.76713C8.6397 11.743 8.53636 11.6396 8.53636 11.5122C8.53636 11.3848 8.6397 11.2814 8.76713 11.2814H10.8441V9.05068C10.8441 8.75378 10.6025 8.51221 10.3056 8.51221H5.15176C4.85485 8.51221 4.61328 8.75373 4.61328 9.05068V9.43528H5.53636C5.66379 9.43528 5.76713 9.53862 5.76713 9.66605C5.76713 9.79348 5.66379 9.89682 5.53636 9.89682H4.61328V11.8968C4.61328 12.1937 4.8548 12.4353 5.15176 12.4353H10.3056ZM6.81524 9.68544C6.81524 9.50839 7.00742 9.39665 7.16139 9.48559L8.52671 10.2739C8.68031 10.3626 8.6804 10.5849 8.52671 10.6736L7.16139 11.4619C7.00913 11.5499 6.81524 11.4406 6.81524 11.2621V9.68544Z" fill="url(#paint7_linear_167_4848)"/>
<path d="M3.69261 17.5122C3.18362 17.5122 2.76953 17.9263 2.76953 18.4353C2.76953 18.9443 3.18362 19.3584 3.69261 19.3584C4.20159 19.3584 4.61568 18.9443 4.61568 18.4353C4.61568 17.9263 4.20159 17.5122 3.69261 17.5122Z" fill="#CF4541"/>
<path d="M3.69261 17.5122C3.18362 17.5122 2.76953 17.9263 2.76953 18.4353C2.76953 18.9443 3.18362 19.3584 3.69261 19.3584C4.20159 19.3584 4.61568 18.9443 4.61568 18.4353C4.61568 17.9263 4.20159 17.5122 3.69261 17.5122Z" fill="url(#paint8_linear_167_4848)"/>
<path d="M20.464 13.3727C20.464 12.9046 20.7592 12.5047 21.1825 12.3571C21.0872 11.9864 20.9413 11.6343 20.7469 11.3057C20.6029 11.3745 20.4441 11.411 20.2826 11.411C19.4947 11.411 18.9649 10.585 19.3096 9.86971C18.9825 9.67572 18.6309 9.53002 18.2599 9.43462C18.1122 9.8578 17.7123 10.153 17.2442 10.153C16.7755 10.153 16.3751 9.8578 16.2273 9.43457C15.8563 9.52997 15.5047 9.67572 15.1776 9.86971C15.5223 10.5851 14.9922 11.411 14.2045 11.411C14.043 11.411 13.8842 11.3745 13.7403 11.3057C13.5458 11.6343 13.3999 11.9864 13.3047 12.3571C13.7279 12.5047 14.0232 12.9046 14.0232 13.3727C14.0232 13.8414 13.728 14.2418 13.3048 14.3896C13.4001 14.7598 13.5461 15.1118 13.7405 15.4401C14.1382 15.2507 14.6318 15.3154 14.9663 15.6514C15.2976 15.9812 15.3723 16.4728 15.1777 16.8769C15.5057 17.0711 15.8574 17.2169 16.2273 17.3122C16.3751 16.889 16.7755 16.5939 17.2442 16.5939C17.7123 16.5939 18.1123 16.8891 18.2599 17.3123C18.6303 17.2171 18.9822 17.0714 19.3104 16.8772C18.9631 16.1594 19.4979 15.3352 20.2826 15.3352C20.4439 15.3352 20.6027 15.3716 20.7466 15.4401C20.9411 15.1118 21.0871 14.7599 21.1824 14.3896C20.7592 14.2418 20.464 13.8414 20.464 13.3727ZM17.2444 15.7079C15.9567 15.7079 14.909 14.6603 14.909 13.3726C14.909 12.0857 15.9566 11.0388 17.2444 11.0388C18.5312 11.0388 19.5781 12.0857 19.5781 13.3726C19.5781 14.6603 18.5312 15.7079 17.2444 15.7079Z" fill="#CF4541"/>
<path d="M20.464 13.3727C20.464 12.9046 20.7592 12.5047 21.1825 12.3571C21.0872 11.9864 20.9413 11.6343 20.7469 11.3057C20.6029 11.3745 20.4441 11.411 20.2826 11.411C19.4947 11.411 18.9649 10.585 19.3096 9.86971C18.9825 9.67572 18.6309 9.53002 18.2599 9.43462C18.1122 9.8578 17.7123 10.153 17.2442 10.153C16.7755 10.153 16.3751 9.8578 16.2273 9.43457C15.8563 9.52997 15.5047 9.67572 15.1776 9.86971C15.5223 10.5851 14.9922 11.411 14.2045 11.411C14.043 11.411 13.8842 11.3745 13.7403 11.3057C13.5458 11.6343 13.3999 11.9864 13.3047 12.3571C13.7279 12.5047 14.0232 12.9046 14.0232 13.3727C14.0232 13.8414 13.728 14.2418 13.3048 14.3896C13.4001 14.7598 13.5461 15.1118 13.7405 15.4401C14.1382 15.2507 14.6318 15.3154 14.9663 15.6514C15.2976 15.9812 15.3723 16.4728 15.1777 16.8769C15.5057 17.0711 15.8574 17.2169 16.2273 17.3122C16.3751 16.889 16.7755 16.5939 17.2442 16.5939C17.7123 16.5939 18.1123 16.8891 18.2599 17.3123C18.6303 17.2171 18.9822 17.0714 19.3104 16.8772C18.9631 16.1594 19.4979 15.3352 20.2826 15.3352C20.4439 15.3352 20.6027 15.3716 20.7466 15.4401C20.9411 15.1118 21.0871 14.7599 21.1824 14.3896C20.7592 14.2418 20.464 13.8414 20.464 13.3727ZM17.2444 15.7079C15.9567 15.7079 14.909 14.6603 14.909 13.3726C14.909 12.0857 15.9566 11.0388 17.2444 11.0388C18.5312 11.0388 19.5781 12.0857 19.5781 13.3726C19.5781 14.6603 18.5312 15.7079 17.2444 15.7079Z" fill="url(#paint9_linear_167_4848)"/>
<path d="M20.9989 6.20542C21.3807 6.20542 21.6913 5.89485 21.6913 5.51311C21.6913 5.13137 21.3807 4.8208 20.9989 4.8208C20.6172 4.8208 20.3066 5.13137 20.3066 5.51311C20.3066 5.89485 20.6172 6.20542 20.9989 6.20542Z" fill="#CF4541"/>
<path d="M20.9989 6.20542C21.3807 6.20542 21.6913 5.89485 21.6913 5.51311C21.6913 5.13137 21.3807 4.8208 20.9989 4.8208C20.6172 4.8208 20.3066 5.13137 20.3066 5.51311C20.3066 5.89485 20.6172 6.20542 20.9989 6.20542Z" fill="url(#paint10_linear_167_4848)"/>
<path d="M19.7309 3.66643C19.9221 3.66643 20.0771 3.51145 20.0771 3.32027C20.0771 3.1291 19.9221 2.97412 19.7309 2.97412C19.5397 2.97412 19.3848 3.1291 19.3848 3.32027C19.3848 3.51145 19.5397 3.66643 19.7309 3.66643Z" fill="#CF4541"/>
<path d="M19.7309 3.66643C19.9221 3.66643 20.0771 3.51145 20.0771 3.32027C20.0771 3.1291 19.9221 2.97412 19.7309 2.97412C19.5397 2.97412 19.3848 3.1291 19.3848 3.32027C19.3848 3.51145 19.5397 3.66643 19.7309 3.66643Z" fill="url(#paint11_linear_167_4848)"/>
<path d="M20.6528 8.51311C20.844 8.51311 20.9989 8.35813 20.9989 8.16695C20.9989 7.97578 20.844 7.8208 20.6528 7.8208C20.4616 7.8208 20.3066 7.97578 20.3066 8.16695C20.3066 8.35813 20.4616 8.51311 20.6528 8.51311Z" fill="#CF4541"/>
<path d="M20.6528 8.51311C20.844 8.51311 20.9989 8.35813 20.9989 8.16695C20.9989 7.97578 20.844 7.8208 20.6528 7.8208C20.4616 7.8208 20.3066 7.97578 20.3066 8.16695C20.3066 8.35813 20.4616 8.51311 20.6528 8.51311Z" fill="url(#paint12_linear_167_4848)"/>
<path d="M21.3462 18.2045C21.5373 18.2045 21.6923 18.0495 21.6923 17.8584C21.6923 17.6672 21.5373 17.5122 21.3462 17.5122C21.155 17.5122 21 17.6672 21 17.8584C21 18.0495 21.155 18.2045 21.3462 18.2045Z" fill="#CF4541"/>
<path d="M21.3462 18.2045C21.5373 18.2045 21.6923 18.0495 21.6923 17.8584C21.6923 17.6672 21.5373 17.5122 21.3462 17.5122C21.155 17.5122 21 17.6672 21 17.8584C21 18.0495 21.155 18.2045 21.3462 18.2045Z" fill="url(#paint13_linear_167_4848)"/>
<path d="M2.65279 4.12834C2.84397 4.12834 2.99895 3.97336 2.99895 3.78219C2.99895 3.59101 2.84397 3.43604 2.65279 3.43604C2.46162 3.43604 2.30664 3.59101 2.30664 3.78219C2.30664 3.97336 2.46162 4.12834 2.65279 4.12834Z" fill="#CF4541"/>
<path d="M2.65279 4.12834C2.84397 4.12834 2.99895 3.97336 2.99895 3.78219C2.99895 3.59101 2.84397 3.43604 2.65279 3.43604C2.46162 3.43604 2.30664 3.59101 2.30664 3.78219C2.30664 3.97336 2.46162 4.12834 2.65279 4.12834Z" fill="url(#paint14_linear_167_4848)"/>
<path d="M4.95944 6.43547C5.15061 6.43547 5.30559 6.28049 5.30559 6.08932C5.30559 5.89814 5.15061 5.74316 4.95944 5.74316C4.76826 5.74316 4.61328 5.89814 4.61328 6.08932C4.61328 6.28049 4.76826 6.43547 4.95944 6.43547Z" fill="#CF4541"/>
<path d="M4.95944 6.43547C5.15061 6.43547 5.30559 6.28049 5.30559 6.08932C5.30559 5.89814 5.15061 5.74316 4.95944 5.74316C4.76826 5.74316 4.61328 5.89814 4.61328 6.08932C4.61328 6.28049 4.76826 6.43547 4.95944 6.43547Z" fill="url(#paint15_linear_167_4848)"/>
<path d="M2.88326 14.5131C3.07444 14.5131 3.22942 14.3581 3.22942 14.167C3.22942 13.9758 3.07444 13.8208 2.88326 13.8208C2.69209 13.8208 2.53711 13.9758 2.53711 14.167C2.53711 14.3581 2.69209 14.5131 2.88326 14.5131Z" fill="#CF4541"/>
<path d="M2.88326 14.5131C3.07444 14.5131 3.22942 14.3581 3.22942 14.167C3.22942 13.9758 3.07444 13.8208 2.88326 13.8208C2.69209 13.8208 2.53711 13.9758 2.53711 14.167C2.53711 14.3581 2.69209 14.5131 2.88326 14.5131Z" fill="url(#paint16_linear_167_4848)"/>
<path d="M5.42233 22.8197C5.6135 22.8197 5.76848 22.6648 5.76848 22.4736C5.76848 22.2824 5.6135 22.1274 5.42233 22.1274C5.23115 22.1274 5.07617 22.2824 5.07617 22.4736C5.07617 22.6648 5.23115 22.8197 5.42233 22.8197Z" fill="#CF4541"/>
<path d="M5.42233 22.8197C5.6135 22.8197 5.76848 22.6648 5.76848 22.4736C5.76848 22.2824 5.6135 22.1274 5.42233 22.1274C5.23115 22.1274 5.07617 22.2824 5.07617 22.4736C5.07617 22.6648 5.23115 22.8197 5.42233 22.8197Z" fill="url(#paint17_linear_167_4848)"/>
<path d="M18.8071 22.3593C18.9983 22.3593 19.1532 22.2043 19.1532 22.0131C19.1532 21.822 18.9983 21.667 18.8071 21.667C18.6159 21.667 18.4609 21.822 18.4609 22.0131C18.4609 22.2043 18.6159 22.3593 18.8071 22.3593Z" fill="#CF4541"/>
<path d="M18.8071 22.3593C18.9983 22.3593 19.1532 22.2043 19.1532 22.0131C19.1532 21.822 18.9983 21.667 18.8071 21.667C18.6159 21.667 18.4609 21.822 18.4609 22.0131C18.4609 22.2043 18.6159 22.3593 18.8071 22.3593Z" fill="url(#paint18_linear_167_4848)"/>
<defs>
<linearGradient id="paint0_linear_167_4848" x1="10.4431" y1="-4.56503" x2="-8.56572" y2="8.32379" gradientUnits="userSpaceOnUse">
<stop stop-color="#E2335F"/>
<stop offset="1" stop-color="#792F6C"/>
</linearGradient>
<linearGradient id="paint1_linear_167_4848" x1="16.6664" y1="8.38991" x2="10.7074" y2="13.4481" gradientUnits="userSpaceOnUse">
<stop stop-color="#E2335F"/>
<stop offset="1" stop-color="#792F6C"/>
</linearGradient>
<linearGradient id="paint2_linear_167_4848" x1="16.9886" y1="11.1637" x2="14.3455" y2="13.4073" gradientUnits="userSpaceOnUse">
<stop stop-color="#E2335F"/>
<stop offset="1" stop-color="#792F6C"/>
</linearGradient>
<linearGradient id="paint3_linear_167_4848" x1="10.4431" y1="16.4447" x2="7.01553" y2="25.5749" gradientUnits="userSpaceOnUse">
<stop stop-color="#E2335F"/>
<stop offset="1" stop-color="#792F6C"/>
</linearGradient>
<linearGradient id="paint4_linear_167_4848" x1="11.8719" y1="19.5148" x2="10.4035" y2="20.7612" gradientUnits="userSpaceOnUse">
<stop stop-color="#E2335F"/>
<stop offset="1" stop-color="#792F6C"/>
</linearGradient>
<linearGradient id="paint5_linear_167_4848" x1="7.51005" y1="9.44063" x2="6.31426" y2="10.3197" gradientUnits="userSpaceOnUse">
<stop stop-color="#E2335F"/>
<stop offset="1" stop-color="#792F6C"/>
</linearGradient>
<linearGradient id="paint6_linear_167_4848" x1="10.4431" y1="1.71145" x2="8.91591" y2="8.03947" gradientUnits="userSpaceOnUse">
<stop stop-color="#E2335F"/>
<stop offset="1" stop-color="#792F6C"/>
</linearGradient>
<linearGradient id="paint7_linear_167_4848" x1="6.7677" y1="5.25465" x2="0.715239" y2="13.4143" gradientUnits="userSpaceOnUse">
<stop stop-color="#E2335F"/>
<stop offset="1" stop-color="#792F6C"/>
</linearGradient>
<linearGradient id="paint8_linear_167_4848" x1="3.40788" y1="15.9792" x2="0.471143" y2="18.4721" gradientUnits="userSpaceOnUse">
<stop stop-color="#E2335F"/>
<stop offset="1" stop-color="#792F6C"/>
</linearGradient>
<linearGradient id="paint9_linear_167_4848" x1="16.0286" y1="2.89321" x2="3.49718" y2="13.5304" gradientUnits="userSpaceOnUse">
<stop stop-color="#E2335F"/>
<stop offset="1" stop-color="#792F6C"/>
</linearGradient>
<linearGradient id="paint10_linear_167_4848" x1="20.7854" y1="3.67108" x2="18.5828" y2="5.54069" gradientUnits="userSpaceOnUse">
<stop stop-color="#E2335F"/>
<stop offset="1" stop-color="#792F6C"/>
</linearGradient>
<linearGradient id="paint11_linear_167_4848" x1="19.6241" y1="2.39926" x2="18.5229" y2="3.33407" gradientUnits="userSpaceOnUse">
<stop stop-color="#E2335F"/>
<stop offset="1" stop-color="#792F6C"/>
</linearGradient>
<linearGradient id="paint12_linear_167_4848" x1="20.546" y1="7.24594" x2="19.4447" y2="8.18074" gradientUnits="userSpaceOnUse">
<stop stop-color="#E2335F"/>
<stop offset="1" stop-color="#792F6C"/>
</linearGradient>
<linearGradient id="paint13_linear_167_4848" x1="21.2394" y1="16.9373" x2="20.1381" y2="17.8722" gradientUnits="userSpaceOnUse">
<stop stop-color="#E2335F"/>
<stop offset="1" stop-color="#792F6C"/>
</linearGradient>
<linearGradient id="paint14_linear_167_4848" x1="2.54602" y1="2.86117" x2="1.44475" y2="3.79598" gradientUnits="userSpaceOnUse">
<stop stop-color="#E2335F"/>
<stop offset="1" stop-color="#792F6C"/>
</linearGradient>
<linearGradient id="paint15_linear_167_4848" x1="4.85266" y1="5.1683" x2="3.75139" y2="6.10311" gradientUnits="userSpaceOnUse">
<stop stop-color="#E2335F"/>
<stop offset="1" stop-color="#792F6C"/>
</linearGradient>
<linearGradient id="paint16_linear_167_4848" x1="2.77649" y1="13.2459" x2="1.67521" y2="14.1807" gradientUnits="userSpaceOnUse">
<stop stop-color="#E2335F"/>
<stop offset="1" stop-color="#792F6C"/>
</linearGradient>
<linearGradient id="paint17_linear_167_4848" x1="5.31555" y1="21.5526" x2="4.21428" y2="22.4874" gradientUnits="userSpaceOnUse">
<stop stop-color="#E2335F"/>
<stop offset="1" stop-color="#792F6C"/>
</linearGradient>
<linearGradient id="paint18_linear_167_4848" x1="18.7003" y1="21.0921" x2="17.599" y2="22.0269" gradientUnits="userSpaceOnUse">
<stop stop-color="#E2335F"/>
<stop offset="1" stop-color="#792F6C"/>
</linearGradient>
</defs>
</svg>
