<svg width="24" height="25" viewBox="0 0 24 25" fill="none" xmlns="http://www.w3.org/2000/svg">
<path d="M18.3535 19.9565H24.0006V13.6035H18.3535V19.9565ZM19.7653 15.7212H21.177V17.1329H19.7653V15.7212Z" fill="black"/>
<path d="M18.3535 19.9565H24.0006V13.6035H18.3535V19.9565ZM19.7653 15.7212H21.177V17.1329H19.7653V15.7212Z" fill="url(#paint0_linear_167_4973)"/>
<path d="M5.64648 0.896973H11.2935V6.54403H5.64648V0.896973Z" fill="black"/>
<path d="M5.64648 0.896973H11.2935V6.54403H5.64648V0.896973Z" fill="url(#paint1_linear_167_4973)"/>
<path d="M4.23438 10.7793H12.705V12.1911H4.23438V10.7793Z" fill="black"/>
<path d="M4.23438 10.7793H12.705V12.1911H4.23438V10.7793Z" fill="url(#paint2_linear_167_4973)"/>
<path d="M14.8235 3.72119H12.7059V7.95649H4.23529V3.72119H2.11765C0.950023 3.72119 0 4.67122 0 5.83884V22.78C0 23.9477 0.950023 24.8977 2.11765 24.8977H14.8235C15.9912 24.8977 16.9412 23.9477 16.9412 22.78V5.83884C16.9412 4.67122 15.9912 3.72119 14.8235 3.72119ZM5.64706 22.0741H2.82353V20.6624H5.64706V22.0741ZM5.64706 19.2506H2.82353V17.8388H5.64706V19.2506ZM5.64706 16.4271H2.82353V15.0153H5.64706V16.4271ZM9.88235 22.0741H7.05882V20.6624H9.88235V22.0741ZM9.88235 19.2506H7.05882V17.8388H9.88235V19.2506ZM9.88235 16.4271H7.05882V15.0153H9.88235V16.4271ZM14.1176 22.0741H11.2941V20.6624H14.1176V22.0741ZM14.1176 19.2506H11.2941V17.8388H14.1176V19.2506ZM14.1176 16.4271H11.2941V15.0153H14.1176V16.4271ZM14.1176 13.6035H2.82353V9.36825H14.1176V13.6035Z" fill="black"/>
<path d="M14.8235 3.72119H12.7059V7.95649H4.23529V3.72119H2.11765C0.950023 3.72119 0 4.67122 0 5.83884V22.78C0 23.9477 0.950023 24.8977 2.11765 24.8977H14.8235C15.9912 24.8977 16.9412 23.9477 16.9412 22.78V5.83884C16.9412 4.67122 15.9912 3.72119 14.8235 3.72119ZM5.64706 22.0741H2.82353V20.6624H5.64706V22.0741ZM5.64706 19.2506H2.82353V17.8388H5.64706V19.2506ZM5.64706 16.4271H2.82353V15.0153H5.64706V16.4271ZM9.88235 22.0741H7.05882V20.6624H9.88235V22.0741ZM9.88235 19.2506H7.05882V17.8388H9.88235V19.2506ZM9.88235 16.4271H7.05882V15.0153H9.88235V16.4271ZM14.1176 22.0741H11.2941V20.6624H14.1176V22.0741ZM14.1176 19.2506H11.2941V17.8388H14.1176V19.2506ZM14.1176 16.4271H11.2941V15.0153H14.1176V16.4271ZM14.1176 13.6035H2.82353V9.36825H14.1176V13.6035Z" fill="url(#paint3_linear_167_4973)"/>
<path d="M18.3535 9.36816H24.0006V12.1917H18.3535V9.36816Z" fill="black"/>
<path d="M18.3535 9.36816H24.0006V12.1917H18.3535V9.36816Z" fill="url(#paint4_linear_167_4973)"/>
<defs>
<linearGradient id="paint0_linear_167_4973" x1="20.3061" y1="8.32831" x2="10.4575" y2="15.7593" gradientUnits="userSpaceOnUse">
<stop stop-color="#E2335F"/>
<stop offset="1" stop-color="#792F6C"/>
</linearGradient>
<linearGradient id="paint1_linear_167_4973" x1="7.59907" y1="-3.7921" x2="-1.38388" y2="3.83299" gradientUnits="userSpaceOnUse">
<stop stop-color="#E2335F"/>
<stop offset="1" stop-color="#792F6C"/>
</linearGradient>
<linearGradient id="paint2_linear_167_4973" x1="7.16326" y1="9.60703" x2="6.30268" y2="13.99" gradientUnits="userSpaceOnUse">
<stop stop-color="#E2335F"/>
<stop offset="1" stop-color="#792F6C"/>
</linearGradient>
<linearGradient id="paint3_linear_167_4973" x1="5.85777" y1="-13.8628" x2="-25.8752" y2="7.68613" gradientUnits="userSpaceOnUse">
<stop stop-color="#E2335F"/>
<stop offset="1" stop-color="#792F6C"/>
</linearGradient>
<linearGradient id="paint4_linear_167_4973" x1="20.3061" y1="7.02363" x2="16.3249" y2="13.7824" gradientUnits="userSpaceOnUse">
<stop stop-color="#E2335F"/>
<stop offset="1" stop-color="#792F6C"/>
</linearGradient>
</defs>
</svg>
