<svg width="24" height="24" viewBox="0 0 24 24" fill="none" xmlns="http://www.w3.org/2000/svg">
<path d="M8.19959 14.196C8.76422 14.196 9.38575 14.2511 9.95313 14.3554V12.6557H14.0869V15.6891C14.5733 15.8677 14.9284 16.0603 15.2617 16.3025C15.8937 16.7616 16.241 17.3642 16.2619 18.0252C17.0663 17.8351 17.8042 17.5129 18.4426 17.0739C18.6733 16.9153 18.9502 16.7765 19.1123 16.6575V11.9366L12.0008 3.99023L4.76562 11.9845V14.8414C5.25195 14.7182 5.69516 14.5856 6.20889 14.4456C6.81647 14.28 7.49077 14.196 8.19959 14.196Z" fill="url(#paint0_linear_167_4745)"/>
<path d="M12.0326 2.05174L20.0719 11.0347H21.9054L12.0164 0L7.92617 4.50438V2.68607H4.92714V7.81806L2.04297 11.0347H3.90261L12.0326 2.05174Z" fill="url(#paint1_linear_167_4745)"/>
<path d="M21.0007 17.421C20.5553 17.421 19.9559 17.6187 19.194 18.1424C17.8013 19.0998 16.0965 19.5213 14.5388 19.5213C13.2725 19.5213 12.1035 19.2429 11.278 18.7476C10.869 18.5022 10.8702 18.4202 11.1074 18.4202C11.5839 18.4202 13.0125 18.7508 13.9807 18.7508C14.4572 18.7508 14.822 18.6708 14.9074 18.432C15.3019 17.3274 13.7725 16.9717 12.1734 16.3245C11.0026 15.8505 9.57372 15.4928 8.21297 15.4927C7.64567 15.4927 7.08517 15.5548 6.56496 15.6967C4.20295 16.3407 2.49609 16.8258 2.00977 16.9833V23.1823C2.98242 22.8246 4.10908 22.4819 4.75023 22.4819C5.92682 22.4819 10.6877 23.9997 13.3834 23.9997C13.7609 23.9997 14.099 23.97 14.3802 23.9021C16.6681 23.3498 20.6402 20.1148 21.7183 19.0104C22.2359 18.4801 22.0312 17.421 21.0007 17.421Z" fill="url(#paint2_linear_167_4745)"/>
<defs>
<linearGradient id="paint0_linear_167_4745" x1="4.76562" y1="11.0077" x2="19.1123" y2="11.0077" gradientUnits="userSpaceOnUse">
<stop stop-color="#E2335F"/>
<stop offset="1" stop-color="#792F6C"/>
</linearGradient>
<linearGradient id="paint1_linear_167_4745" x1="2.04297" y1="5.51736" x2="21.9054" y2="5.51736" gradientUnits="userSpaceOnUse">
<stop stop-color="#E2335F"/>
<stop offset="1" stop-color="#792F6C"/>
</linearGradient>
<linearGradient id="paint2_linear_167_4745" x1="2.00977" y1="19.7462" x2="21.9919" y2="19.7462" gradientUnits="userSpaceOnUse">
<stop stop-color="#E2335F"/>
<stop offset="1" stop-color="#792F6C"/>
</linearGradient>
</defs>
</svg>
