<svg width="24" height="24" viewBox="0 0 24 24" fill="none" xmlns="http://www.w3.org/2000/svg">
<path fill-rule="evenodd" clip-rule="evenodd" d="M1.39386 18.8955H11.2542C11.384 19.5476 11.616 20.1627 11.9326 20.7237H1.39386C1.28234 20.7237 1.19141 20.6328 1.19141 20.5213V19.098C1.19136 18.9865 1.28234 18.8955 1.39386 18.8955ZM3.04072 9.02254V18.1455H5.29719V10.976C5.29719 10.753 5.47911 10.5711 5.70214 10.5711H9.40123C9.62426 10.5711 9.80619 10.753 9.80619 10.976V18.1455H11.1515C11.1399 17.9903 11.134 17.8335 11.134 17.6754C11.134 16.2263 11.6301 14.8932 12.4618 13.8365C12.2987 13.7841 12.1801 13.6309 12.1801 13.4508V10.976C12.1801 10.753 12.362 10.5711 12.5851 10.5711H16.9411C17.1641 10.5711 17.346 10.753 17.346 10.976V11.4634C18.0764 11.4634 18.7774 11.5895 19.4284 11.821V9.02254C19.2636 9.05118 19.0942 9.06613 18.9213 9.06613C17.8548 9.06613 16.879 8.49093 16.3591 7.5659C15.8391 8.49093 14.8633 9.06613 13.7968 9.06613C12.7303 9.06613 11.7545 8.49093 11.2346 7.5659C10.7147 8.49093 9.73883 9.06613 8.67233 9.06613C7.60583 9.06613 6.63003 8.49093 6.11009 7.5659C5.59016 8.49093 4.61431 9.06613 3.54781 9.06613C3.37484 9.06613 3.20544 9.05118 3.04072 9.02254ZM17.346 12.2134C14.3294 12.2134 11.884 14.6588 11.884 17.6754C11.884 20.6919 14.3294 23.1374 17.346 23.1374C20.3626 23.1374 22.808 20.692 22.808 17.6754C22.808 14.6588 20.3626 12.2134 17.346 12.2134ZM14.8399 15.4099H14.1006C13.8935 15.4099 13.7256 15.242 13.7256 15.0349C13.7256 14.8278 13.8935 14.6599 14.1006 14.6599L15.1291 14.6615C15.2958 14.6613 15.4478 14.7737 15.4909 14.9427L15.6734 15.6531H20.5916C20.8506 15.6531 21.029 15.9091 20.9463 16.1499L20.3954 18.4356C20.2788 18.9197 19.8575 19.2544 19.359 19.2544H16.0368C15.9813 19.2544 15.9345 19.3011 15.9345 19.3567C15.9345 19.4122 15.9813 19.459 16.0368 19.459H20.1232C20.3303 19.459 20.4982 19.6269 20.4982 19.834C20.4982 20.0411 20.3303 20.209 20.1232 20.209H19.9278C20.0318 20.3088 20.0966 20.4491 20.0966 20.6046C20.0966 20.9074 19.8512 21.1528 19.5485 21.1528C19.2457 21.1528 19.0003 20.9074 19.0003 20.6046C19.0003 20.4491 19.0651 20.3087 19.1691 20.209H16.7113C16.8153 20.3088 16.88 20.4491 16.88 20.6046C16.88 20.9074 16.6346 21.1528 16.3319 21.1528C16.0292 21.1528 15.7837 20.9074 15.7837 20.6046C15.7837 20.4471 15.8502 20.3051 15.9566 20.2051C15.5245 20.1645 15.1844 19.7991 15.1844 19.3566C15.1844 19.0325 15.3691 18.7376 15.6575 18.5936C15.385 17.5324 15.1124 16.4712 14.8399 15.4099ZM1.60227 5.7539H5.82195L7.11111 0.862305H4.18208C4.15939 0.862305 4.15105 0.865352 4.14041 0.886164L1.60227 5.7539ZM6.59577 5.7539L7.88487 0.862305H10.8595V5.7539H6.59577ZM11.6095 5.7539H15.8733L14.5842 0.862305H11.6095V5.7539ZM18.287 0.862305C18.3225 0.862305 18.3283 0.885602 18.3429 0.913586L20.8668 5.7539H16.6471L15.358 0.862305H18.287ZM21.0765 6.5039C20.8959 7.54954 19.985 8.31613 18.9213 8.31613C17.8575 8.31613 16.9467 7.54954 16.7661 6.5039H21.0765ZM15.952 6.5039C15.7714 7.54959 14.8605 8.31613 13.7968 8.31613C12.7331 8.31613 11.8222 7.54954 11.6416 6.5039H15.952ZM10.8275 6.5039C10.6468 7.54959 9.73597 8.31613 8.67228 8.31613C7.60855 8.31613 6.69777 7.54959 6.51711 6.5039H10.8275ZM5.70298 6.5039C5.52238 7.54959 4.6115 8.31613 3.54777 8.31613C2.48408 8.31613 1.57316 7.54954 1.39255 6.5039H5.70298Z" fill="url(#paint0_linear_167_4754)"/>
<defs>
<linearGradient id="paint0_linear_167_4754" x1="1.19141" y1="11.9999" x2="22.808" y2="11.9999" gradientUnits="userSpaceOnUse">
<stop stop-color="#E2335F"/>
<stop offset="1" stop-color="#792F6C"/>
</linearGradient>
</defs>
</svg>
