<svg width="24" height="24" viewBox="0 0 24 24" fill="none" xmlns="http://www.w3.org/2000/svg">
<path d="M23.0625 12.834C23.0633 12.0293 22.839 11.2404 22.4148 10.5566C21.9907 9.8727 21.3837 9.32117 20.6624 8.96431C19.9411 8.60746 19.1344 8.45953 18.3335 8.53725C17.5325 8.61498 16.7693 8.91525 16.1301 9.40412C15.4909 9.893 15.0013 10.551 14.7165 11.3036C14.4318 12.0563 14.3633 12.8736 14.5188 13.6631C14.6743 14.4526 15.0477 15.1829 15.5966 15.7713C16.1455 16.3597 16.8482 16.7828 17.625 16.9928V18.7515C17.5113 18.8166 17.4168 18.9105 17.351 19.0237C17.2852 19.137 17.2503 19.2655 17.25 19.3965V22.0215C17.2509 22.3196 17.3697 22.6052 17.5805 22.816C17.7913 23.0268 18.0769 23.1456 18.375 23.1465H19.125C19.4231 23.1456 19.7087 23.0268 19.9195 22.816C20.1303 22.6052 20.2491 22.3196 20.25 22.0215V19.3965C20.2497 19.2655 20.2148 19.137 20.149 19.0237C20.0832 18.9105 19.9887 18.8166 19.875 18.7515V16.9928C20.7887 16.7448 21.5956 16.2035 22.1715 15.4521C22.7475 14.7006 23.0605 13.7808 23.0625 12.834ZM19.125 18.6465H18.375V17.1278C18.6245 17.1503 18.8755 17.1503 19.125 17.1278V18.6465ZM18.75 14.8965C18.3421 14.8965 17.9433 14.7756 17.6041 14.5489C17.265 14.3223 17.0006 14.0002 16.8445 13.6233C16.6884 13.2464 16.6475 12.8317 16.7271 12.4316C16.8067 12.0316 17.0031 11.6641 17.2916 11.3756C17.58 11.0872 17.9475 10.8907 18.3476 10.8111C18.7477 10.7316 19.1624 10.7724 19.5393 10.9285C19.9162 11.0846 20.2383 11.349 20.4649 11.6882C20.6915 12.0273 20.8125 12.4261 20.8125 12.834C20.8115 13.3807 20.5939 13.9047 20.2073 14.2913C19.8207 14.6779 19.2967 14.8955 18.75 14.8965Z" fill="black"/>
<path d="M23.0625 12.834C23.0633 12.0293 22.839 11.2404 22.4148 10.5566C21.9907 9.8727 21.3837 9.32117 20.6624 8.96431C19.9411 8.60746 19.1344 8.45953 18.3335 8.53725C17.5325 8.61498 16.7693 8.91525 16.1301 9.40412C15.4909 9.893 15.0013 10.551 14.7165 11.3036C14.4318 12.0563 14.3633 12.8736 14.5188 13.6631C14.6743 14.4526 15.0477 15.1829 15.5966 15.7713C16.1455 16.3597 16.8482 16.7828 17.625 16.9928V18.7515C17.5113 18.8166 17.4168 18.9105 17.351 19.0237C17.2852 19.137 17.2503 19.2655 17.25 19.3965V22.0215C17.2509 22.3196 17.3697 22.6052 17.5805 22.816C17.7913 23.0268 18.0769 23.1456 18.375 23.1465H19.125C19.4231 23.1456 19.7087 23.0268 19.9195 22.816C20.1303 22.6052 20.2491 22.3196 20.25 22.0215V19.3965C20.2497 19.2655 20.2148 19.137 20.149 19.0237C20.0832 18.9105 19.9887 18.8166 19.875 18.7515V16.9928C20.7887 16.7448 21.5956 16.2035 22.1715 15.4521C22.7475 14.7006 23.0605 13.7808 23.0625 12.834ZM19.125 18.6465H18.375V17.1278C18.6245 17.1503 18.8755 17.1503 19.125 17.1278V18.6465ZM18.75 14.8965C18.3421 14.8965 17.9433 14.7756 17.6041 14.5489C17.265 14.3223 17.0006 14.0002 16.8445 13.6233C16.6884 13.2464 16.6475 12.8317 16.7271 12.4316C16.8067 12.0316 17.0031 11.6641 17.2916 11.3756C17.58 11.0872 17.9475 10.8907 18.3476 10.8111C18.7477 10.7316 19.1624 10.7724 19.5393 10.9285C19.9162 11.0846 20.2383 11.349 20.4649 11.6882C20.6915 12.0273 20.8125 12.4261 20.8125 12.834C20.8115 13.3807 20.5939 13.9047 20.2073 14.2913C19.8207 14.6779 19.2967 14.8955 18.75 14.8965Z" fill="url(#paint0_linear_167_4941)"/>
<path d="M22.86 1.13405L20.1825 0.601551C20.0407 0.573125 19.8938 0.586284 19.7593 0.639444C19.6248 0.692603 19.5086 0.783496 19.4246 0.90118C19.3406 1.01886 19.2924 1.15832 19.2858 1.30276C19.2792 1.4472 19.3146 1.59046 19.3875 1.7153L19.6425 2.15405L14.5688 4.3028L13.3425 1.8503C13.1707 1.5044 12.8719 1.23829 12.5085 1.1076C12.1451 0.976908 11.7452 0.991761 11.3925 1.14905L1.43625 5.35655C1.23232 5.44292 1.05842 5.58756 0.936345 5.77235C0.814268 5.95713 0.749446 6.17383 0.750004 6.3953V7.37405C0.749975 7.56086 0.796469 7.74474 0.885287 7.90909C0.974106 8.07344 1.10245 8.21308 1.25874 8.31542C1.41504 8.41775 1.59435 8.47955 1.7805 8.49525C1.96666 8.51094 2.15379 8.48003 2.325 8.4053L11.2988 4.4753L12.5325 6.9428C12.7104 7.29224 13.0173 7.55881 13.3882 7.68617C13.759 7.81353 14.1649 7.79171 14.52 7.6253L20.9663 4.44905L21.1838 4.8278C21.256 4.95247 21.3625 5.05378 21.4906 5.11965C21.6188 5.18552 21.7631 5.21319 21.9065 5.19936C22.0499 5.18553 22.1864 5.13079 22.2996 5.04165C22.4127 4.95251 22.4979 4.83273 22.545 4.69655L23.4263 2.10905C23.4594 2.00798 23.4712 1.90112 23.4609 1.79525C23.4505 1.68938 23.4183 1.58681 23.3663 1.49405C23.3125 1.40136 23.2395 1.32127 23.1521 1.25917C23.0648 1.19708 22.9652 1.15441 22.86 1.13405Z" fill="black"/>
<path d="M22.86 1.13405L20.1825 0.601551C20.0407 0.573125 19.8938 0.586284 19.7593 0.639444C19.6248 0.692603 19.5086 0.783496 19.4246 0.90118C19.3406 1.01886 19.2924 1.15832 19.2858 1.30276C19.2792 1.4472 19.3146 1.59046 19.3875 1.7153L19.6425 2.15405L14.5688 4.3028L13.3425 1.8503C13.1707 1.5044 12.8719 1.23829 12.5085 1.1076C12.1451 0.976908 11.7452 0.991761 11.3925 1.14905L1.43625 5.35655C1.23232 5.44292 1.05842 5.58756 0.936345 5.77235C0.814268 5.95713 0.749446 6.17383 0.750004 6.3953V7.37405C0.749975 7.56086 0.796469 7.74474 0.885287 7.90909C0.974106 8.07344 1.10245 8.21308 1.25874 8.31542C1.41504 8.41775 1.59435 8.47955 1.7805 8.49525C1.96666 8.51094 2.15379 8.48003 2.325 8.4053L11.2988 4.4753L12.5325 6.9428C12.7104 7.29224 13.0173 7.55881 13.3882 7.68617C13.759 7.81353 14.1649 7.79171 14.52 7.6253L20.9663 4.44905L21.1838 4.8278C21.256 4.95247 21.3625 5.05378 21.4906 5.11965C21.6188 5.18552 21.7631 5.21319 21.9065 5.19936C22.0499 5.18553 22.1864 5.13079 22.2996 5.04165C22.4127 4.95251 22.4979 4.83273 22.545 4.69655L23.4263 2.10905C23.4594 2.00798 23.4712 1.90112 23.4609 1.79525C23.4505 1.68938 23.4183 1.58681 23.3663 1.49405C23.3125 1.40136 23.2395 1.32127 23.1521 1.25917C23.0648 1.19708 22.9652 1.15441 22.86 1.13405Z" fill="url(#paint1_linear_167_4941)"/>
<path d="M4.13555 14.897H3.1793C3.13951 14.897 3.10136 14.8812 3.07323 14.853C3.0451 14.8249 3.0293 14.7868 3.0293 14.747C3.0293 14.4486 2.91077 14.1625 2.69979 13.9515C2.48881 13.7405 2.20267 13.622 1.9043 13.622C1.60593 13.622 1.31978 13.7405 1.1088 13.9515C0.897823 14.1625 0.779297 14.4486 0.779297 14.747C0.779893 15.3833 1.03294 15.9934 1.4829 16.4434C1.93286 16.8933 2.54296 17.1464 3.1793 17.147H4.13555C4.8566 17.147 5.54813 16.8605 6.05799 16.3507C6.56786 15.8408 6.8543 15.1493 6.8543 14.4282C6.8543 13.7072 6.56786 13.0156 6.05799 12.5058C5.54813 11.9959 4.8566 11.7095 4.13555 11.7095H3.49805C3.37373 11.7095 3.2545 11.6601 3.16659 11.5722C3.07868 11.4843 3.0293 11.365 3.0293 11.2407C3.0293 11.1164 3.07868 10.9972 3.16659 10.9093C3.2545 10.8214 3.37373 10.772 3.49805 10.772H4.4543C4.49408 10.772 4.53223 10.7878 4.56036 10.8159C4.58849 10.844 4.6043 10.8822 4.6043 10.922C4.6043 11.2203 4.72282 11.5065 4.9338 11.7175C5.14478 11.9284 5.43093 12.047 5.7293 12.047C6.02767 12.047 6.31381 11.9284 6.52479 11.7175C6.73577 11.5065 6.8543 11.2203 6.8543 10.922C6.8537 10.2856 6.60065 9.67553 6.15069 9.22557C5.70074 8.77562 5.09063 8.52257 4.4543 8.52197H3.49805C2.77699 8.52197 2.08546 8.80841 1.5756 9.31828C1.06574 9.82814 0.779297 10.5197 0.779297 11.2407C0.779297 11.9618 1.06574 12.6533 1.5756 13.1632C2.08546 13.673 2.77699 13.9595 3.49805 13.9595H4.13555C4.25987 13.9595 4.3791 14.0089 4.467 14.0968C4.55491 14.1847 4.6043 14.3039 4.6043 14.4282C4.6043 14.5525 4.55491 14.6718 4.467 14.7597C4.3791 14.8476 4.25987 14.897 4.13555 14.897Z" fill="black"/>
<path d="M4.13555 14.897H3.1793C3.13951 14.897 3.10136 14.8812 3.07323 14.853C3.0451 14.8249 3.0293 14.7868 3.0293 14.747C3.0293 14.4486 2.91077 14.1625 2.69979 13.9515C2.48881 13.7405 2.20267 13.622 1.9043 13.622C1.60593 13.622 1.31978 13.7405 1.1088 13.9515C0.897823 14.1625 0.779297 14.4486 0.779297 14.747C0.779893 15.3833 1.03294 15.9934 1.4829 16.4434C1.93286 16.8933 2.54296 17.1464 3.1793 17.147H4.13555C4.8566 17.147 5.54813 16.8605 6.05799 16.3507C6.56786 15.8408 6.8543 15.1493 6.8543 14.4282C6.8543 13.7072 6.56786 13.0156 6.05799 12.5058C5.54813 11.9959 4.8566 11.7095 4.13555 11.7095H3.49805C3.37373 11.7095 3.2545 11.6601 3.16659 11.5722C3.07868 11.4843 3.0293 11.365 3.0293 11.2407C3.0293 11.1164 3.07868 10.9972 3.16659 10.9093C3.2545 10.8214 3.37373 10.772 3.49805 10.772H4.4543C4.49408 10.772 4.53223 10.7878 4.56036 10.8159C4.58849 10.844 4.6043 10.8822 4.6043 10.922C4.6043 11.2203 4.72282 11.5065 4.9338 11.7175C5.14478 11.9284 5.43093 12.047 5.7293 12.047C6.02767 12.047 6.31381 11.9284 6.52479 11.7175C6.73577 11.5065 6.8543 11.2203 6.8543 10.922C6.8537 10.2856 6.60065 9.67553 6.15069 9.22557C5.70074 8.77562 5.09063 8.52257 4.4543 8.52197H3.49805C2.77699 8.52197 2.08546 8.80841 1.5756 9.31828C1.06574 9.82814 0.779297 10.5197 0.779297 11.2407C0.779297 11.9618 1.06574 12.6533 1.5756 13.1632C2.08546 13.673 2.77699 13.9595 3.49805 13.9595H4.13555C4.25987 13.9595 4.3791 14.0089 4.467 14.0968C4.55491 14.1847 4.6043 14.3039 4.6043 14.4282C4.6043 14.5525 4.55491 14.6718 4.467 14.7597C4.3791 14.8476 4.25987 14.897 4.13555 14.897Z" fill="url(#paint2_linear_167_4941)"/>
<path d="M9.89726 10.8395H12.3123C12.6145 10.8318 12.9017 10.7063 13.1128 10.4899C13.3238 10.2734 13.4419 9.98304 13.4419 9.68072C13.4419 9.37841 13.3238 9.08806 13.1128 8.87159C12.9017 8.65512 12.6145 8.52966 12.3123 8.52197H9.89726C9.26763 8.53469 8.66867 8.79634 8.23152 9.24966C7.79436 9.70298 7.55462 10.311 7.56476 10.9407V14.7282C7.55462 15.3579 7.79436 15.966 8.23152 16.4193C8.66867 16.8726 9.26763 17.1343 9.89726 17.147H12.3123C12.6145 17.1393 12.9017 17.0138 13.1128 16.7974C13.3238 16.5809 13.4419 16.2905 13.4419 15.9882C13.4419 15.6859 13.3238 15.3956 13.1128 15.1791C12.9017 14.9626 12.6145 14.8372 12.3123 14.8295H9.89726C9.873 14.8267 9.85079 14.8146 9.83537 14.7957C9.81994 14.7767 9.81255 14.7525 9.81476 14.7282V13.9932H12.3123C12.6145 13.9855 12.9017 13.8601 13.1128 13.6436C13.3238 13.4271 13.4419 13.1368 13.4419 12.8345C13.4419 12.5322 13.3238 12.2418 13.1128 12.0253C12.9017 11.8089 12.6145 11.6834 12.3123 11.6757H9.81476V10.9407C9.81255 10.9164 9.81994 10.8922 9.83537 10.8733C9.85079 10.8543 9.873 10.8422 9.89726 10.8395Z" fill="black"/>
<path d="M9.89726 10.8395H12.3123C12.6145 10.8318 12.9017 10.7063 13.1128 10.4899C13.3238 10.2734 13.4419 9.98304 13.4419 9.68072C13.4419 9.37841 13.3238 9.08806 13.1128 8.87159C12.9017 8.65512 12.6145 8.52966 12.3123 8.52197H9.89726C9.26763 8.53469 8.66867 8.79634 8.23152 9.24966C7.79436 9.70298 7.55462 10.311 7.56476 10.9407V14.7282C7.55462 15.3579 7.79436 15.966 8.23152 16.4193C8.66867 16.8726 9.26763 17.1343 9.89726 17.147H12.3123C12.6145 17.1393 12.9017 17.0138 13.1128 16.7974C13.3238 16.5809 13.4419 16.2905 13.4419 15.9882C13.4419 15.6859 13.3238 15.3956 13.1128 15.1791C12.9017 14.9626 12.6145 14.8372 12.3123 14.8295H9.89726C9.873 14.8267 9.85079 14.8146 9.83537 14.7957C9.81994 14.7767 9.81255 14.7525 9.81476 14.7282V13.9932H12.3123C12.6145 13.9855 12.9017 13.8601 13.1128 13.6436C13.3238 13.4271 13.4419 13.1368 13.4419 12.8345C13.4419 12.5322 13.3238 12.2418 13.1128 12.0253C12.9017 11.8089 12.6145 11.6834 12.3123 11.6757H9.81476V10.9407C9.81255 10.9164 9.81994 10.8922 9.83537 10.8733C9.85079 10.8543 9.873 10.8422 9.89726 10.8395Z" fill="url(#paint3_linear_167_4941)"/>
<defs>
<linearGradient id="paint0_linear_167_4941" x1="17.4198" y1="-3.63056" x2="-1.45809" y2="5.8168" gradientUnits="userSpaceOnUse">
<stop stop-color="#E2335F"/>
<stop offset="1" stop-color="#792F6C"/>
</linearGradient>
<linearGradient id="paint1_linear_167_4941" x1="8.60402" y1="-5.98313" x2="-0.356191" y2="15.8514" gradientUnits="userSpaceOnUse">
<stop stop-color="#E2335F"/>
<stop offset="1" stop-color="#792F6C"/>
</linearGradient>
<linearGradient id="paint2_linear_167_4941" x1="2.87986" y1="1.36014" x2="-9.36852" y2="8.68318" gradientUnits="userSpaceOnUse">
<stop stop-color="#E2335F"/>
<stop offset="1" stop-color="#792F6C"/>
</linearGradient>
<linearGradient id="paint3_linear_167_4941" x1="9.59671" y1="1.36014" x2="-2.45644" y2="8.33212" gradientUnits="userSpaceOnUse">
<stop stop-color="#E2335F"/>
<stop offset="1" stop-color="#792F6C"/>
</linearGradient>
</defs>
</svg>
