<svg width="24" height="24" viewBox="0 0 24 24" fill="none" xmlns="http://www.w3.org/2000/svg">
<path d="M2.5293 20.2375C3.32679 20.9695 4.32352 21.4486 5.39336 21.614C5.51008 21.0269 5.48849 20.4208 5.33032 19.8435C5.17214 19.2662 4.88172 18.7337 4.48206 18.2881L2.5293 20.2375Z" fill="url(#paint0_linear_167_4763)"/>
<path d="M12.6138 19.416C12.2993 19.416 11.9918 19.5093 11.7302 19.6841C11.4687 19.8588 11.2649 20.1072 11.1445 20.3978C11.0241 20.6885 10.9926 21.0082 11.054 21.3167C11.1154 21.6253 11.2669 21.9086 11.4893 22.1311C11.7117 22.3535 11.9951 22.5049 12.3036 22.5663C12.6121 22.6277 12.9319 22.5962 13.2225 22.4758C13.5131 22.3554 13.7615 22.1516 13.9363 21.89C14.111 21.6285 14.2043 21.321 14.2043 21.0064C14.2038 20.5848 14.0361 20.1805 13.7379 19.8823C13.4398 19.5842 13.0355 19.4165 12.6138 19.416Z" fill="url(#paint1_linear_167_4763)"/>
<path d="M11.733 15.8025C11.4678 15.8516 11.1986 15.8764 10.9288 15.8765C9.85417 15.8766 8.81782 15.4774 8.02097 14.7563L6.58008 16.1947L10.2984 19.9065C11.233 18.8968 11.7505 17.5706 11.7469 16.1948C11.7469 16.0633 11.7423 15.9325 11.733 15.8025Z" fill="url(#paint2_linear_167_4763)"/>
<path d="M4.81445 17.9568C5.25966 18.4549 5.58534 19.0479 5.76669 19.6909C5.94804 20.3338 5.98027 21.0096 5.86094 21.6669C6.60643 21.7203 7.35498 21.6212 8.06082 21.3754C8.76666 21.1296 9.41494 20.7424 9.96602 20.2375L6.2477 16.5259L4.81445 17.9568Z" fill="url(#paint3_linear_167_4763)"/>
<path d="M16.1237 21.819C16.1099 21.8285 16.0981 21.8406 16.0889 21.8547C16.0798 21.8688 16.0735 21.8845 16.0705 21.901C16.0674 21.9175 16.0677 21.9345 16.0712 21.9509C16.0747 21.9673 16.0814 21.9828 16.0909 21.9967C16.2113 22.1703 16.3955 22.2893 16.6033 22.3274C16.8111 22.3656 17.0256 22.32 17.1998 22.2004L17.9395 21.6918C18.0401 21.6223 18.1233 21.5306 18.1828 21.4238L17.3526 20.9741L16.1237 21.819Z" fill="url(#paint4_linear_167_4763)"/>
<path d="M16.8903 20.7237L15.5488 19.9971L16.3206 21.1155L16.8903 20.7237Z" fill="url(#paint5_linear_167_4763)"/>
<path d="M20.6337 14.7623L15.2735 15.1085L15.0312 16.2381L20.3907 16.6316C20.5336 16.6417 20.6759 16.6058 20.797 16.5292L22.19 15.6412L21.2392 14.9371C21.0649 14.808 20.85 14.746 20.6337 14.7623Z" fill="url(#paint6_linear_167_4763)"/>
<path d="M21.6946 4.0419C21.4634 3.60151 21.1141 3.23428 20.6858 2.98145L20.3418 3.72629L21.5777 4.29488L21.6946 4.0419Z" fill="url(#paint7_linear_167_4763)"/>
<path d="M19.7612 19.6427L14.6945 17.8057L14.4648 18.8767L19.1734 21.4271C19.3769 21.5377 19.6151 21.5656 19.8387 21.505L21.0006 21.1923L20.0775 19.8841C19.9993 19.773 19.8889 19.6887 19.7612 19.6427Z" fill="url(#paint8_linear_167_4763)"/>
<path d="M20.4366 17.1021C20.4094 17.1021 20.3822 17.1011 20.355 17.0991L14.9307 16.7007L14.793 17.3429L19.9202 19.2018C19.9701 19.2201 20.0186 19.2418 20.0655 19.2668L21.9997 18.4495L20.6066 17.0888C20.5504 17.0975 20.4935 17.1019 20.4366 17.1021Z" fill="url(#paint9_linear_167_4763)"/>
<path d="M13.334 18.5732L14.1152 14.9177L14.802 15.0644L14.0208 18.72L13.334 18.5732Z" fill="url(#paint10_linear_167_4763)"/>
<path d="M15.5501 14.6212L16.4815 12.604C16.3379 12.5577 16.1973 12.5029 16.0602 12.44C15.9232 12.3766 15.7899 12.3053 15.6611 12.2266L14.5918 14.5422L15.098 14.6504L15.5501 14.6212Z" fill="url(#paint11_linear_167_4763)"/>
<path d="M13.0055 14.3962L12.9429 14.3055C12.7045 13.9606 12.6023 13.5395 12.6561 13.1236C12.695 12.8224 12.621 12.5175 12.4483 12.2677L6.26504 3.30778C6.07119 3.02811 5.77448 2.83659 5.4398 2.7751C5.10512 2.71361 4.7597 2.78716 4.4791 2.97966C4.34037 3.07492 4.2218 3.19662 4.13016 3.33778C4.03853 3.47893 3.97564 3.63678 3.94509 3.80227C3.91454 3.96777 3.91693 4.13766 3.95214 4.30223C3.98734 4.4668 4.05465 4.62281 4.15023 4.76133L8.14398 10.5482C9.11236 10.8719 9.98145 11.4387 10.668 12.1944C11.3546 12.9501 11.8357 13.8694 12.0652 14.8643C12.3269 14.6209 12.6535 14.4583 13.0055 14.3962ZM4.96651 4.34925C4.94089 4.36631 4.91216 4.37815 4.88196 4.38411C4.85177 4.39006 4.82069 4.39001 4.79051 4.38396C4.76034 4.3779 4.73165 4.36596 4.70608 4.34882C4.68052 4.33168 4.65858 4.30967 4.64153 4.28405L4.58818 4.20356C4.57112 4.17794 4.55928 4.14921 4.55333 4.11902C4.54737 4.08882 4.54742 4.05774 4.55348 4.02757C4.55953 3.99739 4.57147 3.9687 4.58861 3.94314C4.60576 3.91757 4.62777 3.89564 4.65339 3.87858C4.67901 3.86152 4.70773 3.84968 4.73793 3.84372C4.76813 3.83777 4.7992 3.83782 4.82938 3.84387C4.85956 3.84993 4.88825 3.86187 4.91381 3.87901C4.93938 3.89615 4.96131 3.91816 4.97837 3.94378L5.0319 4.02427C5.04895 4.0499 5.06078 4.07864 5.06672 4.10884C5.07266 4.13905 5.0726 4.17012 5.06652 4.2003C5.06045 4.23048 5.04849 4.25917 5.03133 4.28472C5.01417 4.31028 4.99215 4.33221 4.96651 4.34925ZM7.4462 8.0745C7.42058 8.09156 7.39185 8.1034 7.36165 8.10936C7.33145 8.11531 7.30038 8.11526 7.2702 8.10921C7.24002 8.10315 7.21133 8.09121 7.18577 8.07407C7.16021 8.05693 7.13827 8.03492 7.12121 8.0093L5.1166 4.99781C5.09904 4.9722 5.08674 4.94336 5.08042 4.91296C5.0741 4.88255 5.07388 4.8512 5.07978 4.82071C5.08569 4.79022 5.09759 4.76121 5.1148 4.73536C5.13201 4.70951 5.15418 4.68734 5.18003 4.67014C5.20588 4.65293 5.2349 4.64103 5.26538 4.63514C5.29587 4.62924 5.32723 4.62946 5.35763 4.63579C5.38803 4.64211 5.41688 4.65442 5.44248 4.67199C5.46809 4.68956 5.48995 4.71204 5.50679 4.73812L7.51145 7.74956C7.54589 7.80129 7.55837 7.86459 7.54615 7.92552C7.53393 7.98646 7.49801 8.04004 7.44629 8.0745H7.4462Z" fill="url(#paint12_linear_167_4763)"/>
<path d="M12.869 18.4965L13.6548 14.8331C12.969 14.7625 12.3297 15.059 12.1783 15.5381C12.2022 15.7562 12.2143 15.9755 12.2144 16.1949C12.2151 16.8278 12.1151 17.4567 11.918 18.0581C12.1795 18.4048 12.6113 18.471 12.869 18.4965Z" fill="url(#paint13_linear_167_4763)"/>
<path d="M18.3775 6.85868L17.1416 6.29004L16.668 7.3158L17.9038 7.88445L18.3775 6.85868Z" fill="url(#paint14_linear_167_4763)"/>
<path d="M4.48138 17.6257L5.91491 16.1948L2.1965 12.4829C1.26194 13.4926 0.74443 14.8188 0.748066 16.1947C0.748066 16.3243 0.752582 16.4531 0.761613 16.5812C1.42025 16.4614 2.09752 16.4932 2.74203 16.6742C3.38655 16.8552 3.98137 17.1806 4.48138 17.6257Z" fill="url(#paint15_linear_167_4763)"/>
<path d="M0.814453 17.0483C0.980581 18.1173 1.46193 19.1124 2.19689 19.9063L4.14984 17.9568C3.70224 17.5574 3.16796 17.2674 2.58914 17.1098C2.01032 16.9521 1.40279 16.9311 0.814453 17.0483Z" fill="url(#paint16_linear_167_4763)"/>
<path d="M7.68873 14.4252C7.23991 13.931 6.91169 13.3396 6.72985 12.6972C6.548 12.0549 6.51747 11.3792 6.64066 10.7231C6.50984 10.7137 6.37883 10.709 6.24761 10.709C4.87105 10.7066 3.54388 11.2217 2.5293 12.152L6.24761 15.8636L7.68873 14.4252Z" fill="url(#paint17_linear_167_4763)"/>
<path d="M9.96542 12.152C9.16945 11.4213 8.17494 10.9426 7.10731 10.7764C6.99237 11.3622 7.01501 11.9668 7.17344 12.5424C7.33188 13.1181 7.62179 13.6491 8.02034 14.0936L9.96542 12.152Z" fill="url(#paint18_linear_167_4763)"/>
<path d="M11.6783 15.3351C11.5114 14.2682 11.0304 13.2753 10.2969 12.4829L8.35156 14.4246C8.79811 14.823 9.33087 15.1125 9.90805 15.2704C10.4852 15.4284 11.0912 15.4505 11.6783 15.3351Z" fill="url(#paint19_linear_167_4763)"/>
<path d="M15.3257 9.10496L15.3757 8.99649L15.2793 8.95215C15.2937 9.00352 15.3092 9.05446 15.3257 9.10496Z" fill="url(#paint20_linear_167_4763)"/>
<path d="M19.0742 10.8318C19.1238 10.8113 19.1733 10.7896 19.2227 10.7666L19.1251 10.7217L19.0742 10.8318Z" fill="url(#paint21_linear_167_4763)"/>
<path d="M15.1671 7.14014C15.112 7.5523 15.111 7.9699 15.1641 8.38232L15.5738 8.57081L16.0472 7.54504L15.1671 7.14014Z" fill="url(#paint22_linear_167_4763)"/>
<path d="M17.0078 10.9437C17.4791 11.1036 17.9854 11.1301 18.4708 11.0204L18.6993 10.5256L17.4634 9.95703L17.0078 10.9437Z" fill="url(#paint23_linear_167_4763)"/>
<path d="M15.8021 9.19238L15.5742 9.68598C15.8051 10.1266 16.1543 10.4942 16.5825 10.7473L17.038 9.76098L15.8021 9.19238Z" fill="url(#paint24_linear_167_4763)"/>
<path d="M19.3223 10.2963L19.7313 10.4845C20.0794 10.2563 20.3967 9.98429 20.6754 9.67518L19.7959 9.27051L19.3223 10.2963Z" fill="url(#paint25_linear_167_4763)"/>
<path d="M18.1338 8.50586L17.6602 9.53162L18.896 10.1003L19.3697 9.0745L18.1338 8.50586Z" fill="url(#paint26_linear_167_4763)"/>
<path d="M21.0124 1.71582C20.5576 1.50771 20.0629 1.40109 19.5628 1.40336C17.6995 1.40336 15.7134 2.80572 14.6792 5.04554C13.9348 6.65753 13.8124 8.407 14.3431 9.84554C14.7178 10.8608 15.3794 11.6107 16.2565 12.0142C18.4377 13.0179 21.2786 11.5239 22.5897 8.68454C23.334 7.07251 23.4565 5.32309 22.9258 3.88454C22.5511 2.86928 21.8895 2.11932 21.0124 1.71582ZM22.0459 8.43489C21.16 10.3532 19.4548 11.5532 17.8514 11.5532C17.418 11.5551 16.9893 11.4627 16.5951 11.2823C15.832 10.9312 15.2576 10.282 14.934 9.40511C14.4799 8.17436 14.5851 6.67628 15.223 5.29497C16.3476 2.85957 18.793 1.58218 20.6738 2.44754C21.4369 2.79864 22.0113 3.44776 22.3349 4.3247C22.7891 5.55545 22.6837 7.05353 22.0459 8.43484V8.43489Z" fill="url(#paint27_linear_167_4763)"/>
<path d="M21.8055 4.91602L21.332 5.94183L22.1308 6.30933C22.1647 5.8808 22.1376 5.44965 22.0505 5.0287L21.8055 4.91602Z" fill="url(#paint28_linear_167_4763)"/>
<path d="M20.6621 7.39344L21.7637 7.90021C21.9031 7.54412 22.0061 7.17483 22.0712 6.79799L21.1358 6.36768L20.6621 7.39344Z" fill="url(#paint29_linear_167_4763)"/>
<path d="M19.9922 8.84487L20.9847 9.30148C21.2136 8.99807 21.412 8.67275 21.5768 8.33027L20.4659 7.81934L19.9922 8.84487Z" fill="url(#paint30_linear_167_4763)"/>
<path d="M19.0494 5.40702L17.8135 4.83838L17.3398 5.86414L18.5757 6.43279L19.0494 5.40702Z" fill="url(#paint31_linear_167_4763)"/>
<path d="M21.3794 4.71996L20.1435 4.15137L19.6699 5.17713L20.9058 5.74573L21.3794 4.71996Z" fill="url(#paint32_linear_167_4763)"/>
<path d="M15.998 8.76698L17.2339 9.33557L17.7075 8.3098L16.4717 7.74121L15.998 8.76698Z" fill="url(#paint33_linear_167_4763)"/>
<path d="M16.7163 6.09352L15.6067 5.58301C15.4528 5.93032 15.3333 6.29191 15.25 6.66259L16.2427 7.11929L16.7163 6.09352Z" fill="url(#paint34_linear_167_4763)"/>
<path d="M20.7095 6.17162L19.4736 5.60303L19 6.62879L20.2358 7.19739L20.7095 6.17162Z" fill="url(#paint35_linear_167_4763)"/>
<path d="M20.2593 2.78567C19.986 2.69055 19.6985 2.64234 19.4091 2.64307C19.203 2.64384 18.9974 2.66619 18.7959 2.70978L18.6797 2.96154L19.9155 3.53014L20.2593 2.78567Z" fill="url(#paint36_linear_167_4763)"/>
<path d="M20.0396 7.62279L18.8037 7.0542L18.3301 8.07997L19.5659 8.64856L20.0396 7.62279Z" fill="url(#paint37_linear_167_4763)"/>
<path d="M17.3862 4.6424L16.4545 4.21387C16.2089 4.50745 15.9939 4.82518 15.8125 5.1622L16.9126 5.66845L17.3862 4.6424Z" fill="url(#paint38_linear_167_4763)"/>
<path d="M18.0573 3.19111L17.8146 3.07959C17.4386 3.28798 17.0934 3.54776 16.7891 3.85143L17.5836 4.21706L18.0573 3.19111Z" fill="url(#paint39_linear_167_4763)"/>
<path d="M19.2456 4.98157L19.7192 3.9558L18.4834 3.38721L18.0098 4.41297L19.2456 4.98157Z" fill="url(#paint40_linear_167_4763)"/>
<defs>
<linearGradient id="paint0_linear_167_4763" x1="2.5293" y1="19.951" x2="5.46737" y2="19.951" gradientUnits="userSpaceOnUse">
<stop stop-color="#E2335F"/>
<stop offset="1" stop-color="#792F6C"/>
</linearGradient>
<linearGradient id="paint1_linear_167_4763" x1="11.0234" y1="21.0064" x2="14.2043" y2="21.0064" gradientUnits="userSpaceOnUse">
<stop stop-color="#E2335F"/>
<stop offset="1" stop-color="#792F6C"/>
</linearGradient>
<linearGradient id="paint2_linear_167_4763" x1="6.58008" y1="17.3314" x2="11.7469" y2="17.3314" gradientUnits="userSpaceOnUse">
<stop stop-color="#E2335F"/>
<stop offset="1" stop-color="#792F6C"/>
</linearGradient>
<linearGradient id="paint3_linear_167_4763" x1="4.81445" y1="19.1034" x2="9.96602" y2="19.1034" gradientUnits="userSpaceOnUse">
<stop stop-color="#E2335F"/>
<stop offset="1" stop-color="#792F6C"/>
</linearGradient>
<linearGradient id="paint4_linear_167_4763" x1="16.0684" y1="21.6574" x2="18.1828" y2="21.6574" gradientUnits="userSpaceOnUse">
<stop stop-color="#E2335F"/>
<stop offset="1" stop-color="#792F6C"/>
</linearGradient>
<linearGradient id="paint5_linear_167_4763" x1="15.5488" y1="20.5563" x2="16.8903" y2="20.5563" gradientUnits="userSpaceOnUse">
<stop stop-color="#E2335F"/>
<stop offset="1" stop-color="#792F6C"/>
</linearGradient>
<linearGradient id="paint6_linear_167_4763" x1="15.0312" y1="15.6965" x2="22.19" y2="15.6965" gradientUnits="userSpaceOnUse">
<stop stop-color="#E2335F"/>
<stop offset="1" stop-color="#792F6C"/>
</linearGradient>
<linearGradient id="paint7_linear_167_4763" x1="20.3418" y1="3.63816" x2="21.6946" y2="3.63816" gradientUnits="userSpaceOnUse">
<stop stop-color="#E2335F"/>
<stop offset="1" stop-color="#792F6C"/>
</linearGradient>
<linearGradient id="paint8_linear_167_4763" x1="14.4648" y1="19.671" x2="21.0006" y2="19.671" gradientUnits="userSpaceOnUse">
<stop stop-color="#E2335F"/>
<stop offset="1" stop-color="#792F6C"/>
</linearGradient>
<linearGradient id="paint9_linear_167_4763" x1="14.793" y1="17.9837" x2="21.9997" y2="17.9837" gradientUnits="userSpaceOnUse">
<stop stop-color="#E2335F"/>
<stop offset="1" stop-color="#792F6C"/>
</linearGradient>
<linearGradient id="paint10_linear_167_4763" x1="13.6774" y1="18.6466" x2="14.4586" y2="14.991" gradientUnits="userSpaceOnUse">
<stop stop-color="#E2335F"/>
<stop offset="1" stop-color="#792F6C"/>
</linearGradient>
<linearGradient id="paint11_linear_167_4763" x1="14.5918" y1="13.4385" x2="16.4815" y2="13.4385" gradientUnits="userSpaceOnUse">
<stop stop-color="#E2335F"/>
<stop offset="1" stop-color="#792F6C"/>
</linearGradient>
<linearGradient id="paint12_linear_167_4763" x1="3.92383" y1="8.80913" x2="13.0055" y2="8.80913" gradientUnits="userSpaceOnUse">
<stop stop-color="#E2335F"/>
<stop offset="1" stop-color="#792F6C"/>
</linearGradient>
<linearGradient id="paint13_linear_167_4763" x1="11.918" y1="16.6596" x2="13.6548" y2="16.6596" gradientUnits="userSpaceOnUse">
<stop stop-color="#E2335F"/>
<stop offset="1" stop-color="#792F6C"/>
</linearGradient>
<linearGradient id="paint14_linear_167_4763" x1="16.668" y1="7.08724" x2="18.3775" y2="7.08724" gradientUnits="userSpaceOnUse">
<stop stop-color="#E2335F"/>
<stop offset="1" stop-color="#792F6C"/>
</linearGradient>
<linearGradient id="paint15_linear_167_4763" x1="0.748047" y1="15.0543" x2="5.91491" y2="15.0543" gradientUnits="userSpaceOnUse">
<stop stop-color="#E2335F"/>
<stop offset="1" stop-color="#792F6C"/>
</linearGradient>
<linearGradient id="paint16_linear_167_4763" x1="0.814453" y1="18.44" x2="4.14984" y2="18.44" gradientUnits="userSpaceOnUse">
<stop stop-color="#E2335F"/>
<stop offset="1" stop-color="#792F6C"/>
</linearGradient>
<linearGradient id="paint17_linear_167_4763" x1="2.5293" y1="13.2863" x2="7.68873" y2="13.2863" gradientUnits="userSpaceOnUse">
<stop stop-color="#E2335F"/>
<stop offset="1" stop-color="#792F6C"/>
</linearGradient>
<linearGradient id="paint18_linear_167_4763" x1="7.03516" y1="12.435" x2="9.96542" y2="12.435" gradientUnits="userSpaceOnUse">
<stop stop-color="#E2335F"/>
<stop offset="1" stop-color="#792F6C"/>
</linearGradient>
<linearGradient id="paint19_linear_167_4763" x1="8.35156" y1="13.9454" x2="11.6783" y2="13.9454" gradientUnits="userSpaceOnUse">
<stop stop-color="#E2335F"/>
<stop offset="1" stop-color="#792F6C"/>
</linearGradient>
<linearGradient id="paint20_linear_167_4763" x1="15.2793" y1="9.02855" x2="15.3757" y2="9.02855" gradientUnits="userSpaceOnUse">
<stop stop-color="#E2335F"/>
<stop offset="1" stop-color="#792F6C"/>
</linearGradient>
<linearGradient id="paint21_linear_167_4763" x1="19.0742" y1="10.7768" x2="19.2227" y2="10.7768" gradientUnits="userSpaceOnUse">
<stop stop-color="#E2335F"/>
<stop offset="1" stop-color="#792F6C"/>
</linearGradient>
<linearGradient id="paint22_linear_167_4763" x1="15.125" y1="7.85547" x2="16.0472" y2="7.85547" gradientUnits="userSpaceOnUse">
<stop stop-color="#E2335F"/>
<stop offset="1" stop-color="#792F6C"/>
</linearGradient>
<linearGradient id="paint23_linear_167_4763" x1="17.0078" y1="10.5219" x2="18.6993" y2="10.5219" gradientUnits="userSpaceOnUse">
<stop stop-color="#E2335F"/>
<stop offset="1" stop-color="#792F6C"/>
</linearGradient>
<linearGradient id="paint24_linear_167_4763" x1="15.5742" y1="9.96985" x2="17.038" y2="9.96985" gradientUnits="userSpaceOnUse">
<stop stop-color="#E2335F"/>
<stop offset="1" stop-color="#792F6C"/>
</linearGradient>
<linearGradient id="paint25_linear_167_4763" x1="19.3223" y1="9.87752" x2="20.6754" y2="9.87752" gradientUnits="userSpaceOnUse">
<stop stop-color="#E2335F"/>
<stop offset="1" stop-color="#792F6C"/>
</linearGradient>
<linearGradient id="paint26_linear_167_4763" x1="17.6602" y1="9.30306" x2="19.3697" y2="9.30306" gradientUnits="userSpaceOnUse">
<stop stop-color="#E2335F"/>
<stop offset="1" stop-color="#792F6C"/>
</linearGradient>
<linearGradient id="paint27_linear_167_4763" x1="14.0176" y1="6.86504" x2="23.2513" y2="6.86504" gradientUnits="userSpaceOnUse">
<stop stop-color="#E2335F"/>
<stop offset="1" stop-color="#792F6C"/>
</linearGradient>
<linearGradient id="paint28_linear_167_4763" x1="21.332" y1="5.61267" x2="22.145" y2="5.61267" gradientUnits="userSpaceOnUse">
<stop stop-color="#E2335F"/>
<stop offset="1" stop-color="#792F6C"/>
</linearGradient>
<linearGradient id="paint29_linear_167_4763" x1="20.6621" y1="7.13394" x2="22.0712" y2="7.13394" gradientUnits="userSpaceOnUse">
<stop stop-color="#E2335F"/>
<stop offset="1" stop-color="#792F6C"/>
</linearGradient>
<linearGradient id="paint30_linear_167_4763" x1="19.9922" y1="8.56041" x2="21.5768" y2="8.56041" gradientUnits="userSpaceOnUse">
<stop stop-color="#E2335F"/>
<stop offset="1" stop-color="#792F6C"/>
</linearGradient>
<linearGradient id="paint31_linear_167_4763" x1="17.3398" y1="5.63558" x2="19.0494" y2="5.63558" gradientUnits="userSpaceOnUse">
<stop stop-color="#E2335F"/>
<stop offset="1" stop-color="#792F6C"/>
</linearGradient>
<linearGradient id="paint32_linear_167_4763" x1="19.6699" y1="4.94855" x2="21.3794" y2="4.94855" gradientUnits="userSpaceOnUse">
<stop stop-color="#E2335F"/>
<stop offset="1" stop-color="#792F6C"/>
</linearGradient>
<linearGradient id="paint33_linear_167_4763" x1="15.998" y1="8.53839" x2="17.7075" y2="8.53839" gradientUnits="userSpaceOnUse">
<stop stop-color="#E2335F"/>
<stop offset="1" stop-color="#792F6C"/>
</linearGradient>
<linearGradient id="paint34_linear_167_4763" x1="15.25" y1="6.35115" x2="16.7163" y2="6.35115" gradientUnits="userSpaceOnUse">
<stop stop-color="#E2335F"/>
<stop offset="1" stop-color="#792F6C"/>
</linearGradient>
<linearGradient id="paint35_linear_167_4763" x1="19" y1="6.40021" x2="20.7095" y2="6.40021" gradientUnits="userSpaceOnUse">
<stop stop-color="#E2335F"/>
<stop offset="1" stop-color="#792F6C"/>
</linearGradient>
<linearGradient id="paint36_linear_167_4763" x1="18.6797" y1="3.0866" x2="20.2593" y2="3.0866" gradientUnits="userSpaceOnUse">
<stop stop-color="#E2335F"/>
<stop offset="1" stop-color="#792F6C"/>
</linearGradient>
<linearGradient id="paint37_linear_167_4763" x1="18.3301" y1="7.85138" x2="20.0396" y2="7.85138" gradientUnits="userSpaceOnUse">
<stop stop-color="#E2335F"/>
<stop offset="1" stop-color="#792F6C"/>
</linearGradient>
<linearGradient id="paint38_linear_167_4763" x1="15.8125" y1="4.94116" x2="17.3862" y2="4.94116" gradientUnits="userSpaceOnUse">
<stop stop-color="#E2335F"/>
<stop offset="1" stop-color="#792F6C"/>
</linearGradient>
<linearGradient id="paint39_linear_167_4763" x1="16.7891" y1="3.64832" x2="18.0573" y2="3.64832" gradientUnits="userSpaceOnUse">
<stop stop-color="#E2335F"/>
<stop offset="1" stop-color="#792F6C"/>
</linearGradient>
<linearGradient id="paint40_linear_167_4763" x1="18.0098" y1="4.18439" x2="19.7192" y2="4.18439" gradientUnits="userSpaceOnUse">
<stop stop-color="#E2335F"/>
<stop offset="1" stop-color="#792F6C"/>
</linearGradient>
</defs>
</svg>
