<svg width="24" height="24" viewBox="0 0 24 24" fill="none" xmlns="http://www.w3.org/2000/svg">
<g clip-path="url(#clip0_167_4699)">
<path d="M5.87264 19.1913L3.23245 17.9463L3.44241 16.9151L5.87264 15.0469L8.32153 16.9284L8.52881 17.9396L5.87264 19.1913ZM13.113 12.6526C13.3504 12.2126 13.6214 11.7915 13.9235 11.393C13.7032 11.0821 13.5089 10.7844 13.3455 10.504C13.1442 10.1688 12.9785 9.81346 12.8512 9.44373C12.6293 10.0363 12.5987 10.7392 12.7463 11.482C12.8277 11.8838 12.9506 12.2761 13.113 12.6526ZM12.4366 14.4198C12.512 14.0777 12.6173 13.7428 12.7515 13.4192C12.4509 12.8492 12.2326 12.2395 12.1031 11.6082C12.0558 11.3745 12.0243 11.1379 12.0088 10.9C11.5983 12.2635 11.7194 13.7319 12.3476 15.0098C12.3645 14.8114 12.3943 14.6143 12.4367 14.4198L12.4366 14.4198ZM9.83362 1.85926C10.1131 2.58667 10.1858 3.37723 10.0436 4.1434C9.90153 4.90957 9.55015 5.62147 9.02841 6.20026C8.99866 6.2321 8.97556 6.26955 8.96047 6.31042C8.94537 6.35129 8.93859 6.39477 8.94051 6.43829C8.94243 6.48182 8.95302 6.52453 8.97166 6.56391C8.99029 6.6033 9.0166 6.63857 9.04904 6.66765C9.08148 6.69674 9.11939 6.71907 9.16057 6.73332C9.20174 6.74756 9.24535 6.75345 9.28883 6.75064C9.3323 6.74782 9.37478 6.73636 9.41378 6.71692C9.45277 6.69748 9.48749 6.67045 9.51591 6.63742C10.323 5.74182 10.7696 4.57897 10.7696 3.37337C10.7696 2.16778 10.323 1.00493 9.51591 0.109326C9.48772 0.0752211 9.45293 0.0471689 9.41362 0.0268565C9.37431 0.00654402 9.3313 -0.00560911 9.28718 -0.00887209C9.24306 -0.0121351 9.19873 -0.00644048 9.15686 0.00786922C9.11499 0.0221789 9.07645 0.0448081 9.04355 0.074396C9.01066 0.103984 8.98409 0.139919 8.96544 0.180041C8.94678 0.220163 8.93644 0.263642 8.93502 0.307865C8.93361 0.352087 8.94115 0.396139 8.9572 0.437371C8.97325 0.478603 8.99747 0.516164 9.02841 0.547795C9.37488 0.931936 9.64782 1.37647 9.83362 1.85926ZM6.91955 10.1134L6.41597 10.4934L7.10423 11.013L6.91955 10.1134ZM4.64489 11.0116L5.33048 10.4934L4.82822 10.1134L4.64489 11.0116ZM5.88708 5.72458C5.83261 5.72458 5.77678 5.7219 5.72231 5.71792L4.97292 9.40253L5.87245 10.0828L6.77334 9.40253L6.01594 5.72059C5.9723 5.72322 5.92978 5.72458 5.88727 5.72458H5.88708ZM18.4505 11.8487C18.3867 11.7836 18.3216 11.7172 18.2552 11.6519C18.1901 11.5855 18.1236 11.5203 18.0585 11.4565L16.1505 12.1289C15.9841 12.1875 15.8051 12.2003 15.6321 12.1659C15.4591 12.1316 15.2985 12.0513 15.1672 11.9336C15.5618 12.4117 16.0123 12.9076 16.5052 13.4005C16.9995 13.8948 17.4952 14.3453 17.9735 14.7399C17.8557 14.6086 17.7755 14.448 17.7411 14.275C17.7068 14.102 17.7195 13.923 17.7781 13.7566L18.4505 11.8487ZM15.514 11.3106C15.5431 11.3925 15.6036 11.4594 15.682 11.4968C15.7605 11.5342 15.8506 11.5389 15.9325 11.5099L19.1973 10.3594C19.29 10.4983 19.4092 10.6175 19.548 10.7102L18.3974 13.9747C18.383 14.0153 18.3769 14.0583 18.3792 14.1012C18.3815 14.1442 18.3922 14.1863 18.4108 14.2251C18.4294 14.2639 18.4554 14.2986 18.4874 14.3274C18.5194 14.3561 18.5568 14.3783 18.5973 14.3926C18.6379 14.4069 18.6809 14.4131 18.7238 14.4108C18.7668 14.4085 18.8089 14.3977 18.8477 14.3792C18.8865 14.3606 18.9213 14.3346 18.95 14.3026C18.9788 14.2706 19.0009 14.2332 19.0152 14.1926L20.1659 10.9266C20.2017 10.9304 20.2377 10.9322 20.2737 10.932C20.5305 10.932 20.7816 10.8559 20.9952 10.7133C21.2088 10.5706 21.3752 10.3678 21.4735 10.1306C21.5719 9.89329 21.5976 9.6322 21.5475 9.3803C21.4974 9.12841 21.3738 8.89702 21.1922 8.71541C21.0105 8.5338 20.7792 8.41013 20.5273 8.36003C20.2754 8.30994 20.0143 8.33567 19.777 8.43397C19.5397 8.53227 19.337 8.69873 19.1943 8.9123C19.0516 9.12586 18.9755 9.37694 18.9756 9.63376C18.9756 9.66961 18.9769 9.70554 18.9795 9.74158L15.7148 10.8923C15.6741 10.9065 15.6367 10.9286 15.6045 10.9574C15.5724 10.9861 15.5463 11.0209 15.5277 11.0598C15.509 11.0986 15.4982 11.1408 15.4959 11.1838C15.4935 11.2269 15.4997 11.2699 15.514 11.3106ZM14.5865 11.1924C14.5932 11.2003 14.5985 11.2083 14.6053 11.2163C14.7195 11.3731 14.8418 11.5312 14.9707 11.6933C14.9409 11.6405 14.9156 11.5854 14.8949 11.5285C14.8084 11.2823 14.8231 11.0119 14.9357 10.7765C15.0483 10.5412 15.2496 10.36 15.4955 10.2729L16.3592 9.96854C15.9364 9.63684 15.4925 9.33282 15.0305 9.05837C14.204 8.57739 13.6008 8.37273 13.4133 8.56009C13.2273 8.74614 13.4306 9.35069 13.9116 10.1759C14.1184 10.5264 14.3437 10.8657 14.5865 11.1924ZM14.3381 15.5692C13.906 15.1386 13.519 14.6648 13.1834 14.1554C13.1408 14.2923 13.105 14.4265 13.0771 14.558C12.899 15.3819 12.996 16.0754 13.4132 16.494C13.8318 16.9112 14.5254 17.0082 15.3492 16.8302C15.4807 16.802 15.6149 16.7664 15.7518 16.7238C15.2427 16.3878 14.769 16.0009 14.3381 15.5692ZM16.0414 13.8657C15.4332 13.2598 14.8625 12.6172 14.3327 11.9417C14.0026 12.3946 13.7169 12.8783 13.4796 13.386C14.2112 14.6474 15.2596 15.6959 16.521 16.4275C17.0288 16.1902 17.5124 15.9045 17.9654 15.5744C17.2899 15.0445 16.6474 14.4739 16.0414 13.8657ZM19.0059 17.8984C18.7685 17.8822 18.5323 17.8507 18.299 17.8041C17.6677 17.6746 17.0579 17.4563 16.4879 17.1557C16.1641 17.2893 15.8293 17.3947 15.4874 17.4706C15.2924 17.513 15.0949 17.5428 14.8961 17.5597C16.174 18.188 17.6424 18.309 19.0059 17.8985V17.8984ZM2.67173 20.7021L5.10595 19.5541L3.09825 18.6067L2.67173 20.7021ZM18.5143 15.9838C18.1152 16.285 17.6942 16.556 17.2546 16.7943C17.6311 16.9567 18.0234 17.0796 18.4252 17.161C19.168 17.3085 19.8709 17.278 20.4622 17.056C20.0931 16.9282 19.7382 16.7625 19.4032 16.5617C19.1228 16.3983 18.8252 16.2043 18.5143 15.9838ZM19.9373 13.5482L19.6344 14.4107C19.5476 14.6569 19.3666 14.8586 19.1311 14.9715C18.8957 15.0844 18.6251 15.0992 18.3787 15.0126C18.3218 14.992 18.2667 14.9666 18.214 14.9369C18.3748 15.0658 18.5342 15.188 18.691 15.3025C18.699 15.3092 18.707 15.3145 18.7149 15.3212C19.0415 15.5638 19.3808 15.7886 19.7314 15.9949C20.5564 16.4759 21.1598 16.6805 21.3472 16.4945V16.4932H21.3485C21.5345 16.3057 21.3297 15.7026 20.8489 14.8774C20.5744 14.4149 20.2699 13.9708 19.9373 13.5482ZM18.7388 23.3438H16.0269L14.5852 18.1365C14.1447 17.9166 13.7317 17.6454 13.3548 17.3286L11.6886 23.3438H9.64097L9.26494 21.5157L5.87264 19.9159L2.50828 21.502L2.13361 23.3438H0.439453C0.352429 23.3438 0.268969 23.3784 0.207434 23.4399C0.145898 23.5015 0.111328 23.5849 0.111328 23.6719C0.111328 23.759 0.145898 23.8424 0.207434 23.904C0.268969 23.9655 0.352429 24.0001 0.439453 24.0001H18.7388C18.8259 24.0001 18.9093 23.9655 18.9709 23.904C19.0324 23.8424 19.067 23.759 19.067 23.6719C19.067 23.5849 19.0324 23.5015 18.9709 23.4399C18.9093 23.3784 18.8259 23.3438 18.7388 23.3438ZM2.25848 6.63756C2.2869 6.67059 2.32162 6.69762 2.36061 6.71706C2.39961 6.7365 2.44209 6.74796 2.48557 6.75078C2.52904 6.75359 2.57265 6.74771 2.61382 6.73346C2.655 6.71921 2.69291 6.69688 2.72535 6.6678C2.75779 6.63871 2.7841 6.60344 2.80273 6.56405C2.82137 6.52467 2.83196 6.48196 2.83388 6.43844C2.8358 6.39491 2.82902 6.35143 2.81392 6.31056C2.79883 6.26969 2.77573 6.23224 2.74598 6.2004C2.39996 5.81543 2.12709 5.37055 1.94077 4.88762C1.66109 4.16047 1.58828 3.37006 1.73041 2.60405C1.87254 1.83803 2.22406 1.12636 2.74598 0.547935C2.77692 0.516305 2.80114 0.478744 2.81719 0.437512C2.83324 0.39628 2.84078 0.352228 2.83937 0.308005C2.83795 0.263783 2.82761 0.220304 2.80896 0.180182C2.7903 0.14006 2.76373 0.104125 2.73084 0.0745367C2.69794 0.0449488 2.6594 0.0223196 2.61753 0.00800985C2.57566 -0.00629986 2.53134 -0.0119944 2.48721 -0.00873147C2.44309 -0.00546849 2.40008 0.00668465 2.36077 0.0269971C2.32146 0.0473096 2.28667 0.0753617 2.25848 0.109467C1.45142 1.00507 1.00477 2.16792 1.00477 3.37351C1.00477 4.57911 1.45142 5.74196 2.25848 6.63756ZM22.0116 7.89587C21.7836 7.66756 21.5127 7.48644 21.2146 7.36287C20.9165 7.23929 20.597 7.17568 20.2743 7.17568C19.9516 7.17568 19.632 7.23929 19.3339 7.36287C19.0358 7.48644 18.765 7.66756 18.537 7.89587C18.4791 7.95809 18.4476 8.04033 18.4492 8.12528C18.4507 8.21023 18.4851 8.29128 18.5452 8.35136C18.6053 8.41144 18.6863 8.44587 18.7713 8.44741C18.8562 8.44895 18.9385 8.41747 19.0007 8.35961C19.1679 8.19236 19.3665 8.05969 19.585 7.96917C19.8035 7.87866 20.0378 7.83207 20.2743 7.83207C20.5108 7.83207 20.745 7.87866 20.9635 7.96917C21.1821 8.05969 21.3806 8.19236 21.5479 8.35961C21.7151 8.52686 21.8478 8.72541 21.9383 8.94394C22.0288 9.16246 22.0754 9.39667 22.0754 9.6332C22.0754 9.86973 22.0288 10.1039 21.9383 10.3225C21.8478 10.541 21.7151 10.7395 21.5479 10.9068C21.49 10.969 21.4585 11.0512 21.4601 11.1362C21.4616 11.2212 21.496 11.3022 21.5561 11.3623C21.6162 11.4224 21.6973 11.4568 21.7822 11.4583C21.8672 11.4599 21.9494 11.4284 22.0116 11.3705C22.2399 11.1425 22.421 10.8716 22.5446 10.5735C22.6682 10.2754 22.7318 9.9559 22.7318 9.6332C22.7318 9.3105 22.6682 8.99096 22.5446 8.69286C22.421 8.39475 22.2399 8.12393 22.0116 7.89587ZM22.8315 7.07603C22.1532 6.39796 21.2334 6.01704 20.2743 6.01704C19.3152 6.01704 18.3954 6.39796 17.7171 7.07603C17.6591 7.13823 17.6275 7.22051 17.629 7.30555C17.6305 7.39058 17.6649 7.47172 17.7251 7.53185C17.7852 7.59199 17.8663 7.62642 17.9514 7.6279C18.0364 7.62937 18.1187 7.59778 18.1809 7.53976C18.7361 6.98456 19.4891 6.67265 20.2743 6.67265C21.0595 6.67265 21.8125 6.98457 22.3677 7.53979C22.923 8.095 23.2349 8.84803 23.2349 9.63322C23.2348 10.4184 22.9229 11.1714 22.3677 11.7266C22.3099 11.7889 22.2784 11.8711 22.2799 11.956C22.2815 12.041 22.3159 12.122 22.376 12.1821C22.4361 12.2422 22.5171 12.2766 22.602 12.2782C22.687 12.2797 22.7692 12.2482 22.8315 12.1904C23.5095 11.5121 23.8904 10.5923 23.8904 9.6332C23.8904 8.67412 23.5095 7.7543 22.8315 7.07603ZM5.33583 14.6351L4.10011 13.685L3.64172 15.9373L5.33583 14.6351ZM8.0452 5.314C7.98816 5.37866 7.95893 5.46321 7.96386 5.54929C7.96878 5.63537 8.00746 5.71604 8.0715 5.77377C8.13554 5.83151 8.21976 5.86166 8.30589 5.85767C8.39202 5.85368 8.4731 5.81588 8.53153 5.75247C9.12068 5.10012 9.44682 4.25238 9.44682 3.37337C9.44682 2.49437 9.12068 1.64663 8.53153 0.994279C8.50289 0.96181 8.46809 0.935344 8.42915 0.916412C8.39022 0.897481 8.34791 0.88646 8.30468 0.883988C8.26146 0.881516 8.21817 0.887642 8.17733 0.90201C8.13649 0.916379 8.0989 0.938706 8.06674 0.967698C8.03458 0.99669 8.0085 1.03177 7.98999 1.07091C7.97148 1.11005 7.96092 1.15248 7.95892 1.19573C7.95691 1.23898 7.96351 1.2822 7.97832 1.32288C7.99313 1.36356 8.01586 1.40091 8.0452 1.43275C8.52522 1.96514 8.79089 2.65654 8.79089 3.37337C8.79089 4.09021 8.52522 4.78161 8.0452 5.314ZM8.66433 18.6001L6.64064 19.5541L9.09886 20.7128L8.66433 18.6001ZM2.32889 3.37403C2.32783 4.25281 2.65363 5.10058 3.24295 5.75247C3.27174 5.7844 3.30654 5.81034 3.34536 5.82882C3.38418 5.84731 3.42625 5.85796 3.46919 5.86018C3.51213 5.8624 3.55508 5.85614 3.59559 5.84176C3.63611 5.82738 3.6734 5.80516 3.70533 5.77637C3.73726 5.74758 3.7632 5.71279 3.78169 5.67397C3.80017 5.63515 3.81082 5.59307 3.81304 5.55014C3.81526 5.5072 3.809 5.46425 3.79462 5.42373C3.78024 5.38322 3.75802 5.34593 3.72923 5.314C3.24922 4.78161 2.98355 4.09021 2.98355 3.37337C2.98355 2.65654 3.24922 1.96514 3.72923 1.43275C3.75884 1.40097 3.78182 1.36361 3.79684 1.32286C3.81187 1.28211 3.81863 1.23877 3.81674 1.19538C3.81485 1.15199 3.80435 1.10941 3.78584 1.07012C3.76733 1.03082 3.74119 0.995607 3.70894 0.966518C3.67669 0.937428 3.63897 0.915047 3.59798 0.900678C3.55699 0.88631 3.51356 0.88024 3.4702 0.882824C3.42685 0.885408 3.38444 0.896593 3.34545 0.915728C3.30646 0.934863 3.27166 0.961565 3.24309 0.994279C2.65401 1.64684 2.32827 2.49491 2.32903 3.37403H2.32889ZM8.11955 15.9492L7.65314 13.6797L6.40945 14.6351L8.11955 15.9492ZM5.88727 5.06819C6.27928 5.06825 6.65919 4.93239 6.96228 4.68376C7.26536 4.43513 7.47286 4.0891 7.54943 3.70464C7.626 3.32017 7.5669 2.92105 7.3822 2.57527C7.1975 2.22949 6.89863 1.95845 6.5365 1.80831C6.17437 1.65818 5.77139 1.63825 5.39621 1.75192C5.02104 1.86558 4.69687 2.10581 4.47895 2.43167C4.26103 2.75754 4.16284 3.14888 4.2011 3.53903C4.23935 3.92917 4.4117 4.29398 4.68877 4.57131C4.84599 4.72895 5.0328 4.85399 5.23847 4.93926C5.44414 5.02453 5.66462 5.06834 5.88727 5.06819ZM4.24627 12.9715L5.87283 14.2219L7.50586 12.9675L7.30387 11.9856L5.87283 10.904L4.44689 11.9816L4.24627 12.9715Z" fill="url(#paint0_linear_167_4699)"/>
</g>
<defs>
<linearGradient id="paint0_linear_167_4699" x1="0.111328" y1="11.9951" x2="23.8904" y2="11.9951" gradientUnits="userSpaceOnUse">
<stop stop-color="#E2335F"/>
<stop offset="1" stop-color="#792F6C"/>
</linearGradient>
<clipPath id="clip0_167_4699">
<rect width="24" height="24" fill="white"/>
</clipPath>
</defs>
</svg>
