<svg width="24" height="24" viewBox="0 0 24 24" fill="none" xmlns="http://www.w3.org/2000/svg">
<path fill-rule="evenodd" clip-rule="evenodd" d="M11.7998 0.421875C13.9104 0.421875 15.8137 1.30913 17.1575 2.73075C15.9819 2.64488 14.4866 2.67281 13.6675 3.33862C12.7269 4.1032 13.0107 5.24053 13.6664 6.09488C13.0096 6.24473 12.7252 7.01578 13.1143 7.55648C12.9339 7.61405 12.7522 7.66828 12.5694 7.71914C12.1885 7.13325 11.8532 6.5587 11.0247 6.4793C10.6142 6.43992 10.4868 6.33089 10.1508 6.13416C9.55645 5.7862 9.03595 5.81817 8.40614 6.06197C8.36386 6.07833 8.26533 6.11541 8.20636 6.12408C8.12128 6.05803 7.98487 5.85539 7.91339 5.74373C8.00522 5.72761 8.11631 5.72916 8.18086 5.73619C9.46542 5.95383 10.6146 5.52802 11.5147 4.57809L11.5506 4.53736C12.7943 3.01833 11.6495 1.30903 10.1356 0.610547C10.6703 0.487125 11.2275 0.421875 11.7998 0.421875ZM15.9493 7.60242C15.8901 7.62469 15.8292 7.61733 15.7771 7.58156L14.5416 6.73392C14.4975 6.70369 14.4484 6.69398 14.3962 6.70519L13.8359 6.82542C13.6868 6.85744 13.6364 7.04559 13.7495 7.14788L15.0346 8.31056C15.0948 8.36494 15.1132 8.44753 15.0818 8.5223L14.4106 10.1202C14.3512 10.2614 14.4763 10.41 14.6256 10.3756L15.1839 10.247C15.236 10.235 15.2764 10.2054 15.3035 10.1593L16.1438 8.73094C16.1759 8.67642 16.2278 8.64394 16.2909 8.63902L18.9295 8.4338C19.0476 8.42461 19.1438 8.52422 19.1304 8.64192L18.8852 10.8056C18.8689 10.95 19.0145 11.057 19.1474 10.9983L19.623 10.7882C19.676 10.7648 19.7121 10.7232 19.7278 10.6674L20.4107 8.23828C20.4299 8.17003 20.4814 8.12137 20.5506 8.106L21.0081 8.00423C21.521 7.89014 21.8473 7.37719 21.7332 6.86428C21.6191 6.35138 21.1061 6.02508 20.5932 6.13917L20.1357 6.24094C20.0665 6.25631 19.9993 6.23405 19.953 6.18038L18.3046 4.26984C18.2668 4.22597 18.2165 4.20356 18.1586 4.20483L17.6388 4.21617C17.4936 4.21931 17.407 4.37803 17.483 4.50178L18.6222 6.35752C18.6842 6.45844 18.6393 6.58945 18.5285 6.63117L15.9493 7.60242ZM13.8354 9.5528L14.2358 8.59941L13.7303 8.14195C8.87841 9.82992 4.43808 8.72616 3.75356 7.60964C3.68269 9.61847 7.37053 11.3194 13.8354 9.5528ZM14.091 22.291C14.4464 22.291 14.7345 22.5792 14.7345 22.9346C14.7345 23.29 14.4465 23.5781 14.091 23.5781C13.7355 23.5781 13.4475 23.29 13.4475 22.9346C13.4475 22.5792 13.7356 22.291 14.091 22.291ZM17.7403 22.291C18.0957 22.291 18.3839 22.5792 18.3839 22.9346C18.3839 23.29 18.0958 23.5781 17.7403 23.5781C17.3849 23.5781 17.0968 23.29 17.0968 22.9346C17.0968 22.5792 17.3849 22.291 17.7403 22.291ZM12.8844 13.6251H14.2646V12.1077C14.2646 11.6486 14.6388 11.2744 15.0978 11.2744H16.7335C17.1926 11.2744 17.5667 11.6486 17.5667 12.1077V13.6251H18.947C19.2408 13.6251 19.4813 13.8655 19.4813 14.1594V22.2981C19.4813 22.5287 19.3332 22.7264 19.1274 22.8008C19.0601 22.0942 18.4646 21.541 17.7403 21.541C17.0053 21.541 16.4029 22.1108 16.3505 22.8324H15.4808C15.4284 22.1108 14.826 21.541 14.091 21.541C13.3668 21.541 12.7712 22.0942 12.7039 22.8008C12.4981 22.7264 12.3501 22.5287 12.3501 22.2981V14.1594C12.3501 13.8655 12.5905 13.6251 12.8844 13.6251ZM15.0146 13.6251H16.8167V12.1077C16.8167 12.0627 16.7785 12.0244 16.7335 12.0244H15.0978C15.0528 12.0244 15.0145 12.0626 15.0145 12.1077V13.6251H15.0146ZM14.0247 15.9314V20.4079H15.2174V15.9314H14.0247ZM16.614 15.9314V20.4079H17.8067V15.9314H16.614ZM2.87925 17.5134H3.64434C3.93919 17.5134 4.17248 17.315 4.26019 17.0335L4.44314 16.4466C4.53089 16.1651 4.76414 15.9667 5.05898 15.9667H7.88119C8.70389 15.9667 8.54362 17.5134 9.36633 17.5134H10.19C10.5398 17.5134 10.8251 17.7988 10.8251 18.1485V22.185C10.8251 22.5348 10.5398 22.8201 10.19 22.8201H2.87925C2.52947 22.8201 2.24414 22.5348 2.24414 22.185V18.1485C2.24414 17.7988 2.52947 17.5134 2.87925 17.5134ZM2.8868 16.3988V16.7634H3.5588L3.6368 16.5133V16.3988C3.6368 16.1917 3.46889 16.0238 3.2618 16.0238C3.0547 16.0238 2.8868 16.1917 2.8868 16.3988ZM9.49008 16.3988V16.7634L10.2401 16.7644V16.3988C10.2401 16.1917 10.0722 16.0238 9.86508 16.0238C9.65798 16.0238 9.49008 16.1917 9.49008 16.3988ZM6.53466 18.6729C6.13673 18.6729 5.81414 18.9955 5.81414 19.3934C5.81414 19.7913 6.13673 20.1139 6.53466 20.1139C6.93258 20.1139 7.25517 19.7913 7.25517 19.3934C7.25513 18.9954 6.93258 18.6729 6.53466 18.6729ZM6.53466 17.4743C5.47477 17.4743 4.61555 18.3335 4.61555 19.3934C4.61555 20.4533 5.47477 21.3125 6.53466 21.3125C7.59455 21.3125 8.45376 20.4533 8.45376 19.3934C8.45372 18.3335 7.5945 17.4743 6.53466 17.4743ZM17.3823 3.50269C13.6802 3.17423 13.3618 4.38937 14.1911 5.54362C14.3096 5.70858 14.4277 5.84353 14.5443 5.95702C14.6939 5.97436 14.8383 6.02794 14.9659 6.1155L15.9595 6.7972L17.6267 6.16941L16.8439 4.89422C16.5175 4.36252 16.7932 3.67177 17.3823 3.50269ZM18.1858 11.4776C17.9356 10.9022 17.3665 10.5244 16.7335 10.5244H15.9589L16.6415 9.36403L18.3085 9.23438L18.14 10.7212C18.1158 10.935 18.1649 11.1448 18.274 11.3206C18.2453 11.3734 18.2158 11.4257 18.1858 11.4776ZM10.9703 4.06223C12.1238 2.65322 10.209 1.09922 8.84297 1.03884C6.56297 2.03836 4.88587 4.15852 4.50848 6.70247C6.1807 6.48206 6.11611 7.27509 7.3702 8.19431C7.49386 8.20706 7.61667 8.21775 7.73808 8.22661C9.08813 8.325 10.4693 8.20861 11.8073 7.91006C11.5756 7.55189 11.3462 7.26356 10.953 7.22587C9.68892 7.1047 9.8258 6.31664 8.6767 6.76144C8.05289 7.00284 7.7483 6.89953 7.24556 6.09108C6.77761 5.33855 7.50567 4.8945 8.28473 4.99331C8.40286 5.00827 9.74616 5.35402 10.9703 4.06223ZM9.0487 11.0436C9.7785 11.0347 10.5199 10.9694 11.2558 10.8626C11.2524 10.9153 11.2506 10.9702 11.2508 11.0282C10.9844 12.2326 10.6434 11.7664 10.4525 12.7251C10.3744 13.0372 9.95752 13.3018 9.70336 13.0213C9.22598 12.556 9.54797 11.9361 9.0487 11.0436ZM13.5146 12.8751H12.8844C12.1766 12.8751 11.6001 13.4516 11.6001 14.1594V15.1618C8.46909 15.0785 5.82506 13.0429 4.84041 10.2277C5.82314 10.7367 7.02141 10.9585 8.1217 11.0229L8.13984 11.0455C8.43098 11.3944 8.5568 11.6834 8.61924 12.1272C8.69845 12.69 8.73792 13.1187 9.165 13.5437C9.90122 14.3 11.0221 13.7047 11.1881 12.8715C11.2317 12.6523 11.2379 12.625 11.3737 12.4783C11.7279 12.0957 11.8716 11.6943 11.9831 11.1902L12.0008 11.0248C12.0002 10.8983 12.0063 10.8062 12.0235 10.7364C12.5794 10.6344 13.1285 10.5113 13.6632 10.3737C13.7079 10.601 13.8362 10.8052 14.0237 10.9453C13.6992 11.2455 13.5146 11.6653 13.5146 12.1076V12.8751ZM4.65698 7.43948C5.38373 7.34653 5.5207 7.47277 5.98997 7.95727C5.57864 7.8532 5.05964 7.68412 4.65698 7.43948Z" fill="url(#paint0_linear_167_4693)"/>
<defs>
<linearGradient id="paint0_linear_167_4693" x1="2.24414" y1="12" x2="21.756" y2="12" gradientUnits="userSpaceOnUse">
<stop stop-color="#E2335F"/>
<stop offset="1" stop-color="#792F6C"/>
</linearGradient>
</defs>
</svg>
