<svg width="24" height="25" viewBox="0 0 24 25" fill="none" xmlns="http://www.w3.org/2000/svg">
<path d="M20.9888 3.53711H3.01125C2.61066 3.53784 2.2267 3.69729 1.94344 3.98055C1.66018 4.2638 1.50073 4.64777 1.5 5.04836V14.9259H22.5V5.04836C22.4993 4.64777 22.3398 4.2638 22.0566 3.98055C21.7733 3.69729 21.3893 3.53784 20.9888 3.53711ZM7.44375 10.4259C7.40847 12.4016 4.35181 12.4092 4.31625 10.4296V8.03711C4.31822 7.93895 4.35859 7.84548 4.42871 7.77676C4.49882 7.70804 4.59309 7.66954 4.69126 7.66955C4.78944 7.66955 4.8837 7.70805 4.95381 7.77678C5.02392 7.8455 5.06429 7.93898 5.06625 8.03714V10.4296C5.06318 11.4123 6.69767 11.4092 6.69375 10.4258V8.02587C6.69375 7.92641 6.73326 7.83103 6.80359 7.76071C6.87391 7.69038 6.96929 7.65087 7.06875 7.65087C7.16821 7.65087 7.26359 7.69038 7.33391 7.76071C7.40424 7.83103 7.44375 7.92641 7.44375 8.02587V10.4259ZM11.13 8.24338L9.9675 9.84838L10.9688 11.3259C11.0219 11.4084 11.0407 11.5086 11.0209 11.6048C11.0011 11.701 10.9445 11.7856 10.8631 11.8406C10.7816 11.8955 10.6819 11.9163 10.5853 11.8986C10.4887 11.8809 10.4029 11.8261 10.3463 11.7459L9.49875 10.4934L8.58375 11.7571C8.52481 11.8374 8.43657 11.891 8.33824 11.9065C8.2399 11.9219 8.13945 11.8979 8.05875 11.8396C8.01862 11.8108 7.98462 11.7742 7.95872 11.7321C7.93282 11.69 7.91553 11.6432 7.90786 11.5944C7.90019 11.5455 7.90228 11.4957 7.91402 11.4477C7.92576 11.3996 7.94691 11.3544 7.97625 11.3146L9.0525 9.83339L7.96875 8.23589C7.91322 8.15333 7.89263 8.05215 7.91147 7.95445C7.93031 7.85676 7.98706 7.77049 8.06931 7.7145C8.15156 7.65851 8.25262 7.63736 8.35042 7.65565C8.44822 7.67395 8.5348 7.73021 8.59125 7.81214L9.52125 9.18464L10.5225 7.80464C10.5816 7.72652 10.6689 7.67465 10.7658 7.66013C10.8627 7.6456 10.9614 7.66958 11.0408 7.72693C11.1202 7.78428 11.174 7.87045 11.1907 7.96697C11.2074 8.0635 11.1856 8.16271 11.13 8.24338ZM14.67 7.09213L11.925 12.8409C11.8811 12.929 11.8044 12.9964 11.7113 13.0286C11.6182 13.0607 11.5163 13.0551 11.4273 13.0128C11.3384 12.9706 11.2696 12.8951 11.2357 12.8026C11.2018 12.7101 11.2056 12.6081 11.2463 12.5184L13.9913 6.76963C14.0356 6.68225 14.1123 6.61565 14.205 6.58401C14.2978 6.55237 14.3992 6.5582 14.4877 6.60025C14.5762 6.6423 14.6448 6.71725 14.6789 6.80913C14.7129 6.90101 14.7097 7.00256 14.67 7.09213ZM18.2475 10.4259C18.2122 12.4016 15.1556 12.4093 15.12 10.4296V8.03711C15.122 7.93895 15.1623 7.84548 15.2325 7.77676C15.3026 7.70804 15.3968 7.66954 15.495 7.66955C15.5932 7.66955 15.6875 7.70805 15.7576 7.77678C15.8277 7.8455 15.868 7.93898 15.87 8.03714V10.4296C15.8697 11.4124 17.5011 11.4089 17.4975 10.4258V8.02587C17.4975 7.92641 17.537 7.83103 17.6073 7.76071C17.6776 7.69038 17.773 7.65087 17.8725 7.65087C17.9719 7.65087 18.0673 7.69038 18.1376 7.76071C18.208 7.83103 18.2475 7.92641 18.2475 8.02587L18.2475 10.4259ZM19.6838 11.5359C19.6823 11.6344 19.6421 11.7283 19.572 11.7975C19.5018 11.8666 19.4072 11.9054 19.3087 11.9053C19.2102 11.9053 19.1157 11.8666 19.0455 11.7975C18.9754 11.7283 18.9352 11.6344 18.9338 11.5359V8.02587C18.9356 7.92761 18.9759 7.83399 19.046 7.76515C19.1161 7.6963 19.2105 7.65773 19.3088 7.65773C19.407 7.65774 19.5014 7.69631 19.5715 7.76516C19.6416 7.83401 19.6819 7.92763 19.6838 8.02589V11.5359Z" fill="black"/>
<path d="M20.9888 3.53711H3.01125C2.61066 3.53784 2.2267 3.69729 1.94344 3.98055C1.66018 4.2638 1.50073 4.64777 1.5 5.04836V14.9259H22.5V5.04836C22.4993 4.64777 22.3398 4.2638 22.0566 3.98055C21.7733 3.69729 21.3893 3.53784 20.9888 3.53711ZM7.44375 10.4259C7.40847 12.4016 4.35181 12.4092 4.31625 10.4296V8.03711C4.31822 7.93895 4.35859 7.84548 4.42871 7.77676C4.49882 7.70804 4.59309 7.66954 4.69126 7.66955C4.78944 7.66955 4.8837 7.70805 4.95381 7.77678C5.02392 7.8455 5.06429 7.93898 5.06625 8.03714V10.4296C5.06318 11.4123 6.69767 11.4092 6.69375 10.4258V8.02587C6.69375 7.92641 6.73326 7.83103 6.80359 7.76071C6.87391 7.69038 6.96929 7.65087 7.06875 7.65087C7.16821 7.65087 7.26359 7.69038 7.33391 7.76071C7.40424 7.83103 7.44375 7.92641 7.44375 8.02587V10.4259ZM11.13 8.24338L9.9675 9.84838L10.9688 11.3259C11.0219 11.4084 11.0407 11.5086 11.0209 11.6048C11.0011 11.701 10.9445 11.7856 10.8631 11.8406C10.7816 11.8955 10.6819 11.9163 10.5853 11.8986C10.4887 11.8809 10.4029 11.8261 10.3463 11.7459L9.49875 10.4934L8.58375 11.7571C8.52481 11.8374 8.43657 11.891 8.33824 11.9065C8.2399 11.9219 8.13945 11.8979 8.05875 11.8396C8.01862 11.8108 7.98462 11.7742 7.95872 11.7321C7.93282 11.69 7.91553 11.6432 7.90786 11.5944C7.90019 11.5455 7.90228 11.4957 7.91402 11.4477C7.92576 11.3996 7.94691 11.3544 7.97625 11.3146L9.0525 9.83339L7.96875 8.23589C7.91322 8.15333 7.89263 8.05215 7.91147 7.95445C7.93031 7.85676 7.98706 7.77049 8.06931 7.7145C8.15156 7.65851 8.25262 7.63736 8.35042 7.65565C8.44822 7.67395 8.5348 7.73021 8.59125 7.81214L9.52125 9.18464L10.5225 7.80464C10.5816 7.72652 10.6689 7.67465 10.7658 7.66013C10.8627 7.6456 10.9614 7.66958 11.0408 7.72693C11.1202 7.78428 11.174 7.87045 11.1907 7.96697C11.2074 8.0635 11.1856 8.16271 11.13 8.24338ZM14.67 7.09213L11.925 12.8409C11.8811 12.929 11.8044 12.9964 11.7113 13.0286C11.6182 13.0607 11.5163 13.0551 11.4273 13.0128C11.3384 12.9706 11.2696 12.8951 11.2357 12.8026C11.2018 12.7101 11.2056 12.6081 11.2463 12.5184L13.9913 6.76963C14.0356 6.68225 14.1123 6.61565 14.205 6.58401C14.2978 6.55237 14.3992 6.5582 14.4877 6.60025C14.5762 6.6423 14.6448 6.71725 14.6789 6.80913C14.7129 6.90101 14.7097 7.00256 14.67 7.09213ZM18.2475 10.4259C18.2122 12.4016 15.1556 12.4093 15.12 10.4296V8.03711C15.122 7.93895 15.1623 7.84548 15.2325 7.77676C15.3026 7.70804 15.3968 7.66954 15.495 7.66955C15.5932 7.66955 15.6875 7.70805 15.7576 7.77678C15.8277 7.8455 15.868 7.93898 15.87 8.03714V10.4296C15.8697 11.4124 17.5011 11.4089 17.4975 10.4258V8.02587C17.4975 7.92641 17.537 7.83103 17.6073 7.76071C17.6776 7.69038 17.773 7.65087 17.8725 7.65087C17.9719 7.65087 18.0673 7.69038 18.1376 7.76071C18.208 7.83103 18.2475 7.92641 18.2475 8.02587L18.2475 10.4259ZM19.6838 11.5359C19.6823 11.6344 19.6421 11.7283 19.572 11.7975C19.5018 11.8666 19.4072 11.9054 19.3087 11.9053C19.2102 11.9053 19.1157 11.8666 19.0455 11.7975C18.9754 11.7283 18.9352 11.6344 18.9338 11.5359V8.02587C18.9356 7.92761 18.9759 7.83399 19.046 7.76515C19.1161 7.6963 19.2105 7.65773 19.3088 7.65773C19.407 7.65774 19.5014 7.69631 19.5715 7.76516C19.6416 7.83401 19.6819 7.92763 19.6838 8.02589V11.5359Z" fill="url(#paint0_linear_167_4948)"/>
<path d="M2.25 15.6758H1.5V16.6958C1.50073 17.0964 1.66018 17.4803 1.94344 17.7636C2.22669 18.0469 2.61066 18.2063 3.01125 18.207H10.3575C10.3988 19.0995 8.90625 20.667 7.72125 21.5858C7.65898 21.6334 7.61322 21.6993 7.59044 21.7743C7.56766 21.8492 7.569 21.9295 7.59428 22.0037C7.61956 22.0778 7.66749 22.1422 7.73132 22.1877C7.79514 22.2331 7.87164 22.2574 7.95 22.257H16.05C16.1287 22.255 16.2049 22.2285 16.2679 22.1812C16.3309 22.1339 16.3776 22.0682 16.4015 21.9931C16.4254 21.9181 16.4254 21.8374 16.4013 21.7624C16.3773 21.6874 16.3305 21.6217 16.2675 21.5745C16.2413 21.5558 13.9238 19.887 13.7363 18.207H20.9888C21.3893 18.2063 21.7733 18.0469 22.0566 17.7636C22.3398 17.4803 22.4993 17.0964 22.5 16.6958V15.6758H2.25ZM11.055 16.0845H12.8325C12.931 16.086 13.025 16.1261 13.0941 16.1963C13.1632 16.2665 13.202 16.361 13.202 16.4595C13.202 16.558 13.1632 16.6526 13.0941 16.7228C13.025 16.7929 12.931 16.8331 12.8325 16.8345H11.055C10.9566 16.833 10.8627 16.7928 10.7936 16.7227C10.7245 16.6525 10.6858 16.558 10.6858 16.4595C10.6858 16.3611 10.7245 16.2666 10.7936 16.1964C10.8627 16.1262 10.9566 16.0861 11.055 16.0845Z" fill="black"/>
<path d="M2.25 15.6758H1.5V16.6958C1.50073 17.0964 1.66018 17.4803 1.94344 17.7636C2.22669 18.0469 2.61066 18.2063 3.01125 18.207H10.3575C10.3988 19.0995 8.90625 20.667 7.72125 21.5858C7.65898 21.6334 7.61322 21.6993 7.59044 21.7743C7.56766 21.8492 7.569 21.9295 7.59428 22.0037C7.61956 22.0778 7.66749 22.1422 7.73132 22.1877C7.79514 22.2331 7.87164 22.2574 7.95 22.257H16.05C16.1287 22.255 16.2049 22.2285 16.2679 22.1812C16.3309 22.1339 16.3776 22.0682 16.4015 21.9931C16.4254 21.9181 16.4254 21.8374 16.4013 21.7624C16.3773 21.6874 16.3305 21.6217 16.2675 21.5745C16.2413 21.5558 13.9238 19.887 13.7363 18.207H20.9888C21.3893 18.2063 21.7733 18.0469 22.0566 17.7636C22.3398 17.4803 22.4993 17.0964 22.5 16.6958V15.6758H2.25ZM11.055 16.0845H12.8325C12.931 16.086 13.025 16.1261 13.0941 16.1963C13.1632 16.2665 13.202 16.361 13.202 16.4595C13.202 16.558 13.1632 16.6526 13.0941 16.7228C13.025 16.7929 12.931 16.8331 12.8325 16.8345H11.055C10.9566 16.833 10.8627 16.7928 10.7936 16.7227C10.7245 16.6525 10.6858 16.558 10.6858 16.4595C10.6858 16.3611 10.7245 16.2666 10.7936 16.1964C10.8627 16.1262 10.9566 16.0861 11.055 16.0845Z" fill="url(#paint1_linear_167_4948)"/>
<defs>
<linearGradient id="paint0_linear_167_4948" x1="8.76119" y1="-5.91962" x2="-7.89896" y2="20.1568" gradientUnits="userSpaceOnUse">
<stop stop-color="#E2335F"/>
<stop offset="1" stop-color="#792F6C"/>
</linearGradient>
<linearGradient id="paint1_linear_167_4948" x1="8.76119" y1="10.211" x2="1.86661" y2="28.8853" gradientUnits="userSpaceOnUse">
<stop stop-color="#E2335F"/>
<stop offset="1" stop-color="#792F6C"/>
</linearGradient>
</defs>
</svg>
