<svg width="24" height="24" viewBox="0 0 24 24" fill="none" xmlns="http://www.w3.org/2000/svg">
<path d="M4.87427 0.64502C4.25752 0.64502 3.75 1.15254 3.75 1.7693V3.64502H20.2485V1.7693C20.2485 1.15254 19.7418 0.64502 19.125 0.64502H4.87427ZM5.625 2.145C5.83122 2.1452 5.99833 2.31236 5.99853 2.51858C5.99873 2.72507 5.83151 2.89261 5.625 2.89281C5.41821 2.89302 5.25052 2.72535 5.25073 2.51858C5.25093 2.31206 5.4185 2.1448 5.625 2.145ZM7.12573 2.145C7.33224 2.1448 7.4998 2.31206 7.5 2.51858C7.50021 2.72535 7.33252 2.89302 7.12573 2.89281C6.91923 2.89261 6.752 2.72507 6.7522 2.51858C6.7524 2.31236 6.91951 2.1452 7.12573 2.145ZM8.62573 2.145C8.83224 2.1448 8.9998 2.31206 9 2.51858C9.00021 2.72535 8.83252 2.89302 8.62573 2.89281C8.41923 2.89261 8.252 2.72507 8.2522 2.51858C8.2524 2.31236 8.41951 2.1452 8.62573 2.145ZM13.8552 2.14578H18.375C18.864 2.15712 18.864 2.88493 18.375 2.89579H13.8735C13.3841 2.90855 13.349 2.18016 13.8552 2.14578ZM1.87427 2.89432C1.25751 2.89432 0.75 3.404 0.75 4.02076V17.5215C0.75 18.1383 1.25751 18.645 1.87427 18.645H22.1235C22.7403 18.645 23.25 18.1383 23.25 17.5215V4.02076C23.25 3.404 22.7403 2.89428 22.1235 2.89428H21V3.64429H22.1235C22.3378 3.64429 22.5 3.80652 22.5 4.02076V14.895H1.4978V4.02076C1.4978 3.80652 1.66002 3.64429 1.87427 3.64429H3V2.89428L1.87427 2.89432ZM3.75 4.39503V14.145H20.2485V4.39503H3.75ZM13.1294 5.89065C13.3866 5.89206 13.5658 6.14657 13.481 6.3894L11.2302 13.1409C11.0715 13.6155 10.3596 13.3774 10.5183 12.9028L12.769 6.15358C12.8183 5.99626 12.9645 5.88957 13.1294 5.89065ZM15.241 7.48219L17.4888 9.35938C17.6683 9.50931 17.6683 9.78516 17.4888 9.93508L15.241 11.8093C14.8553 12.1533 14.3529 11.5522 14.7598 11.2336L16.6641 9.64723L14.7598 8.05859C14.498 7.8467 14.6265 7.42391 14.981 7.39283C15.0884 7.39277 15.1738 7.42465 15.241 7.48219ZM8.99048 7.39361C9.34843 7.38227 9.51658 7.83176 9.2395 8.05863L7.33521 9.64728L9.2395 11.2337C9.66426 11.5487 9.14747 12.1698 8.7605 11.8094L6.5105 9.93513C6.331 9.7852 6.331 9.50935 6.5105 9.35943L8.7605 7.48224C8.82498 7.42767 8.90602 7.3963 8.99048 7.39361ZM12.7478 16.3943C13.2483 16.3943 13.2483 17.1451 12.7478 17.1451H11.25C10.7495 17.155 10.7339 16.4046 11.2427 16.3943H12.7478ZM9.6189 19.3951C9.53428 19.6226 9.40649 19.8761 9.20727 20.1458H14.7898C14.5907 19.8761 14.4626 19.6226 14.3782 19.3951H9.6189ZM7.8728 20.8958C7.25604 20.8958 6.74853 21.4025 6.74853 22.0193V22.7701C6.74778 22.9774 6.91542 23.1461 7.1228 23.1465H16.875C17.0821 23.1458 17.2493 22.9772 17.2485 22.7701V22.0193C17.2485 21.4025 16.7418 20.8958 16.125 20.8958H7.8728Z" fill="black"/>
<path d="M4.87427 0.64502C4.25752 0.64502 3.75 1.15254 3.75 1.7693V3.64502H20.2485V1.7693C20.2485 1.15254 19.7418 0.64502 19.125 0.64502H4.87427ZM5.625 2.145C5.83122 2.1452 5.99833 2.31236 5.99853 2.51858C5.99873 2.72507 5.83151 2.89261 5.625 2.89281C5.41821 2.89302 5.25052 2.72535 5.25073 2.51858C5.25093 2.31206 5.4185 2.1448 5.625 2.145ZM7.12573 2.145C7.33224 2.1448 7.4998 2.31206 7.5 2.51858C7.50021 2.72535 7.33252 2.89302 7.12573 2.89281C6.91923 2.89261 6.752 2.72507 6.7522 2.51858C6.7524 2.31236 6.91951 2.1452 7.12573 2.145ZM8.62573 2.145C8.83224 2.1448 8.9998 2.31206 9 2.51858C9.00021 2.72535 8.83252 2.89302 8.62573 2.89281C8.41923 2.89261 8.252 2.72507 8.2522 2.51858C8.2524 2.31236 8.41951 2.1452 8.62573 2.145ZM13.8552 2.14578H18.375C18.864 2.15712 18.864 2.88493 18.375 2.89579H13.8735C13.3841 2.90855 13.349 2.18016 13.8552 2.14578ZM1.87427 2.89432C1.25751 2.89432 0.75 3.404 0.75 4.02076V17.5215C0.75 18.1383 1.25751 18.645 1.87427 18.645H22.1235C22.7403 18.645 23.25 18.1383 23.25 17.5215V4.02076C23.25 3.404 22.7403 2.89428 22.1235 2.89428H21V3.64429H22.1235C22.3378 3.64429 22.5 3.80652 22.5 4.02076V14.895H1.4978V4.02076C1.4978 3.80652 1.66002 3.64429 1.87427 3.64429H3V2.89428L1.87427 2.89432ZM3.75 4.39503V14.145H20.2485V4.39503H3.75ZM13.1294 5.89065C13.3866 5.89206 13.5658 6.14657 13.481 6.3894L11.2302 13.1409C11.0715 13.6155 10.3596 13.3774 10.5183 12.9028L12.769 6.15358C12.8183 5.99626 12.9645 5.88957 13.1294 5.89065ZM15.241 7.48219L17.4888 9.35938C17.6683 9.50931 17.6683 9.78516 17.4888 9.93508L15.241 11.8093C14.8553 12.1533 14.3529 11.5522 14.7598 11.2336L16.6641 9.64723L14.7598 8.05859C14.498 7.8467 14.6265 7.42391 14.981 7.39283C15.0884 7.39277 15.1738 7.42465 15.241 7.48219ZM8.99048 7.39361C9.34843 7.38227 9.51658 7.83176 9.2395 8.05863L7.33521 9.64728L9.2395 11.2337C9.66426 11.5487 9.14747 12.1698 8.7605 11.8094L6.5105 9.93513C6.331 9.7852 6.331 9.50935 6.5105 9.35943L8.7605 7.48224C8.82498 7.42767 8.90602 7.3963 8.99048 7.39361ZM12.7478 16.3943C13.2483 16.3943 13.2483 17.1451 12.7478 17.1451H11.25C10.7495 17.155 10.7339 16.4046 11.2427 16.3943H12.7478ZM9.6189 19.3951C9.53428 19.6226 9.40649 19.8761 9.20727 20.1458H14.7898C14.5907 19.8761 14.4626 19.6226 14.3782 19.3951H9.6189ZM7.8728 20.8958C7.25604 20.8958 6.74853 21.4025 6.74853 22.0193V22.7701C6.74778 22.9774 6.91542 23.1461 7.1228 23.1465H16.875C17.0821 23.1458 17.2493 22.9772 17.2485 22.7701V22.0193C17.2485 21.4025 16.7418 20.8958 16.125 20.8958H7.8728Z" fill="url(#paint0_linear_167_4873)"/>
<defs>
<linearGradient id="paint0_linear_167_4873" x1="8.52985" y1="-18.0393" x2="-27.2636" y2="12.3416" gradientUnits="userSpaceOnUse">
<stop stop-color="#E2335F"/>
<stop offset="1" stop-color="#792F6C"/>
</linearGradient>
</defs>
</svg>
